<?xml version="1.0" standalone="no"?>
<!DOCTYPE svg PUBLIC "-//W3C//DTD SVG 1.1//EN" "http://www.w3.org/Graphics/SVG/1.1/DTD/svg11.dtd" >
<svg xmlns="http://www.w3.org/2000/svg" xmlns:xlink="http://www.w3.org/1999/xlink" version="1.1">
<metadata>
Created by FontForge 20170731 at Sun Mar 13 18:32:08 2011
 By Aleksey,,,
Free for personal use. For commercial licensing, visit www.laurenashpole.com.
</metadata>
<defs>
<font id="Horseshoes" horiz-adv-x="481" >
  <font-face 
    font-family="Horseshoes"
    font-weight="400"
    font-stretch="normal"
    units-per-em="1000"
    panose-1="0 0 0 0 0 0 0 0 0 0"
    ascent="800"
    descent="-200"
    x-height="668"
    cap-height="686"
    bbox="0 -235 739 807"
    underline-thickness="50"
    underline-position="-199"
    unicode-range="U+0020-007E"
  />
<missing-glyph horiz-adv-x="545" 
 />
    <glyph glyph-name=".notdef" horiz-adv-x="545" 
 />
    <glyph glyph-name=".null" horiz-adv-x="0" 
 />
    <glyph glyph-name="nonmarkingreturn" horiz-adv-x="333" 
 />
    <glyph glyph-name="space" unicode=" " horiz-adv-x="545" 
 />
    <glyph glyph-name="exclam" unicode="!" horiz-adv-x="263" 
d="M70 -42q0 28 20.5 48t48.5 20q29 0 48.5 -19.5t19.5 -48.5q0 -30 -20.5 -49.5t-47.5 -19.5q-28 0 -48.5 21.5t-20.5 47.5zM158 88l-45 -20q6 76 6 160q0 146 -14 309l-16 177q0 75 71 75q39 0 55 -26t16 -53q0 -86 -17 -167q-56 -255 -56 -455z" />
    <glyph glyph-name="quotedbl" unicode="&#x22;" horiz-adv-x="205" 
d="M123 769l59 -5l-6 -162l-43 13zM29 757l56 15l3 -154l-51 -14z" />
    <glyph glyph-name="numbersign" unicode="#" horiz-adv-x="653" 
d="M253 428l-34 -170l148 -1l34 170zM158 -26l-59 -1l49 227h-81l2 57h92l33 170h-126l6 59h134l42 211h59l-42 -210l145 -1l54 246h62l-53 -246h133l-6 -59h-140l-34 -170h119l-5 -57h-128l-42 -200h-61l44 200l-150 1z" />
    <glyph glyph-name="dollar" unicode="$" horiz-adv-x="391" 
d="M198 -125l-42 4l5 112q-55 4 -95 37q-45 37 -45 91q0 31 16.5 52t45.5 21q26 0 41.5 -17t15.5 -43q0 -57 -62 -57q11 -19 34.5 -35t50.5 -18l13 290q-55 47 -106 125q-34 53 -34 121q0 156 153 191l1 58l43 -2l-2 -54q53 -4 93.5 -38.5t40.5 -80.5q0 -26 -15.5 -44
t-41.5 -18q-24 0 -40 16.5t-16 38.5q0 47 53 58q-24 29 -74 28l-8 -312q5 -3 26.5 -17t27.5 -18t20 -14.5t21.5 -18.5t13.5 -17q37 -56 37 -123q0 -164 -165 -199zM218 288l-11 -262q93 32 93 119q0 40 -20.5 71t-61.5 72zM181 433l7 276q-50 -5 -69 -36.5t-19 -69.5
q0 -39 12 -68q1 -3 8.5 -17.5t11 -20.5t11 -19t13 -19.5t12.5 -14t13 -11.5z" />
    <glyph glyph-name="percent" unicode="%" horiz-adv-x="747" 
d="M572 305q-8 0 -12.5 -5t-9.5 -16t-7 -14q-18 -35 -15 -141q0 -27 9.5 -69.5t20.5 -60.5q15 -23 30 -23q17 0 32 31q14 34 14 108q0 40 -7.5 90t-20.5 73q-15 27 -34 27zM568 343q62 0 97.5 -63t35.5 -152q0 -85 -33.5 -133.5t-79.5 -48.5q-70 0 -102.5 62.5t-32.5 145.5
q0 70 33 129.5t82 59.5zM174 722q-33 0 -46.5 -60t-13.5 -142q0 -35 6 -83q8 -57 38 -61q16 0 32 27q26 45 26 139q0 117 -9 146q-4 12 -6 17t-9 11t-18 6zM178 758q51 0 83.5 -54t32.5 -137q0 -105 -36.5 -162t-100.5 -55q-51 1 -83.5 57t-32.5 134q0 51 11 97t43.5 83
t82.5 37zM581 770l44 -13l-472 -841l-43 12z" />
    <glyph glyph-name="ampersand" unicode="&#x26;" horiz-adv-x="550" 
d="M365 40q-39 -58 -91 -81q-24 -10 -61 -10q-67 0 -138 82q-53 65 -53 159q0 96 35 156q39 67 102 112q-35 102 -35 162q0 72 39 118q42 51 111 51q61 0 95.5 -36.5t34.5 -86.5q0 -94 -144 -187l72 -198q30 -71 53 -109q13 40 26 125q7 48 10 109q0 14 -18 23t-43 8v33
l177 -30v-33q-11 0 -25 4t-21 4q-13 0 -22 -33q-14 -45 -19 -74q-17 -107 -40 -194q32 -56 64 -56q37 0 37 48q0 32 -22 60h32q21 -22 21 -60q0 -29 -13 -63t-39 -48q-14 -6 -40 -6q-16 0 -60 20q-7 4 -15 16.5t-10 14.5zM337 74q-96 161 -158 339q-19 -16 -28 -36
q-20 -40 -20 -62q0 -59 9 -106q4 -21 25 -95q7 -26 25 -53q35 -53 80 -53q7 1 21 9t19 15q11 14 27 42zM247 522q55 42 73 65q36 46 37 84q0 16 -24 58q-16 22 -57 22q-52 0 -52 -81q1 -68 23 -148z" />
    <glyph glyph-name="quotesingle" unicode="'" horiz-adv-x="146" 
d="M40 769l62 -5l-6 -152l-46 13z" />
    <glyph glyph-name="parenleft" unicode="(" horiz-adv-x="351" 
d="M300 -108l-24 -30q-54 43 -92 95t-76 123q-57 105 -57 225q2 172 54 283q58 126 157 211q6 -5 17.5 -15t17.5 -15q-82 -87 -113 -174q-47 -133 -47 -287q0 -128 41 -225q50 -119 122 -191z" />
    <glyph glyph-name="parenright" unicode=")" horiz-adv-x="339" 
d="M66 -138l-24 30q84 88 122 191q41 110 41 225q0 163 -47 287q-19 51 -44.5 88.5t-68.5 85.5l35 30q91 -79 157 -211q54 -109 54 -283q0 -115 -57 -225q-75 -143 -168 -218z" />
    <glyph glyph-name="asterisk" unicode="*" horiz-adv-x="291" 
d="M94 642l-52 60l24 16l61 -57l40 77l27 -7l-33 -81l113 3v-30l-112 -6l74 -75l-32 -17l-65 71l-41 -83l-29 17l37 81l-82 -4l2 32z" />
    <glyph glyph-name="plus" unicode="+" horiz-adv-x="494" 
d="M43 269l-1 58l177 3l-3 195l65 6l-2 -200l168 1l-3 -58l-164 -1l-1 -171l-59 -2v170z" />
    <glyph glyph-name="comma" unicode="," horiz-adv-x="196" 
d="M60 105l91 -15q-4 -86 -11 -125q-7 -50 -49 -106l-49 51q25 62 25 107q0 37 -7 88z" />
    <glyph glyph-name="hyphen" unicode="-" horiz-adv-x="500" 
d="M54 421l392 -4v-70l-392 4v70z" />
    <glyph glyph-name="period" unicode="." horiz-adv-x="185" 
d="M161 32q0 -24 -20 -43.5t-49 -19.5q-22 0 -43 20t-21 43q0 27 19.5 48t44.5 21q29 0 49 -18.5t20 -50.5z" />
    <glyph glyph-name="slash" unicode="/" horiz-adv-x="328" 
d="M247 789l65 -20l-232 -881l-63 20z" />
    <glyph glyph-name="zero" unicode="0" horiz-adv-x="446" 
d="M421 381q0 -165 -15 -213q-22 -68 -66.5 -118.5t-104.5 -50.5t-104 48.5t-69 123.5q-37 109 -37 210q0 85 24 160q15 45 26.5 72t32 60.5t49.5 49.5t66 16q58 0 104 -50q39 -53 70 -149q24 -72 24 -159zM308 367q0 106 -6 157q-15 124 -67 124q-53 0 -66 -124
q-5 -44 -5 -157q0 -145 28 -260q16 -64 55 -64q23 0 35 16.5t21 47.5q7 23 7 70q0 39 -0.5 84.5t-1 69.5t-0.5 36z" />
    <glyph glyph-name="one" unicode="1" horiz-adv-x="311" 
d="M286 38v-29l-261 25v28l56 -1q13 0 17 4q11 13 11 54l13 444q0 22 -13 36q-7 5 -17 4l-55 -4v29q42 6 81 36l71 55h27l-12 -604q0 -35 10 -51q17 -23 35 -24z" />
    <glyph glyph-name="two" unicode="2" horiz-adv-x="400" 
d="M322 0l-297 13v49q22 84 33 106q34 67 76 125q13 17 39 49.5t44.5 56.5t25.5 35q28 56 28 114q0 112 -104 112q-32 0 -54 -19.5t-26 -55.5q12 6 22 6q21 0 36 -15t15 -38t-14.5 -39.5t-38.5 -16.5q-61 0 -61 80q0 59 45 97.5t107 38.5q79 0 128.5 -42t49.5 -123
q0 -29 -40.5 -85.5t-72.5 -91t-85 -89.5q-53 -56 -58 -66q-15 -35 -30 -72q26 -3 78.5 -13.5t61.5 -10.5q16 0 24 1.5t19 8t18.5 21.5t13.5 41h27z" />
    <glyph glyph-name="three" unicode="3" horiz-adv-x="391" 
d="M196 708q74 0 122 -45t48 -135q0 -35 -15.5 -76t-35.5 -62q-23 -23 -47.5 -35t-70.5 -19q142 -34 142 -166q0 -76 -42 -116q-71 -65 -131 -65q-55 0 -92 32q-49 44 -49 76q0 61 50 61t50 -48t-55 -48q38 -43 74 -43q15 0 38.5 15t39.5 39q17 23 17 100q0 151 -75 151
q-5 0 -13 -2.5t-13 -2.5q-20 0 -20 19q0 18 19 18q5 0 17 -2.5t18 -2.5q36 0 58 39q33 60 33 141q0 143 -88 143q-61 0 -76 -56q12 2 19 2q48 0 48 -52q0 -19 -12 -35t-36 -16q-29 0 -43.5 21.5t-14.5 51.5q0 51 42 87q38 31 94 31z" />
    <glyph glyph-name="four" unicode="4" horiz-adv-x="372" 
d="M333 0l-204 11v29q38 8 46 16q9 11 9 37v117l-159 -25v52l199 472h58v-446l64 12v-41l-64 -12v-133q0 -23 13 -37q17 -21 38 -24v-28zM82 239l102 12v127q0 28 2 64q1 9 4 39t4 47z" />
    <glyph glyph-name="five" unicode="5" horiz-adv-x="383" 
d="M317 386q24 -32 35 -63q6 -23 6 -70q0 -128 -45 -187q-38 -48 -46 -56q-28 -21 -62 -21q-64 0 -110.5 37t-46.5 102q0 29 16.5 51t47.5 22q24 0 40.5 -17t16.5 -43q0 -55 -63 -55q10 -59 71 -59q27 0 35 13q7 7 23 41q35 80 35 161q0 38 -14 73q-12 20 -26 47
q-20 41 -67 41q-50 0 -76 -40q-4 -67 -33 -67q-19 0 -19 20q0 26 16 50l-31 312h39q3 0 22.5 -1.5t38.5 -1.5q115 0 172 21q-1 -9 -3 -49q-10 -41 -67 -51q-30 -6 -91 -6q-7 0 -23.5 -7.5t-23.5 -7.5q-8 0 -14 1l18 -163q50 38 103 38q78 0 126 -65z" />
    <glyph glyph-name="six" unicode="6" horiz-adv-x="371" 
d="M143 371q41 41 84 41q65 0 97 -68q24 -52 24 -126q-2 -118 -30 -160q-39 -60 -121 -60q-78 0 -120 76q-27 47 -44 213q-8 70 -8 157q0 123 28 176q54 98 146 98q40 0 71.5 -23.5t31.5 -66.5q0 -26 -15 -44q-2 -2 -11 -10t-16 -13t-11 -5q-12 0 -40 26q-15 15 -15 38
q0 36 45 58q-14 13 -33 13q-50 0 -73 -61q-10 -26 -10 -83q0 -101 20 -176zM140 308q-1 -32 -1.5 -56t-1 -32t-0.5 -13q0 -50 26 -138q8 -28 43 -28q31 0 39 18q12 32 12 111q0 99 -22 166q-11 30 -36 30q-14 0 -32 -12q-3 -3 -27 -46z" />
    <glyph glyph-name="seven" unicode="7" horiz-adv-x="371" 
d="M289 609q-145 25 -155 25q-27 -1 -50 -27q-22 -31 -31 -68h-28l21 181l300 -37v-38q-38 -82 -56 -124q-36 -84 -46 -127q-26 -106 -26 -242q0 -6 1 -43t1 -44q0 -82 -62 -82q-53 0 -53 75q0 15 5 38t17.5 63.5t14.5 49.5l47 166q37 127 100 234z" />
    <glyph glyph-name="eight" unicode="8" horiz-adv-x="369" 
d="M248 391q51 -44 74 -87q22 -40 22 -136q0 -75 -48 -128q-47 -52 -124 -52q-66 0 -106.5 40.5t-40.5 104.5q0 69 28 109q40 59 80 91q-34 30 -60 91q-20 49 -20 119q0 71 39 123q41 54 112 54q61 0 98.5 -39.5t35.5 -107.5q-2 -65 -17 -98.5t-73 -83.5zM226 407
q14 14 23.5 28.5t15 26t9 29t4.5 26.5t2 29t2 27q0 24 -2.5 42t-10.5 37t-25 29t-43 10q-83 0 -83 -98q0 -69 24 -109q24 -37 84 -77zM183 17q43 0 68 29.5t25 65.5q0 80 -28 120q-26 39 -93 84q-27 -17 -49 -67q-19 -47 -19 -106q0 -49 21 -85q25 -41 75 -41z" />
    <glyph glyph-name="nine" unicode="9" horiz-adv-x="383" 
d="M251 343q-43 -41 -81 -41q-139 0 -145 193q-2 82 28 144q37 78 115 78q47 0 70 -6q31 -11 53 -44q59 -93 65 -223q2 -56 2 -73q0 -200 -34 -263q-54 -101 -143 -101q-47 0 -77.5 26t-30.5 63q0 30 15.5 46.5t36.5 16.5q28 0 43 -16.5t15 -36.5q0 -38 -43 -58
q12 -12 33 -12q49 0 71 61q6 16 8 107q1 27 0 77t-1 62zM225 361q6 5 9.5 19t4.5 15q0 65 -1 101q-4 73 -10 110q-15 81 -55 81q-46 0 -46 -112q0 -117 29 -197q11 -29 37 -29q21 0 32 12z" />
    <glyph glyph-name="colon" unicode=":" horiz-adv-x="196" 
d="M144 106q0 -20 -18 -38t-44 -18q-19 0 -38 17.5t-19 38.5q0 26 18 44t39 18q26 0 44 -17t18 -45zM170 470q0 -23 -20 -43.5t-49 -20.5q-22 0 -42.5 20.5t-20.5 43.5q0 27 19.5 47.5t43.5 20.5q29 0 49 -18t20 -50z" />
    <glyph glyph-name="semicolon" unicode=";" horiz-adv-x="196" 
d="M171 471q0 -23 -20 -44t-49 -21q-23 0 -43.5 20.5t-20.5 44.5q0 28 19 48t45 20q29 0 49 -18.5t20 -49.5zM60 112l107 -13q-6 -81 -21 -128q-22 -66 -61 -112l-53 44q31 69 33 143q0 29 -5 66z" />
    <glyph glyph-name="less" unicode="&#x3c;" horiz-adv-x="514" 
d="M450 549l19 -57l-333 -153l327 -176l-20 -51l-399 205v40z" />
    <glyph glyph-name="equal" unicode="=" horiz-adv-x="550" 
d="M79 462l402 -6v-74l-402 6v74zM79 268l402 14v-85l-402 6v65z" />
    <glyph glyph-name="greater" unicode="&#x3e;" horiz-adv-x="514" 
d="M44 492l19 57l406 -192v-40l-399 -205l-20 51l327 176z" />
    <glyph glyph-name="question" unicode="?" horiz-adv-x="388" 
d="M92 -21q0 28 20 48t50 20t49.5 -20t19.5 -48q0 -31 -20.5 -50.5t-48.5 -19.5q-31 0 -50.5 21.5t-19.5 48.5zM163 128l-46 -20q-31 182 -31 230q0 26 5 35q32 54 60 106q21 39 73 96q44 50 44 70q0 36 -25 73q-12 18 -33 31t-35 13q-13 0 -39.5 -7t-30.5 -10
q-14 -10 -30 -40q65 -2 65 -56q0 -24 -15.5 -40.5t-44.5 -16.5q-61 0 -61 69q0 67 38 97q19 15 57 28t70 13q65 0 129 -59q43 -38 43 -97q0 -53 -34 -102q-11 -15 -56.5 -49.5t-63.5 -56.5q-38 -48 -52 -72q-8 -13 -8 -52q0 -53 10 -118q1 -6 5 -29t6 -36z" />
    <glyph glyph-name="at" unicode="@" horiz-adv-x="764" 
d="M435 330q0 34 -22 79q-17 20 -39 20q-20 0 -37 -18q-39 -40 -56 -118q-4 -15 -4 -34q0 -55 26 -91q15 -20 37 -20q13 1 36 17q21 18 36 48q7 15 11 32q7 22 9 34q3 17 3 51zM500 380l20 67l54 -18l-51 -213q0 -41 33 -41q42 0 61 33q12 22 25 65q5 16 5 95q0 27 -10 64
q-12 44 -27 57q-45 39 -78 55q-46 22 -101 22q-71 0 -110 -16q-166 -70 -201 -166q-24 -66 -24 -131q0 -133 90 -211q87 -74 221 -74q74 0 125.5 19.5t112.5 62.5q4 -3 12 -9.5t12 -9.5q-118 -88 -262 -88q-154 0 -246 71q-122 94 -122 253q0 164 133 274q107 89 254 89
t220 -64q93 -83 93 -209q0 -86 -13 -117q-24 -56 -77 -104q-18 -15 -61 -33q-8 -3 -26 -3q-1 0 -12.5 1t-13.5 1q-80 0 -85 81q-50 -80 -110 -80q-67 0 -98 55q-27 46 -27 116q0 31 12 73q14 44 34 64q54 53 122 53q22 0 50 -10t37 -19q24 -23 29 -55z" />
    <glyph glyph-name="A" unicode="A" 
d="M456 4h-193v27q37 1 37 30q0 22 -3 33l-33 131l-122 -11l-29 -78q-3 -5 -3 -26q0 -43 49 -46v-27h-134v27q35 2 55 81l139 584h58l127 -629q14 -67 52 -69v-27zM257 263l-47 265l-59 -276z" />
    <glyph glyph-name="B" unicode="B" horiz-adv-x="445" 
d="M161 643v-243h9q98 0 98 133q0 69 -9 96q-17 47 -70 47q-28 0 -28 -33zM161 371q1 -41 3 -88t5 -105t4 -89q1 -47 35 -47q73 0 73 156q0 86 -19 120q-31 53 -101 53zM221 12q-18 -1 -51 -4t-59.5 -5t-50.5 -3v42q40 6 37 45q-18 302 -37 543q-1 18 -3 25t-10 13t-25 8v43
q31 -2 91 -6.5t89 -6.5q94 -6 141 -35q58 -36 58 -124q0 -130 -159 -161q94 -14 136 -61.5t42 -114.5q0 -103 -50 -150q-46 -42 -149 -48z" />
    <glyph glyph-name="C" unicode="C" horiz-adv-x="410" 
d="M322 114v65h32q0 -74 -2 -89q-4 -27 -23 -48q-34 -50 -112 -50q-95 0 -153 97q-39 67 -39 238q0 129 66 248q54 95 138 95q37 0 69 -27h16l-9 63h53l27 -248h-46q-45 182 -103 182q-41 0 -57 -69q-41 -170 -41 -245q0 -157 20 -220q10 -28 31 -49q24 -25 50 -25
q44 0 70 43q13 21 13 39z" />
    <glyph glyph-name="D" unicode="D" horiz-adv-x="458" 
d="M175 14l-116 -12v42q42 6 38 45l-37 506q-4 43 -37 47v54l140 -12q160 -14 209 -56q20 -17 54 -103q7 -26 7 -74q0 -95 -22 -205q-23 -113 -50 -147q-60 -73 -186 -85zM172 592l13 -475q0 -21 7 -39q6 -10 27 -10q31 0 40 2q21 7 27 44q9 52 25 410q2 39 -4 60
q-8 26 -39 42t-59 16q-39 0 -37 -50z" />
    <glyph glyph-name="E" unicode="E" horiz-adv-x="409" 
d="M374 25l-349 -11v40q36 6 38 45l11 529q0 20 -7.5 31.5t-30.5 14.5v29l346 11l2 -166h-30q-8 41 -21 56l-27 32q-31 38 -83 38q-16 0 -24 -5t-10 -13t-3 -28l-11 -241q36 5 57 32q4 5 24 19q14 10 16 31h30l-11 -209h-30q-1 7 -1.5 12t-4 11t-4.5 8.5t-7.5 12t-9.5 13.5
q-24 34 -59 38v-260q0 -41 34 -41q50 0 84 45q6 7 31 39q14 23 25 62h28z" />
    <glyph glyph-name="F" unicode="F" horiz-adv-x="413" 
d="M365 696l23 -203h-25q-13 42 -33 69q-22 30 -52 55q-32 27 -70 27q-20 0 -26 -8q-9 -8 -9 -39v-224q34 4 56 32q2 3 24 18q13 8 18 30h28l-24 -203h-28q-2 33 -15 53q-21 32 -59 39v-264q0 -43 42 -46v-28l-173 -11v27q44 24 43 58q-24 534 -27 542q-8 22 -34 24v27z" />
    <glyph glyph-name="G" unicode="G" horiz-adv-x="432" 
d="M377 -8h-39l-22 57q-46 -36 -98 -36q-83 0 -133 86q-60 106 -60 235q0 171 46 248q59 97 155 97q25 0 59 -26l41 -12l14 88l42 -13l-23 -248h-33q-44 182 -105 182q-51 0 -65 -131q-7 -61 -7 -181q0 -153 26 -247q12 -46 49 -46q29 0 42 28q15 29 15 65q0 30 -13 130
q-2 22 -5 28.5t-14 6.5q-5 0 -13.5 -1t-14.5 -1v43l187 13v-43q-30 -5 -36 -13q-8 -14 -7 -33z" />
    <glyph glyph-name="H" unicode="H" 
d="M187 392l121 -12l-13 230q-2 26 -7 33q-3 2 -9 2q-2 0 -7.5 -0.5t-12.5 -0.5v30l197 12v-30q-35 -5 -35 -46l-12 -581q-2 -38 35 -44v-29l-173 -12v29q9 2 29 24q8 8 8 32v312l-121 12l24 -249q2 -25 9 -34q2 -2 7 -2q1 0 3 0.5t7 1t12 0.5v-30l-188 -12v30q41 7 38 46
l-37 542q-2 31 -11 38t-26 10v29l186 12v-29q-5 -1 -28 -24q-10 -13 -9 -36z" />
    <glyph glyph-name="I" unicode="I" horiz-adv-x="265" 
d="M174 598l25 -519q1 -25 7.5 -34.5t28.5 -22.5v-29l-186 11v30q40 5 38 45l-25 519q-2 41 -37 46v30l186 12v-30q-7 -1 -16.5 -9.5t-12.5 -14.5q-8 -12 -8 -34z" />
    <glyph glyph-name="J" unicode="J" horiz-adv-x="368" 
d="M343 718v-41q-37 -1 -35 -41q3 -64 10 -181t11.5 -199t4.5 -94q0 -65 -26 -101q-35 -48 -53 -56q-64 -27 -101 -27q-47 0 -104 43q-25 21 -25 75q0 69 65 69q56 0 56 -56q0 -22 -14.5 -38t-41.5 -16q-7 0 -16 3l-2 -3q20 -30 60 -30q18 0 48 18.5t38 33.5q17 34 17 76
q0 5 -38 481q-2 27 -11 35q-2 1 -6 1q-3 0 -14 -3t-18 -3v41z" />
    <glyph glyph-name="K" unicode="K" horiz-adv-x="478" 
d="M174 269v-206q0 -29 5 -39q6 -15 31 -19v-29l-161 13v29q39 3 37 45l-25 581q-2 43 -36 46v30l198 13v-30q-7 0 -28 -25q-9 -10 -9 -34l-12 -301l147 246q8 13 8 29q0 21 -47 23v29l157 -12l-1 -29q-12 2 -25 2t-20 -1q-12 -7 -30 -37l-84 -150l126 -318q3 -8 9 -22
l9 -21q6 -3 8 -3q3 0 8.5 1t13.5 1v-31l-190 -25v28q3 1 27 22q6 9 6 20q0 13 -5 30l-63 242z" />
    <glyph glyph-name="L" unicode="L" horiz-adv-x="395" 
d="M359 13l-312 11v29q40 7 38 46l-22 527q-2 42 -38 48v29l197 12l-1 -29q-9 -1 -36 -25q-10 -9 -10 -35l11 -532q2 -41 34 -41q47 0 70 35q17 27 53 115h27z" />
    <glyph glyph-name="M" unicode="M" horiz-adv-x="520" 
d="M204 -46h-143v30q41 6 41 66q0 8 -5.5 94.5t-15.5 230t-15 228.5q-3 30 -17 34q-9 3 -24 7v29l170 12l65 -209l71 259l164 -12v-43h-2q-2 0 -5 0.5t-6 0.5q-9 0 -18 -1q-9 -16 -9 -39l-12 -556q-2 -49 40 -53v-29h-187v29q30 3 42 20q10 18 10 46l12 602l-89 -370h-41
l-113 293l38 -562q4 -52 11 -58q15 -16 38 -20v-29z" />
    <glyph glyph-name="N" unicode="N" horiz-adv-x="446" 
d="M421 703v-29q-37 -3 -40 -9q-11 -15 -11 -45q0 -1 33 -637h-49l-210 539l-11 -412q-2 -70 51 -78v-28l-160 11v28q30 3 43 26q7 17 7 53l11 464q0 22 -11 32q-18 2 -27 2q-7 0 -14 -1v29l153 11l158 -411l-11 360q0 37 -8 52q-9 21 -42 25v29z" />
    <glyph glyph-name="O" unicode="O" horiz-adv-x="446" 
d="M211 638q-53 0 -67 -124q-4 -38 -4 -157q0 -40 -2 -118.5t-2 -81.5q0 -31 7 -60q14 -64 56 -64q37 0 55 64q28 109 28 260q0 113 -5 157q-14 124 -66 124zM421 371q0 -96 -37 -210q-40 -123 -118 -159q-31 -13 -55 -13q-63 0 -112 57q-36 41 -59 115q-15 49 -15 210
q0 84 24 159q38 112 70 149q45 50 104 50q58 0 104 -50q33 -37 70 -148q24 -76 24 -160z" />
    <glyph glyph-name="P" unicode="P" horiz-adv-x="435" 
d="M173 635l12 -243h11q45 0 67 31q34 48 34 116q0 50 -31 103q-20 34 -60 34q-35 0 -33 -41zM24 694l173 25q9 1 29 1q81 0 132.5 -51.5t51.5 -133.5q0 -81 -59 -131q-51 -43 -138 -43h-27l23 -286q3 -43 42 -47v-28h-159v28q43 9 43 40q0 5 -12.5 99.5t-33 245.5
t-29.5 217q-2 17 -8 33q-3 2 -7 2q-5 0 -9.5 -0.5t-11.5 -0.5v30z" />
    <glyph glyph-name="Q" unicode="Q" horiz-adv-x="455" 
d="M160 188q28 42 67 42q35 0 60 -37q5 31 7 70q8 120 8 134q0 28 3 103t3 96q0 35 -3 48q-13 50 -57 50q-56 0 -68 -50q-29 -115 -29 -266q0 -124 9 -190zM270 70q-21 -11 -46 -11q-61 0 -106 50q-23 24 -55 123q-38 111 -38 213q0 101 21 163q16 49 59 84q19 15 62 34
q20 10 69 10q85 0 130 -75q21 -37 43 -109q8 -24 13 -70.5t6.5 -73.5t1.5 -36q0 -89 -21 -152q-12 -38 -78 -104q11 -45 25 -93q12 -16 24 -16q18 0 18 33v56h23q1 -16 1 -36q0 -111 -72 -111q-69 0 -80 121zM224 89q47 0 47 53q0 59 -48 59q-49 0 -49 -58q0 -22 14.5 -38
t35.5 -16z" />
    <glyph glyph-name="R" unicode="R" horiz-adv-x="477" 
d="M432 223l22 -2q2 -10 2 -30q0 -155 -92 -155q-53 0 -79 49q-21 39 -21 143q0 98 -21 131q-18 28 -76 28l11 -299q2 -41 42 -45v-29h-195v29q20 1 31.5 14t11.5 31l11 539q2 42 -39 46v29l163 -11q92 -5 138 -32q63 -36 63 -119q0 -116 -160 -145q69 -16 100 -60
q25 -37 35 -114q4 -36 4 -75q2 -58 19 -58q14 0 21 19q11 27 11 90q0 14 -2 26zM275 519q0 46 -27 92q-18 28 -56 28q-36 0 -36 -38v-209h10q53 0 76 29q33 43 33 98z" />
    <glyph glyph-name="S" unicode="S" horiz-adv-x="371" 
d="M236 402q60 -62 85 -106q31 -54 31 -120q0 -73 -41 -124q-38 -46 -99 -46q-23 0 -65.5 18t-47.5 19q-11 0 -20 -5q-1 -3 -5.5 -15.5t-6.5 -21.5l-42 1l11 233l38 -2q37 -194 141 -194q65 0 65 73q0 41 -33 91q-15 22 -66 78q-85 92 -100 119q-10 18 -24 77q-7 51 -7 81
q0 64 38 113t100 49q18 0 54.5 -15.5t38.5 -15.5q9 0 9 8v21q0 12 2 17l55 -1l-11 -185l-36 2q-2 23 -14 49q-13 18 -29 39q-31 50 -76 50q-60 0 -60 -67q0 -50 37 -115q32 -57 78 -105z" />
    <glyph glyph-name="T" unicode="T" horiz-adv-x="427" 
d="M402 671l-8 -228h-27q-24 152 -65 170l-30 7l12 -540q0 -32 8 -42q9 -17 36 -19v-39l-213 13v38q8 0 17 -0.5t12 -0.5q17 0 20 3q8 12 8 47l-12 553q-38 -15 -57 -49q-3 -5 -8 -14t-6.5 -12t-5 -9.5t-4.5 -9.5t-3.5 -8t-3.5 -8.5t-2.5 -8.5t-2.5 -10.5t-2 -11.5h-40
l18 217z" />
    <glyph glyph-name="U" unicode="U" horiz-adv-x="477" 
d="M353 167l11 385q2 37 -11 57q-19 27 -38 31v29l137 -22v-29q-20 0 -38 -9q-9 -12 -11 -57l-11 -379q0 -88 -38 -135q-38 -45 -127 -45q-87 0 -123.5 40.5t-36.5 127.5v467q0 34 -23 41q-7 -3 -19 -6v29l194 22v-29q-10 0 -32 -22q-8 -11 -8 -35v-463q0 -65 11 -91
q19 -43 72 -43q55 0 76 43q15 31 15 93z" />
    <glyph glyph-name="V" unicode="V" horiz-adv-x="456" 
d="M236 3l-59 -11l-99 545q-5 26 -15 42q-7 8 -38 13v30l183 24v-30q-34 0 -34 -24q0 -14 2 -23l63 -349l92 382l2.5 10l2.5 10t1 5q0 32 -45 39v29l139 -25v-28q-35 -7 -50 -65z" />
    <glyph glyph-name="W" unicode="W" horiz-adv-x="549" 
d="M524 738v-28q-40 -10 -44 -72l-50 -652h-75l-77 435l-108 -399h-35l-73 569q-6 48 -37 57v29l140 24v-29q-35 -4 -35 -32l48 -414l76 283l-6 36q-5 35 -44 42v27h158v-27q-34 -3 -34 -29q0 -5 1 -10q-2 -9 -8 -33l76 -318l25 440q0 4 1 13.5t1 11.5q0 56 -50 60v28z" />
    <glyph glyph-name="X" unicode="X" horiz-adv-x="469" 
d="M444 79v-27l-199 -25v28q32 2 32 24q0 10 -8 30l-62 163l-47 -193q-1 -5 -3.5 -15l-4.5 -18l-2 -7q0 -11 10 -23q3 -2 14 -11t14 -11v-27l-151 12v26q67 6 87 80l64 235l-98 263q-12 31 -64 35l-1 28l197 25v-29q-28 -2 -28 -18q0 -8 6 -24l54 -143l65 178q7 21 7 26
q0 19 -4 27q-6 10 -38 16v28l144 -12v-28h-3q-47 0 -68 -56l-85 -226l105 -276q23 -61 38 -61q3 0 11 3t18 3z" />
    <glyph glyph-name="Y" unicode="Y" 
d="M321 709l135 -13v-28q-39 -4 -61 -73l-98 -319v-223q0 -42 44 -45v-28h-201v28q19 1 30 9q12 7 14 36l13 231l-121 313q-11 26 -18 36q-7 1 -17 1q-12 0 -16 -3v28l204 12l-1 -27q-40 -2 -40 -28q0 -6 5 -28l84 -255l84 269q4 16 4 28q0 50 -44 50v29z" />
    <glyph glyph-name="Z" unicode="Z" horiz-adv-x="410" 
d="M353 233h32l-37 -206l-323 -49v35l218 627q-8 1 -22 1q-65 0 -98 -36q-52 -55 -67 -126h-27l18 190l319 62v-23l-253 -651q7 -2 23 -2q73 0 136 49t81 129z" />
    <glyph glyph-name="bracketleft" unicode="[" horiz-adv-x="308" 
d="M299 -105l-224 -20l-10 913l234 10v-51l-148 -10l10 -801l138 10v-51z" />
    <glyph glyph-name="backslash" unicode="\" horiz-adv-x="328" 
d="M10 769l65 20l230 -881l-63 -20z" />
    <glyph glyph-name="bracketright" unicode="]" horiz-adv-x="308" 
d="M8 798l224 -10v-883l-224 -20v41l158 20l-20 791l-138 10v51z" />
    <glyph glyph-name="asciicircum" unicode="^" horiz-adv-x="616" 
d="M283 784l63 2l161 -196l-76 -20l-115 139l-134 -139l-77 18z" />
    <glyph glyph-name="underscore" unicode="_" horiz-adv-x="500" 
d="M0 -101h500v-77h-500v77z" />
    <glyph glyph-name="grave" unicode="`" horiz-adv-x="265" 
d="M46 751l47 39l112 -121l-70 -76z" />
    <glyph glyph-name="a" unicode="a" horiz-adv-x="486" 
d="M458 50l3 -28l-200 -9v28q36 3 36 29q0 21 -3 33l-31 105l-122 7l-25 -115q-3 -12 -3 -27q0 -23 11.5 -33.5t35.5 -12.5v-27l-135 7v27q18 0 30 13.5t16 26t9 34.5l127 604h58l137 -594q14 -66 56 -68zM150 253l105 -8l-56 266z" />
    <glyph glyph-name="b" unicode="b" horiz-adv-x="433" 
d="M408 224q0 -20 -4 -46.5t-22 -66t-47 -63.5q-61 -51 -155 -51q-60 0 -134 10v41q19 0 28.5 7.5t8.5 21.5l-20 543q-1 17 -2.5 24t-9.5 14t-25 10l-1 30l181 -1q92 0 141 -27q58 -50 58 -133q0 -128 -159 -160q162 -29 162 -153zM271 523q0 73 -8 96q-16 47 -61 47
q-29 0 -29 -33l-5 -243h10q93 0 93 133zM275 249q0 43 -10 60q-27 52 -97 52l-9 -282q-1 -17 8 -32t27 -15q35 0 54 46q13 28 20 83.5t7 87.5z" />
    <glyph glyph-name="c" unicode="c" horiz-adv-x="391" 
d="M344 458h-46q-2 182 -60 182q-17 0 -39.5 -18t-38.5 -63q-22 -98 -22 -233q0 -157 34 -220q22 -59 70 -73q42 0 69 43q15 23 15 49q0 27 -6 48l33 7q6 -29 6 -52q0 -45 -28 -85q-34 -51 -101 -51q-93 0 -153 97q-25 40 -38.5 115t-13.5 123q0 142 47 236q53 107 155 107
q39 0 73 -27l15 -4l4 67l48 -7z" />
    <glyph glyph-name="d" unicode="d" horiz-adv-x="448" 
d="M283 584q-4 11 -14 19t-17 10t-10 2q-28 3 -56 3q-20 1 -29 -12.5t-8 -38.5l11 -449q0 -24 5 -34q6 -15 29 -15q44 0 49 1q15 6 23.5 32.5t9.5 51.5l12 372q1 35 -5 58zM416 330q-14 -198 -58 -255q-37 -48 -101.5 -67t-123.5 -19q-13 0 -34.5 1.5t-42.5 1.5v41
q21 0 30.5 8.5t8.5 24.5l-33 513q-1 16 -8.5 25t-30.5 13v44q88 7 141 7q14 0 44 -3.5t76.5 -16.5t68.5 -33q32 -27 48 -65q22 -50 22 -119q0 -12 -7 -101z" />
    <glyph glyph-name="e" unicode="e" horiz-adv-x="398" 
d="M364 543h-30q-5 35 -10 50q-2 3 -11.5 17t-14.5 20q-33 37 -79 37q-23 0 -29 -8.5t-7 -36.5l-8 -235q13 2 26 12t18 17t20 27q11 22 12 34h29l7 -210h-30q0 19 -10 33q-22 30 -36 40q-21 12 -38 15l-10 -257q-1 -19 10 -27.5t33 -8.5q43 0 74 40q22 29 31 48q8 15 8 44
h34l12 -166l-326 -11v41q21 3 30 13t8 31l-13 534q0 42 -39 45v30l348 -11z" />
    <glyph glyph-name="f" unicode="f" horiz-adv-x="398" 
d="M358 494h-27q-3 26 -13 53q-10 32 -31 63q-34 37 -65 37q-33 -4 -39 -12q-7 -9 -7 -38l-9 -224q48 2 72 33l5 6q5 5 12 16t11 25h29l-12 -203h-28q-4 35 -15 54q-25 35 -74 38l-11 -264q-1 -40 42 -57v-27l-173 15v29q44 6 44 40l-5 537q-2 14 -4 24q-6 20 -33 24v28
l346 -17z" />
    <glyph glyph-name="g" unicode="g" horiz-adv-x="461" 
d="M436 346l-3 -38q-25 -4 -35 -5q-7 -9 -14 -180q-4 -78 -6 -130h-39l-1 89q-29 -37 -56 -53t-63 -16q-87 0 -133 86q-61 114 -61 282q0 140 37 201q60 98 156 98q30 0 64 -19l36 -20l-9 76l49 5l14 -253h-33q-14 90 -43 135.5t-82 45.5q-20 0 -34.5 -19.5t-21.5 -51
t-10.5 -61t-3.5 -60.5q0 -17 0.5 -38.5t1.5 -37.5v-16q0 -176 30 -274q13 -47 47 -47q31 0 44 29q17 36 20 84l6 110q-6 43 -10 46q-10 2 -22 2q-8 0 -14 -1l2 41z" />
    <glyph glyph-name="h" unicode="h" 
d="M432 2l-167 13v30q38 4 38 38l-2 227l-125 -22v-240q0 -25 8 -33q19 -16 32 -18v-29l-169 -8v30q20 10 29.5 22.5t8.5 35.5l-23 537q-2 57 -37 60v30l186 -11v-30q-37 -4 -37 -49l2 -258l125 22l-4 294q0 18 -8 26q-13 8 -29 8v30l196 13v-30q-33 -5 -35 -47l-25 -564
q-2 -41 36 -45v-32z" />
    <glyph glyph-name="i" unicode="i" horiz-adv-x="267" 
d="M213 8h-188v35q40 5 51 36l11 516q1 29 -7 43.5t-31 22.5v29l193 -16v-30q-37 -8 -42 -39l-29 -510q0 -25 7 -33q2 -1 9.5 -8t14.5 -11.5t11 -5.5v-29z" />
    <glyph glyph-name="j" unicode="j" horiz-adv-x="413" 
d="M388 712v-41q-19 -1 -28 -10t-10 -32l-11 -441q-1 -55 -6 -80t-19 -53q-1 -2 -7 -10.5t-8 -11t-7 -9t-9 -10t-10 -7.5t-13 -7q-36 -14 -73 -14q-73 0 -130 56q-12 12 -20 31.5t-10 29.5t-2 14q0 39 19 56.5t48 16.5q62 -3 62 -59q0 -26 -16 -40.5t-41 -14.5q-7 0 -14 4
q0 -14 20 -25t62 -11q44 0 64 28q23 30 21 94l-11 489q-1 7 -2 9.5t-6.5 7t-16.5 8.5q-20 5 -24 5v41z" />
    <glyph glyph-name="k" unicode="k" horiz-adv-x="476" 
d="M448 -9l-190 -13v27q32 8 32 31q0 4 -5 29l-63 313l-61 -98l-1 -186q0 -28 6 -40q5 -15 31 -18v-29l-162 -12v28q21 4 28.5 15t7.5 32l-9 586q0 8 -2 16.5t-11 18.5t-24 11v30l186 -12v-30q-22 -13 -27 -17q-10 -8 -10 -42l-11 -288l146 246q8 13 8 28q0 16 -22 16
q-4 0 -7.5 -0.5t-8 -1.5t-7.5 -1l-2 29l157 11l-3 -31q-5 0 -23 -2q-26 -4 -50 -44l-81 -136l129 -392q12 -23 19 -39q16 -7 22 -7q7 0 11 1z" />
    <glyph glyph-name="l" unicode="l" horiz-adv-x="372" 
d="M331 210l16 -190l-322 -17v29q22 4 30 15t8 31l9 548q0 42 -39 48v29l199 -15l-2 -30q-44 0 -46 -59l-29 -515q1 -33 35 -33q50 0 79 44q27 57 34 109z" />
    <glyph glyph-name="m" unicode="m" horiz-adv-x="520" 
d="M495 698v-43q-2 -1 -4 -1q-5 0 -12 2.5t-9 2.5t-6 -4q-9 -17 -9 -38l-12 -557q-1 -49 40 -52v-29l-187 14v29q30 4 42 15q10 30 10 36l12 602l-82 -350h-41l-120 331l29 -541q3 -44 11 -58q11 -18 39 -21v-28h-151v29q51 8 48 69l-27 532q0 2 -1 8t-1.5 7.5t-1.5 6t-3 6
t-4.5 4t-6.5 3.5l-10 2.5t-13 2.5v30l170 12l75 -249l61 239z" />
    <glyph glyph-name="n" unicode="n" horiz-adv-x="468" 
d="M443 705v-28q-34 -3 -40 -9q-11 -10 -11 -48l-4 -559h-50l-202 472l24 -437q12 -65 51 -65v-27l-159 -6v25q29 4 41 32q9 23 8 53l-24 489q-2 42 -11 53q-11 4 -25 4q-10 0 -16 -1v27l167 -10l156 -413l7 363q0 33 -8 51q-11 8 -42 13v28z" />
    <glyph glyph-name="o" unicode="o" horiz-adv-x="439" 
d="M414 379q0 -112 -35 -217q-25 -75 -70.5 -118.5t-99.5 -43.5q-59 0 -106.5 51.5t-66.5 121.5q-11 38 -11 210q0 25 8.5 84.5t18.5 85.5q32 88 69.5 132.5t99.5 44.5q56 0 113 -52q46 -45 63 -115q17 -68 17 -184zM308 397q0 20 1 56.5t0.5 59.5t-3.5 45
q-10 60 -24.5 93.5t-41.5 33.5q-26 0 -46 -32.5t-29 -94.5q-16 -121 -16 -286q0 -74 12 -134q18 -79 56 -79q43 0 62 79q27 109 29 259z" />
    <glyph glyph-name="p" unicode="p" horiz-adv-x="431" 
d="M406 547q0 -56 -29 -109.5t-53 -65.5q-44 -29 -127 -29h-29l-9 -288q4 -42 47 -45v-29l-156 6v28q27 1 35.5 11t7.5 29l-31 561q-3 29 -8 33q-16 5 -29 7v29q23 1 74 2.5t84 2.5t41 1q103 0 142.5 -34t39.5 -110zM287 549q0 41 -18 71q-20 30 -72 30q-38 0 -38 -42v-242
h16q53 0 75 30q37 53 37 153z" />
    <glyph glyph-name="q" unicode="q" horiz-adv-x="453" 
d="M428 368q0 -84 -21 -152q-19 -59 -78 -104l25 -96q10 -15 23 -15q16 0 19 33q2 22 2 55h27q1 -14 1 -35q0 -45 -18.5 -78t-59.5 -33q-33 0 -54.5 32t-25.5 91q-22 -11 -46 -11q-98 0 -151 83q-28 73 -37 125.5t-9 136.5q0 92 34 198q30 55 57 89l6 6t7.5 6.5t8.5 6t10 7
t11.5 6t15 5.5t16.5 4t20 3t23 1q85 0 130 -74q25 -43 41 -95q23 -80 23 -195zM258 640q-7 20 -17.5 32.5t-17 15.5t-10.5 3q-53 -8 -66 -64q-17 -76 -17 -257q0 -15 9.5 -88t18.5 -98q29 42 67 42q35 0 60 -37q11 73 11 145q0 205 -38 306zM269 138q0 27 -13 43.5t-37 16.5
q-19 0 -33 -18t-14 -41q0 -20 12.5 -36.5t37.5 -16.5q47 0 47 52z" />
    <glyph glyph-name="r" unicode="r" horiz-adv-x="460" 
d="M411 179l22 -1q2 -10 2 -30q0 -131 -92 -131q-51 0 -79 48q-23 49 -21 94l5 98l2 7l2.5 20t1.5 23q0 36 -12 58q-19 26 -77 26l-10 -259q-1 -18 9.5 -31.5t32.5 -14.5v-29h-160v29q46 6 43 46l-18 486q0 16 -37 21v29q19 3 53.5 10t50.5 10t41.5 5.5t51.5 2.5
q79 0 118 -23q49 -28 49 -92q0 -13 -6 -52q-22 -117 -140 -134q68 -16 100 -60q19 -28 19 -77q0 -25 -4 -61t-4 -60q0 -69 28 -69q14 0 20 19q10 30 10 65q0 19 -1 27zM241 421q40 36 43 141q0 34 -16 61q-17 32 -52 32t-37 -39l-12 -210l34 -3q20 0 40 18z" />
    <glyph glyph-name="s" unicode="s" horiz-adv-x="393" 
d="M368 180q0 -79 -40 -124q-51 -46 -117 -46q-20 0 -62.5 18.5t-48.5 18.5q-11 0 -18 -6q1 -4 1 -15q0 -14 -2 -22l-43 2l-13 233l37 -3q50 -193 154 -193q64 0 81 69q2 10 2 21q0 45 -35 73q-4 3 -15.5 15.5t-35 35.5t-49.5 49q-54 52 -80 98q-21 39 -32 73q-10 50 -10 85
q0 66 39 113q40 49 114 49q15 0 51 -16t38 -16q2 6 2 44l54 6v-212l-35 2q-12 67 -46 111q-29 49 -70 49q-36 0 -55.5 -12.5t-19.5 -48.5q0 -18 4.5 -37t13.5 -37t15.5 -29t17 -26.5t11.5 -16.5q24 -39 82.5 -93.5t79.5 -92.5q30 -52 30 -119z" />
    <glyph glyph-name="t" unicode="t" horiz-adv-x="422" 
d="M397 706l-12 -217h-27q-21 125 -62 141l-33 4l-1 -541q0 -31 7 -43q9 -17 36 -19v-38l-196 -10v38q8 1 25 1q28 10 31 49l-19 546q-29 -4 -46 -17q-28 -40 -32 -122l-33 -7l-10 200z" />
    <glyph glyph-name="u" unicode="u" horiz-adv-x="451" 
d="M426 690v-29q-4 -2 -13 -5.5t-16 -7t-10 -6.5q-7 -12 -11 -58l22 -420q5 -88 -37 -136q-39 -44 -127 -44q-89 0 -124.5 41.5t-36.5 126.5l-6 434q0 20 -21 31l-21 3v30l196 -8v-29q-42 -22 -42 -57l6 -399q0 -65 11 -91q18 -43 73 -43t76 43q19 39 15 92l-22 426
q-3 45 -11 58q-14 12 -39 21v30z" />
    <glyph glyph-name="v" unicode="v" horiz-adv-x="457" 
d="M432 621v-29q-38 -7 -48 -64l-106 -561h-64l-136 593q-7 30 -15 41q-8 7 -38 13v29l183 25v-29q-34 0 -34 -25q0 -12 2 -22l100 -407l53 331q2 14 2 25q0 34 -44 38v30z" />
    <glyph glyph-name="w" unicode="w" horiz-adv-x="521" 
d="M496 721v-28q-31 -8 -37 -20q-17 -25 -18 -52l-17 -641l-75 9l-97 412l-95 -422l-38 5l-58 609q0 2 -1 13t-1.5 16t-2.5 14.5t-4 14.5t-5.5 12t-9 10.5t-12.5 5.5v28l145 -26v-29q-18 -1 -27 -9.5t-8 -22.5l34 -418l55 261l4 48q3 25 -19 38q-9 5 -27 5v29l153 -1v-29
q-34 -3 -40 -24q-1 -2 -7 -44l83 -308l4 434q0 57 -50 60v28z" />
    <glyph glyph-name="x" unicode="x" horiz-adv-x="496" 
d="M471 24l-199 -24v26q33 2 33 24q0 10 -8 30l-75 217l-75 -159q-1 -5 -5 -19t-5 -20q0 -15 10 -24q4 -3 10.5 -8.5t11 -9.5t7.5 -6v-26l-151 12v27q19 2 32.5 7.5t24.5 20.5t14.5 22t14.5 31l93 201l-100 266q-12 31 -62 35l-3 28l197 25v-28q-28 -2 -28 -19q0 -9 6 -23
l58 -180l61 133q7 14 7 26q-1 30 -14 35q-16 7 -27 8v28l158 21v-28q-48 0 -72 -55l-94 -214l114 -299q17 -44 33 -48q4 0 15.5 -3.5t17.5 -3.5v-26z" />
    <glyph glyph-name="y" unicode="y" horiz-adv-x="462" 
d="M437 637v-27q-17 -2 -30.5 -20.5t-18 -31.5t-14.5 -45l-90 -281l-7 -198q-1 -40 44 -45v-28l-175 -11v28q47 5 44 56l-6 206l-108 391q-5 21 -19 35q-1 0 -6 0.5t-8 0.5q-11 0 -18 -2v28l192 -7l-2 -29q-40 0 -40 -26q0 -12 5 -29l84 -313l72 231q6 18 6 27q0 26 -9 38
t-33 13v28z" />
    <glyph glyph-name="z" unicode="z" horiz-adv-x="446" 
d="M393 200l1 -210l-369 29v36l298 570q-72 7 -100 7q-62 0 -85 -12q-26 -41 -32 -116h-27l-5 189l347 -8v-23l-308 -563q12 -1 67.5 -6.5t72.5 -5.5q43 0 57 18q22 31 51 95h32z" />
    <glyph glyph-name="braceleft" unicode="{" horiz-adv-x="415" 
d="M365 800l-10 -38q-36 0 -48 -2q-17 -3 -28 -14q-33 -36 -33 -103v-157q0 -126 -17 -150q-29 -44 -82 -56q53 -10 82 -56q17 -26 17 -150v-67q0 -65 33 -101q23 -26 86 -26l20 -38q-51 0 -94 10q-53 13 -80 36q-41 36 -41 132v98q0 31 -3 50t-14 43t-37.5 37.5t-68.5 15.5
l-10 33q45 4 73 15.5t40.5 34t16 42.5t3.5 54v188q0 102 49 138q39 29 146 31z" />
    <glyph glyph-name="bar" unicode="|" horiz-adv-x="500" 
d="M207 794h87v-1029h-87v1029z" />
    <glyph glyph-name="braceright" unicode="}" horiz-adv-x="415" 
d="M61 762l-10 38q104 0 146 -31q49 -38 49 -138v-188q0 -76 26 -106q28 -33 107 -40l-10 -33q-58 -5 -86 -28q-37 -31 -37 -118v-98q0 -95 -41 -132q-27 -23 -80 -36q-44 -10 -94 -10l20 38q64 2 86 26q33 38 33 101v67q0 124 17 150q29 45 82 56q-51 11 -82 56
q-17 24 -17 150v157q0 66 -33 103q-8 8 -21 11.5t-22 4t-33 0.5z" />
    <glyph glyph-name="asciitilde" unicode="~" horiz-adv-x="662" 
d="M63 248l-29 1q12 90 56.5 141t115.5 51q46 0 80 -15t73 -50.5t71 -60.5t59 -25q12 0 31.5 10t30.5 22q5 5 10.5 15.5t10 21t9 23t7 21.5t5.5 17.5t3 9.5l28 -2q-6 -70 -27 -119t-62 -77t-89 -28q-74 0 -180 78q-53 40 -74 50t-42 10q-34 0 -56 -27q-10 -12 -31 -67z" />
  </font>
</defs>
</svg>
