<?xml version="1.0" encoding="UTF-8"?>
<svg version="1.1" viewBox="0 0 975.7 339.32">
<path d="m422.44 335.76c18.936-5.8282 22.922-8.475 37.491-23.128 0.71071-23.565 6.851-26.757-2.5911-43.925-5.4609-10.294-20.216-25.356-29.457-30.071-9.6557-4.926-20.418-5.7367-35.388-2.6657-14.998 3.0768-31.897 11.03-43.558 20.499-10.337 9.439-21.47 29.1-22.408 41.695-0.21348 14.282 6.4416 27.264 19.041 32.658 3.5106 1.443 11.877 6.0765 19.475 6.962 20.787 2.4227 31.478 2.1648 57.396-2.0237z" fill="#e69f16"/>
<path d="m646.39 207.84c1.4928 0 21.965-2.3458 21.965-2.3458l6.1843 40.731 51.82-15.567c11.442 4.3533 13.011 24.419 5.9711 29.429l-66.108-2.1325-4.6915-44.57-15.567 3.8386z" fill="#9fa2a5"/>
<path d="m536.89 162.73c1.5079 0 75.999-3.3174 75.999-3.3174l43.428-0.90475s-14.778 165.57-18.095 165.57c-3.3174 0-135.11 6.3333-136.32 4.5238-1.2063-1.8095-15.641-37.76-5.1269-51.269 10.499-13.49 52.476-9.6507 52.476-9.6507z" fill="#daba20"/>
<path d="m536.51 162.73c1.5079 0 75.999-3.3174 75.999-3.3174 0 25.463-1.8095 87.188-1.8095 119.43-22.3-5.7713-80.975-9.643-95.277-9.5942-6.0212-2.0994 36.978-5.3072 33.452-3.7182z" fill="#e8d168"/>
<path d="m545.63 178.41 4.2222 34.984s52.476 4.8254 52.476 3.619c0-1.2063 1.2064-43.428 1.2064-43.428z" fill="#f9f9e2"/>
<path d="m592.38 285.17 0.30158 25.032-105.86 0.3016s-6.7594-17.838-8.4444-24.127c10.857 0 114-1.2064 114-1.2064z" fill="#b83e34"/>
<path d="m576.7 271 2.2619-0.22618-1.0555-10.857-3.3928 1.2818c0.81365 2.105 1.3475 6.9348 2.1865 9.8015z" fill="#593c00"/>
<path d="m564.94 256.82 2.1111 6.4087 20.583-2.4881-3.1666-6.5595z" fill="#a40000"/>
<path d="m561.69 278.99 2.2619 3.1666 1.3571-1.2817-2.6389-3.0159z" fill="#593c00"/>
<path d="m517.44 274.92 5.4285 6.7103 2.7143-2.1865-6.2579-5.6547z" fill="#593c00"/>
<path d="m534.85 264.59 4.5238 11.837 2.4127-1.2818-5.8055-11.686z" fill="#593c00"/>
<path d="m512.89 277.25 13.488-7.0374-1.2795-3.9985-14.021 7.9437z" fill="#a40000"/>
<path d="m532.1 267.04 14.589-4.241-2.375-4.7123-17.077 4.5803z" fill="#a40000"/>
<path d="m549.33 282.16 2.8651 2.3373 21.111-11.196-2.0357-2.8274z" fill="#a40000"/>
<path d="m417.99 258.27c-2.0272-0.15928-4.518 1.2257-5.5635 3.0937-1.0455 1.8679-0.24971 3.5113 1.7774 3.6707 2.0272 0.15928 4.518-1.2258 5.5635-3.0937s0.24967-3.5113-1.7774-3.6707z" fill="#ebbe65"/>
<path d="m414.41 267.82c-2.1451-0.34553-4.6611 1.095-5.6197 3.2175-0.95861 2.1226 4e-3 4.1234 2.1482 4.4689 2.145 0.34558 4.661-1.095 5.6196-3.2176 0.95863-2.1226-4e-3 -4.1234-2.1482-4.4689z" fill="#ebbe65"/>
<path d="m405.19 262.3c-2.3025 0.27199-4.2311 2.2196-4.308 4.3499-0.0767 2.1304 1.7275 3.6369 4.03 3.365 2.3025-0.27197 4.2312-2.2196 4.308-4.3499 0.0767-2.1304-1.7275-3.6369-4.03-3.3649z" fill="#ebbe65"/>
<path d="m461.07 275.12c-18.014 12.585-36.968 23.879-52.887 39.345 17.517-2.5776 34.153-2.5151 50.541-1.706 0.0165 0.15434 5.9192-7.4765 2.3458-37.639z" fill="#4d230b"/>
<path d="m460.92 275.31s-34.058 16.908-66.211 50.649" fill="none" stroke="#ebbe65" stroke-width="3.1125"/>
<path d="m430.36 306.75c3.5175-2.2204 69.634-64.049 74.852-58.821 4.2023 4.21 7.6771 3.1988 16.207 2.559 13.424-1.0068 33.267 7.144 7.8904 13.115-24.379 5.7363-25.164 7.0374-20.686 10.663 4.4783 3.6253-0.63977 10.929-4.0518 11.356-0.38122 6.3853-7.3958 8.8486-14.928 6.4509-9.1699 6.1843-40.945 21.076-40.945 21.076h-22.605z" fill="#6ba434"/>
<path d="m459.71 312.4c-0.60316 0.15086-44.031-1.2064-59.563 6.9364" fill="none" stroke="#ebbe65" stroke-width="3.1125"/>
<path d="m0 124.97 6.9701-113.6 56.947-3.1143 7.415 119.83-71.332-3.1143" fill="#3659a9"/>
<path d="m228.93 122.16-71.035-2.966 6.8218-113.6 56.947-2.966 7.2667 119.53" fill="#3659a9"/>
<path d="m263.63 127.23 7.2667-116.86 57.243-2.966 6.8218 115.38-71.332 4.449" fill="#3659a9"/>
<path d="m369.26 125.53 7.2667-116.86 57.243-2.966 6.8218 115.38-71.332 4.449" fill="#3659a9"/>
<path d="m476.98 119.31 7.415-112.41 57.095-1.483 6.0803 119.23l-70.59-5.3388" fill="#3659a9"/>
<path d="m586.02 126.05 2.5211-121.61 61.692-4.449l7.415 118.49-71.628 7.5632" fill="#3659a9"/>
<path d="m690.3 117.6 7.415-112.41 57.095-1.483 6.0803 119.23-70.59-5.3388" fill="#3659a9"/>
<path d="m54.966 87.579-3.4109 0.7415c-0.29665 2.274-0.79098 4.4984-1.483 6.6735-0.69211 2.0762-1.5325 4.2018-2.5211 6.3769-1.1864 1.7796-2.62 3.1143-4.3007 4.0041-1.6808 0.88981-3.4109 1.3347-5.1905 1.3347-1.0876 2e-5 -2.0762-0.29658-2.966-0.88979-0.79096-0.59318-1.2359-1.6313-1.3347-3.1143l3.4109-61.989c-3.9e-5 -0.69198 0.09883-1.4335 0.2966-2.2245 0.19769-0.88971 0.49429-1.6806 0.8898-2.3728 0.39542-0.69198 0.93919-1.2852 1.6313-1.7796 0.69202-0.49424 1.6312-0.74141 2.8177-0.7415l0.1483-3.5592-23.876-1.7796v3.5592c1.9773 0.19782 3.2131 0.98875 3.7075 2.3728 0.59317 1.2853 0.88977 2.3729 0.88979 3.2626l-1.0381 65.993c-2.5e-5 1.483-0.29662 2.7188-0.8898 3.7075-0.59322 0.88981-1.829 1.483-3.7075 1.7796v3.5592l38.854-2.0762-1.9279-22.838" fill="#81bbe1"/>
<path d="m222.06 104.05c-2.274-0.19771-3.8558-1.1369-4.7456-2.8177-0.88985-1.6807-1.5819-3.5097-2.0762-5.4871l-16.461-71.48h-6.9701l-15.275 72.667c-0.19775 0.98868-0.44492 2.0268-0.7415 3.1143-0.29661 0.98868-0.69208 1.9279-1.1864 2.8177-0.49435 0.88981-1.137 1.6313-1.9279 2.2245-0.69208 0.49435-1.6313 0.74151-2.8177 0.74149v3.2626l16.165 0.88979v-3.2626c-1.7796-0.19772-3.1637-0.64262-4.1524-1.3347-0.88981-0.79092-1.3347-2.175-1.3347-4.1524-2e-5 -0.59318-2e-5 -1.0875 0-1.483-2e-5 -0.49431 0.0989-1.0875 0.2966-1.7796l2.966-13.94 14.682 0.8898 3.7075 12.605c0.29656 1.0875 0.44486 2.4222 0.4449 4.0041-4e-5 1.1864-0.3955 2.0268-1.1864 2.5211-0.79097 0.49435-1.8785 0.84038-3.2626 1.0381v3.2626l24.173-1.0381-0.2966-3.2626m-37.223-24.469 5.932-31.143 6.8218 32.033-12.754-0.8898" fill="#81bbe1"/>
<path d="m309.85 42.384c0.4943 1.5819 0.69203 3.9547 0.5932 7.1184l-1.483 44.638c-4e-5 0.79096-0.0989 1.7302-0.2966 2.8177-0.19777 0.98869-0.44494 1.9773-0.7415 2.966-0.29663 0.98869-0.6921 1.8785-1.1864 2.6694-0.49437 0.79095-1.0876 1.3347-1.7796 1.6313-0.59323 0.19775-1.483 0.29662-2.6694 0.2966-1.0876-0.0989-2.1256-0.14828-3.1143-0.1483-0.6921 2e-5 -1.3842-0.0988-2.0762-0.2966-0.59321-0.19771-1.0875-0.69204-1.483-1.483-0.19775-0.49431-0.34605-1.2358-0.44489-2.2245-0.0989-1.0875-0.1483-1.7301-0.1483-1.9279l-1.3347-53.981c-0.0989-1.8784 0.19772-3.3614 0.8898-4.449 0.69204-1.1863 1.8784-1.7301 3.5592-1.6313 1.0875 8.4e-5 2.175 0.04953 3.2626 0.1483 1.1864 8.5e-5 2.3233 0.04953 3.4109 0.1483 0.0989 8.5e-5 0.346 0.04953 0.7415 0.1483 0.49429 0.09896 0.98862 0.29668 1.483 0.5932 0.59316 0.29668 1.1369 0.69214 1.6313 1.1864 0.59316 0.49441 0.98862 1.0876 1.1864 1.7796m16.016 30.55c0.0989-1.0875 0.1483-2.3233 0.1483-3.7075 0.0989-1.3841 0.19768-2.6693 0.2966-3.8558 0.0989-1.1863 0.1483-2.175 0.1483-2.966 0.0989-0.88973 0.1483-1.4335 0.1483-1.6313-6e-5 -3.4602-0.24722-6.1791-0.7415-8.1565-0.39552-1.9772-1.0382-4.004-1.9279-6.0803-1.2853-2.9659-3.2132-5.5859-5.7837-7.8599-1.483-1.2852-3.4109-2.3233-5.7837-3.1143-2.3728-0.88971-4.7456-1.5323-7.1184-1.9279-2.3728-0.49424-4.4984-0.84027-6.3769-1.0381-1.8785-0.19764-3.0154-0.29651-3.4109-0.2966-3.1637 9.1e-5 -6.0308 0.09896-8.6014 0.2966-2.5705 0.09896-5.3388 0.29669-8.3048 0.5932v5.3388c1.9773 0.29668 3.2131 0.84045 3.7075 1.6313 0.49431 0.79101 0.79091 1.7302 0.88979 2.8177l4.0041 61.841c0.19771 2.6694-1.3347 4.0041-4.5973 4.0041v5.0422c2.2739 1e-5 3.9546 0.0495 5.0422 0.1483 1.0875 0.0989 2.4716 0.14832 4.1524 0.1483 1.7796 1e-5 3.8558-0.1483 6.2286-0.44489 2.3728-0.29659 4.795-0.79092 7.2667-1.483 2.5705-0.79091 5.0421-1.8784 7.415-3.2626 2.4716-1.3841 4.5478-3.1637 6.2286-5.3388 1.0875-1.3841 2.0267-3.2626 2.8177-5.6354 0.79088-2.4716 1.4335-5.0916 1.9279-7.8599 0.59314-2.8671 1.038-5.7836 1.3347-8.7496 0.39541-3.0648 0.692-5.8825 0.88979-8.4531" fill="#81bbe1"/>
<path d="m415.48 40.678c0.49427 1.5819 0.692 3.9547 0.59319 7.1184l-1.483 44.638c-5e-5 0.79096-0.0989 1.7302-0.2966 2.8177-0.19778 0.98869-0.44495 1.9773-0.74149 2.966-0.29666 0.98868-0.69212 1.8785-1.1864 2.6694-0.49438 0.79094-1.0876 1.3347-1.7796 1.6313-0.59323 0.19775-1.483 0.29661-2.6694 0.29659-1.0876-0.0988-2.1257-0.14828-3.1143-0.14829-0.6921 1e-5 -1.3842-0.0988-2.0762-0.2966-0.59323-0.19771-1.0876-0.69205-1.483-1.483-0.19777-0.49431-0.34607-1.2358-0.4449-2.2245-0.0989-1.0875-0.1483-1.7301-0.1483-1.9279l-1.3347-53.981c-0.0989-1.8784 0.19769-3.3614 0.88979-4.449 0.69203-1.1863 1.8784-1.7301 3.5592-1.6313 1.0875 8.4e-5 2.175 0.04952 3.2626 0.1483 1.1864 8.4e-5 2.3233 0.04952 3.4109 0.1483 0.0989 8.4e-5 0.346 0.04952 0.7415 0.1483 0.49429 0.09896 0.98861 0.29668 1.483 0.5932 0.59314 0.29668 1.1369 0.69214 1.6313 1.1864 0.59314 0.49441 0.98861 1.0876 1.1864 1.7796m16.016 30.55c0.0989-1.0875 0.1483-2.3233 0.1483-3.7075 0.0989-1.3841 0.19766-2.6693 0.2966-3.8558 0.0989-1.1863 0.1483-2.175 0.1483-2.966 0.0989-0.88973 0.1483-1.4335 0.1483-1.6313-7e-5 -3.4602-0.24724-6.1791-0.7415-8.1565-0.39553-1.9772-1.0382-4.004-1.9279-6.0803-1.2853-2.9659-3.2132-5.5859-5.7837-7.8599-1.483-1.2852-3.4109-2.3233-5.7837-3.1143-2.3728-0.88971-4.7456-1.5323-7.1184-1.9279-2.3728-0.49424-4.4984-0.84027-6.3769-1.0381-1.8785-0.19764-3.0154-0.29651-3.4109-0.2966-3.1638 9.2e-5 -6.0309 0.09896-8.6014 0.2966-2.5705 0.09896-5.3388 0.29669-8.3048 0.5932v5.3388c1.9773 0.29668 3.2131 0.84045 3.7075 1.6313 0.49432 0.79101 0.79091 1.7302 0.8898 2.8177l4.0041 61.841c0.19771 2.6694-1.3347 4.0041-4.5973 4.0041v5.0422c2.2739 1e-5 3.9546 0.0494 5.0422 0.1483 1.0875 0.0989 2.4716 0.14832 4.1524 0.1483 1.7796 1e-5 3.8557-0.1483 6.2286-0.4449 2.3728-0.29659 4.795-0.79092 7.2667-1.483 2.5705-0.79092 5.0421-1.8784 7.415-3.2626 2.4716-1.3841 4.5478-3.1637 6.2286-5.3388 1.0875-1.3841 2.0267-3.2626 2.8177-5.6354 0.79087-2.4716 1.4335-5.0916 1.9279-7.8599 0.59314-2.8671 1.038-5.7836 1.3347-8.7496 0.39539-3.0648 0.69199-5.8825 0.88979-8.4531" fill="#81bbe1"/>
<path d="m523.65 110.09v-3.5592c-0.59323-0.19772-1.3347-0.64262-2.2245-1.3347-0.79096-0.69204-1.4336-1.2358-1.9279-1.6313-0.3955-0.49431-0.64266-1.2358-0.74149-2.2245-0.0989-1.0875-0.1483-1.6807-0.1483-1.7796l3.4109-61.396c0.29656-1.384 0.84032-2.4221 1.6313-3.1143 0.88976-0.69198 2.0267-1.2357 3.4109-1.6313v-3.5592l-23.135-1.9279v3.5592c1.8784 0.69215 3.1143 1.6314 3.7075 2.8177 0.69204 1.0876 0.98864 2.7683 0.88979 5.0422l-1.3347 62.137c-0.39548 0.98869-0.98868 1.8785-1.7796 2.6694-0.69208 0.79094-2.1256 1.3841-4.3007 1.7796v4.1524h22.541" fill="#81bbe1"/>
<path d="m644.54 24.449-44.786 4.1524 1.1864 24.173 4.0041-0.8898c0.19772-2.6693 0.59318-5.3387 1.1864-8.0082 0.69204-2.7682 1.5818-4.9927 2.6694-6.6735 1.3841-0.98858 3.2131-1.6806 5.4871-2.0762l2.3728 65.845c-0.19777 1.3841-0.59324 2.62-1.1864 3.7075-0.59323 0.98868-1.4336 1.6807-2.5211 2.0762-0.49437 2e-5 -1.0381 2e-5 -1.6313 0-0.49437 2e-5 -0.9887 0.0494-1.483 0.1483v4.7456l23.728-1.1864v-4.7456c-0.88985-0.0989-1.7302-0.29659-2.5211-0.5932-0.79098-0.29658-1.4336-0.84034-1.9279-1.6313-0.39552-0.79091-0.64268-1.6807-0.74149-2.6694-0.0989-1.0875-0.1483-1.9279-0.1483-2.5211l0.1483-65.103 4.0041 0.4449c0.9886 0.39555 1.8784 1.1865 2.6694 2.3728 0.79087 1.0876 1.4829 2.4223 2.0762 4.0041 0.59314 1.5819 1.0875 3.3121 1.483 5.1905 0.49428 1.7797 0.88974 3.5593 1.1864 5.3388h3.2626l1.483-26.101" fill="#81bbe1"/>
<path d="m736.97 108.39v-3.5592c-0.59323-0.19771-1.3347-0.64261-2.2245-1.3347-0.79097-0.69204-1.4336-1.2358-1.9279-1.6313-0.3955-0.49431-0.64267-1.2358-0.7415-2.2245-0.0989-1.0875-0.1483-1.6807-0.1483-1.7796l3.4109-61.396c0.29656-1.384 0.84033-2.4221 1.6313-3.1143 0.88976-0.69198 2.0267-1.2357 3.4109-1.6313v-3.5592l-23.135-1.9279v3.5592c1.8784 0.69215 3.1143 1.6314 3.7075 2.8177 0.69205 1.0876 0.98865 2.7683 0.8898 5.0422l-1.3347 62.137c-0.39549 0.98868-0.98868 1.8785-1.7796 2.6694-0.69208 0.79094-2.1256 1.3841-4.3007 1.7796v4.1524h22.541" fill="#81bbe1"/>
<g transform="matrix(1.8309 0 0 1.8309 -21.948 -25.59)">
<path d="m446.92 81.328 4.779-65.448 32.886 1.62 2.106 62.208-39.771 1.62" fill="#3659a9"/>
<path d="m481.4 49.484c-4e-5 -1.998-0.054-3.915-0.162-5.751-0.10804-1.89-0.45904-3.969-1.053-6.237-0.43203-1.836-0.94503-3.321-1.539-4.455-0.59403-1.134-1.431-2.187-2.511-3.159-2.376-2.2679-4.86-3.4019-7.452-3.402-1.458 5.4e-5 -2.754 0.29705-3.888 0.891-1.08 0.59405-2.052 1.4041-2.916 2.43-0.86402 1.026-1.647 2.268-2.349 3.726-0.64801 1.404-1.296 2.943-1.944 4.617-0.21601 0.64804-0.43201 1.512-0.648 2.592-0.21601 1.026-0.43201 2.106-0.648 3.24-0.16201 1.134-0.29701 2.187-0.405 3.159-0.10801 0.97203-0.16201 1.701-0.162 2.187-1e-5 1.134-1e-5 2.376 0 3.726-1e-5 1.35 0.027 2.673 0.081 3.969 0.054 1.242 0.13499 2.403 0.243 3.483 0.10799 1.08 0.24299 1.944 0.405 2.592 0.37799 1.404 0.91799 2.808 1.62 4.212 0.75599 1.35 1.62 2.565 2.592 3.645 1.026 1.08 2.133 1.944 3.321 2.592 1.188 0.64801 2.484 0.97201 3.888 0.972 2.376 6e-6 4.563-0.94499 6.561-2.835 1.998-1.89 3.537-4.509 4.617-7.857 1.026-3.078 1.674-5.886 1.944-8.424 0.26996-2.538 0.40496-4.509 0.405-5.913m-7.047-1.134c-0.054 2.916-0.18903 5.778-0.405 8.586-0.21603 2.754-0.70203 5.589-1.458 8.505-0.91803 3.456-2.295 5.184-4.131 5.184-0.97202 1e-5 -1.755-0.56699-2.349-1.701-0.59402-1.134-1.026-2.295-1.296-3.483-0.32402-1.512-0.54002-2.97-0.648-4.374-0.10802-1.404-0.16202-2.889-0.162-4.455-2e-5 -1.026-2e-5 -2.295 0-3.807 0.054-1.566 0.10798-3.213 0.162-4.941 0.10798-1.728 0.21598-3.456 0.324-5.184 0.16198-1.782 0.35098-3.429 0.567-4.941 0.37798-2.754 0.99898-4.806 1.863-6.156 0.91798-1.4039 1.944-2.1059 3.078-2.106 0.64797 5.1e-5 1.188 0.21605 1.62 0.648 0.48597 0.43205 0.89097 1.026 1.215 1.782 0.32397 0.75605 0.59397 1.647 0.81 2.673 0.26997 0.97204 0.48597 2.025 0.648 3.159 0.26997 1.566 0.35097 3.213 0.243 4.941-0.054 1.674-0.081 3.564-0.081 5.67" fill="#81bbe1"/>
</g>
<g transform="matrix(1.8309 0 0 1.8309 210.55 -29.252)">
<path d="m417.92 79.076-39.609 2.349 2.106-64.476 32.724 1.62 4.779 60.507" fill="#3659a9"/>
<path d="m411.9 29.25-8.991-0.486v1.863c0.53998 0.10805 1.026 0.21605 1.458 0.324 0.43198 0.05405 0.86398 0.21605 1.296 0.486 0.21598 0.59405 0.35098 1.161 0.405 1.701 0.054 0.54005 0.081 1.107 0.081 1.701l-0.405 23.814-10.287-27.135-10.935-0.648v1.863c0.216-0.05395 0.54-0.08095 0.972-0.081 0.27 4.9e-5 0.54 0.02705 0.81 0.081 0.32399 4.9e-5 0.62099 0.02705 0.891 0.081 0.26999 0.37805 0.43199 0.91805 0.486 1.62 0.10799 0.64805 0.18899 1.296 0.243 1.944l1.539 32.157c-0.054 0.91801-0.10801 1.62-0.162 2.106-0.054 0.43201-0.16201 0.86401-0.324 1.296-0.27001 0.59401-0.62101 1.08-1.053 1.458-0.37801 0.32401-0.94501 0.54001-1.701 0.648v1.782l10.449-0.486v-1.782c-0.70201 8e-6 -1.35-0.24299-1.944-0.729-0.59401-0.53999-1.053-1.728-1.377-3.564l-1.539-28.674 13.284 31.023h3.24l0.243-36.774c-3e-5 -0.53995 0.027-1.107 0.081-1.701 0.054-0.64795 0.26997-1.134 0.648-1.458 0.26997-0.21595 0.67497-0.35095 1.215-0.405 0.53997-0.05395 0.99897-0.10795 1.377-0.162v-1.863" fill="#81bbe1"/>
</g>
<path d="m92.782 10.153 23.245-1.0663 2.9855 42.172-28.149 4.4783z" fill="#3659a9"/>
<path d="m100.46 16.764 9.1699 1.706-0.63976 21.752-8.5301-1.9193z" fill="#81bbe1"/>
<path d="m679.65 244.28 41.752-12.307c1.9597 15.452 2.4956 19.3 2.5884 27.957l-45.208-1.3414c-0.28428-7.1542 0.21205-9.7603 0.86709-14.309z" fill="#ae3a38"/>
<path d="m426.24 249.09s7.0328 5.1313 2.096 8.817c-4.3566 3.2526-11.323-1.5654-11.323-1.5654 7.2708 0.0904 9.4528-0.362 9.2268-7.2515z" fill="#452200"/>
<path d="m431.57 247.32s-1.3673 7.0877 3.7109 6.5341c4.4815-0.48851 4.0121-4.696 4.0121-4.696-3.6036 1.1117-4.5757 0.59504-7.723-1.8382z" fill="#452200"/>
</svg>
