<?xml version="1.0" encoding="UTF-8"?>
<svg version="1.1" viewBox="0 0 670.19 676.23">
<path d="m220.92 428.85c1.1759-1.1759 2.6892-1.1238 5.1182 0.17616 2.8691 1.5355 3.8006 1.3644 5.5427-1.0181 1.1517-1.5751 1.7606-3.4032 1.3532-4.0626-0.40751-0.65935-0.066-1.1988 0.75875-1.1988 0.82481 0 1.9056-1.0577 2.4016-2.3504 0.58882-1.5344-0.72968-3.1942-3.7978-4.7808-4.2224-2.1835-4.794-2.1848-5.6276-0.0126-1.4199 3.7002-5.7399 3.0831-4.5548-0.65063 0.73811-2.3256-0.17789-3.6642-3.7835-5.5287-4.707-2.4341-4.7849-2.407-7.3538 2.5606-2.4348 4.7084-2.4239 5.1468 0.17497 7.0471 1.5242 1.1145 3.5418 2.2833 4.4836 2.5972 1.09 0.36333 0.70946 2.1013-1.0473 4.7825m-108.5 28.855c0.57039-6.3341 4e-3 -6.5738-11.15-4.73-5.4814 0.90602-5.9071 1.3638-5.9071 6.3526 0 3.3872 0.72848 5.2816 1.969 5.1205 4.4307-0.57534 5.9071 0.28418 5.9071 3.4388 0 2.6593-0.70754 3.1436-3.5502 2.4302-3.3193-0.83309-3.5158-0.45803-3.0208 5.7656l0.52943 6.6566 6.1713-0.58853c5.8508-0.55786 6.1712-0.86612 6.1712-5.9362 0-4.0522 0.66787-5.342 2.7566-5.3237 9e-3 -0.48503 12.303 1.4395 13.867 0.73258 3.7495-1.6953-1.078-6.4257-1.061-8.3828 4e-3 -0.63776-12.721-0.30393-12.715-0.99887 0.0109-1.3986 0.022-2.912 0.0332-4.5368z" fill="#b0b3c4"/>
<g transform="matrix(.6892 0 0 .68619 -8.9812 160.48)">
<path d="m985.44 195.45-97.8 5.8 5.2-159.2 80.8 4 11.8 149.4" fill="#aad673"/>
<path d="m778.07 195.65 5.4-153.8 80.8 4.2 12 153.2-98.2-3.6" fill="#aad673"/>
<path d="m669.69 205.45 10-157.6 77-4 8.2 154.6-95.2 7" fill="#aad673"/>
<path d="m657.32 195.45-97.8 5.8 5.2-159.2 80.8 4 11.8 149.4" fill="#aad673"/>
<path d="m449.94 205.45 9.4-157.6 76.8-3.8 10 155.2-96.2 6.2" fill="#aad673"/>
<path d="m340.57 203.45 9.8-159.6 77.2 4 9.2 153.6-96.2 2" fill="#aad673"/>
<path d="m122.21 195.65 5.4-153.8 80.8 4.2 12 153.2-98.2-3.6" fill="#aad673"/>
<path d="m108.83 42.052-9.8 161.2-76.8-4-9.2-153.2 95.8-4" fill="#aad673"/>
<path d="m41.59 334.49 7.056-113.47 55.584-2.88 6.624 112.03-69.264 4.32" fill="#aad673"/>
<path d="m120.34 326 3.888-110.74 58.176 3.024 8.64 110.3-70.704-2.592" fill="#aad673"/>
<path d="m826.84 331.47 6.768-110.3 55.296-3.024 7.2 116.35-69.264-3.024" fill="#aad673"/>
<path d="m974.71 331.47-68.976-2.88 6.624-110.3 55.296-2.88 7.056 116.06" fill="#aad673"/>
<path d="m122.21 195.65 5.4-153.8 80.8 4.2 12 153.2-98.2-3.6m72.8-103.4 1.4-25.6-56.4-1.8v4.8c1.4666 0.13346 2.6 0.53346 3.4 1.2 0.9333 0.53346 1.6 1.2001 2 2 0.39997 0.80012 0.59997 1.6001 0.6 2.4 0.1333 0.66679 0.19997 1.2668 0.2 1.8l2.2 86.8c0.1333 2.2667-0.33337 3.9334-1.4 5-0.93336 1.0667-2.5334 1.8-4.8 2.2v6.6l53-1.8-2-27h-5.6c-7e-5 1.4667-0.0667 2.8-0.2 4-0.13341 1.0667-0.46674 2.1334-1 3.2-1.0667 2-1.9334 3.4667-2.6 4.4-0.5334 0.93337-1.3334 2.0667-2.4 3.4-2.0001 2.5334-3.8667 4.2667-5.6 5.2-1.7334 0.80003-3.9334 1.2-6.6 1.2-2.2667 3e-5 -4-0.39997-5.2-1.2-1.2-0.79997-1.7334-2.3333-1.6-4.6l1.6-41.8c1.0666 0.26674 2.1333 0.60008 3.2 1 1.2 0.40008 2.2 0.93341 3 1.6 0.53328 0.26674 1.4666 1.2001 2.8 2.8 1.3333 1.4667 2.3333 2.6667 3 3.6 1.0666 1.4667 1.5999 3.2001 1.6 5.2h4.8l-1-34h-4.8c-0.13339 0.93343-0.40006 1.9334-0.8 3-0.40006 1.0668-0.80006 1.9334-1.2 2.6-1.4667 2.1334-3.0001 4.1334-4.6 6-1.4667 1.7334-3.4 2.7334-5.8 3l1.4-38c0.13328-2.9332 0.46662-4.8665 1-5.8 0.53328-1.0665 2.1333-1.5999 4.8-1.6 2.7999 1.24e-4 5.2666 0.60012 7.4 1.8 2.1333 1.0668 3.9333 2.4668 5.4 4.2 0.6666 0.80012 1.3333 1.7334 2 2.8 0.79993 1.0668 1.5999 2.1334 2.4 3.2 0.39993 1.4668 0.66659 2.8668 0.8 4.2 0.26659 1.3334 0.53326 2.6668 0.8 4h4.8" fill="#6d9842"/>
<path d="m340.57 203.45 9.8-159.6 77.2 4 9.2 153.6-96.2 2m80.2-58.8c-8e-5 -6.6666-2.1334-12.067-6.4-16.2-4.1334-4.1333-10.8-6.9999-20-8.6 9.4666-1.8666 16.133-5.1332 20-9.8 3.8666-4.6666 5.7999-10.067 5.8-16.2-8e-5 -4.3999-0.73341-8.3332-2.2-11.8-1.3334-3.5999-3.7334-6.8665-7.2-9.8-1.3334-0.79988-3.0001-1.4665-5-2-1.8667-0.53321-3.8667-0.93321-6-1.2-2.1334-0.39987-4.2667-0.66654-6.4-0.8-2.0001-0.26654-3.8001-0.39987-5.4-0.4l-29.4-0.2 0.2 5c2.8 0.53346 4.4666 1.4001 5 2.6 0.53331 1.0668 0.86664 2.7335 1 5l3.2 88.2c0.26664 3.0667-1.7334 4.6-6 4.6v6.8c2.4 0.40002 4.5333 0.73335 6.4 1 1.8666 0.13335 3.6 0.26668 5.2 0.4 1.7333 0.13335 3.4 0.26668 5 0.4 1.6 2e-5 3.3333 2e-5 5.2 0 1.4666 2e-5 3.2-0.13332 5.2-0.4 2-0.26665 4.1333-0.73331 6.4-1.4 2.2666-0.66665 4.5333-1.5333 6.8-2.6 2.3999-1.2 4.5999-2.6 6.6-4.2 2.5333-2.1333 4.5999-4.6 6.2-7.4 1.5999-2.8 2.7999-5.5333 3.6-8.2 0.93325-2.8 1.5332-5.3333 1.8-7.6 0.26657-2.4 0.39991-4.1333 0.39999-5.2m-22.2-48.6c-6e-5 2.2668-0.20006 4.6668-0.6 7.2-0.26673 2.4001-0.93339 4.7334-2 7-0.93339 2.1334-2.4667 3.9334-4.6 5.4-2.0001 1.3334-4.6667 2.0001-8 2h-1.6l0.8-39.4c-4e-5 -1.3332 0.26662-2.5332 0.80001-3.6 0.66661-1.1999 1.9333-1.7999 3.8-1.8 4.9333 1.24e-4 8.2666 2.5335 10 7.6 0.66661 1.8668 1.0666 4.2668 1.2 7.2 0.13326 2.9334 0.19993 5.7334 0.19999 8.4m0.6 44.4c-6e-5 1.2001-0.13339 3.0667-0.4 5.6-0.13339 2.4-0.40006 5-0.8 7.8-0.26673 2.6667-0.66673 5.3334-1.2 8-0.53339 2.5334-1.2001 4.6667-2 6.4-1.0667 2.2667-2.2667 4.1334-3.6 5.6-1.3334 1.3334-3.0667 2-5.2 2-2.2667 2e-5 -3.8-0.93331-4.6-2.8-0.66672-1.8666-1-3.5333-1-5l1.4-45.8c3.0666 8e-5 6 0.60008 8.8 1.8 2.9333 1.2001 5.2666 3.4667 7 6.8 0.66661 1.0667 1.0666 2.2001 1.2 3.4 0.26661 1.2001 0.39994 3.2667 0.4 6.2" fill="#6d9842"/>
<path d="m449.94 205.45 9.4-157.6 76.8-3.8 10 155.2-96.2 6.2m80.6-136.2-22.4-0.4v4.8c1.3333 0.53346 2.4666 1.0668 3.4 1.6 0.93327 0.40012 1.9333 1.0001 3 1.8 0.93327 1.4668 1.3999 3.0668 1.4 4.8 0.13327 1.7334 0.2666 3.2668 0.40001 4.6l3.6 69.2c0.13326 2.4-7e-5 4.9334-0.4 7.6-0.40007 2.6667-1.1334 5.1334-2.2 7.4-1.3334 2.6667-3.0667 4.5334-5.2 5.6-2.1334 0.93336-4.4667 1.4-7 1.4-3.0667 2e-5 -5.5334-0.59998-7.4-1.8-1.8667-1.2-3.3334-2.9333-4.4-5.2-0.66671-1.7333-1.1334-3.9333-1.4-6.6-0.26671-2.8-0.40004-5.5333-0.4-8.2l-1-64.8c-4e-5 -1.8666 0.46662-3.5332 1.4-5 1.0666-1.4666 2.8-2.8666 5.2-4.2v-4.8l-31.6-1.2v4.8l3.4 0.6c2.2666 1.0668 3.4 2.7334 3.4 5l1 70.4c-3e-5 4.4 0.39997 8.3334 1.2 11.8 0.93331 3.3334 2.3333 6.2 4.2 8.6 2 2.2667 4.6666 4 8 5.2 3.3333 1.2 7.5333 1.8 12.6 1.8 4.3999 2e-5 8.3333-0.46665 11.8-1.4 3.4666-1.0666 6.4666-3.0666 9-6 1.8666-2.2666 3.3999-5.3333 4.6-9.2 1.1999-3.8666 1.6666-8.1333 1.4-12.8l-3.6-68.2c0.13326-1.8666 0.26659-3.5999 0.4-5.2 0.26659-1.7332 0.73326-3.1332 1.4-4.2 0.53325-0.53321 1.3999-1.0665 2.6-1.6 1.3332-0.53321 2.5332-0.99988 3.6-1.4v-4.8" fill="#6d9842"/>
<path d="m657.32 195.45-97.8 5.8 5.2-159.2 80.8 4 11.8 149.4m-19-44c0.13325 0.66671 0.19992 1.4667 0.2 2.4-8e-5 0.80004-8e-5 1.5334 0 2.2-8e-5 1.4667-0.20008 3.2-0.6 5.2-0.26675 2-0.60008 3.7334-1 5.2-0.26675 0.6667-0.73341 1.3334-1.4 2-0.53341 0.6667-1.2001 1-2 1-2.9334 3e-5 -4.4001-3.7333-4.4-11.2-8e-5 -2 0.0666-3.7333 0.19999-5.2 0.13326-1.4666 0.26659-2.9333 0.40001-4.4 0.13325-1.4666 0.26658-3 0.4-4.6 0.13325-1.5999 0.19992-3.3999 0.19999-5.4-7e-5 -1.9999-0.20007-4.0666-0.59999-6.2-0.40008-2.2666-1.2001-4.3333-2.4-6.2-1.7334-2.2666-3.8001-4.1999-6.2-5.8-2.4001-1.5999-5.7334-2.9332-10-4 4.2666-0.53325 7.7333-1.5999 10.4-3.2 2.7999-1.7332 4.9999-3.5999 6.6-5.6 1.7332-2.1332 2.9999-4.3332 3.8-6.6 0.79992-2.2666 1.3999-4.3999 1.8-6.4 0.26658-1.0666 0.46658-2.3999 0.59999-4 0.26659-1.7332 0.39992-3.1999 0.40001-4.4-9e-5 -2.7999-0.53342-5.5332-1.6-8.2-1.0668-2.6665-3.2001-4.9332-6.4-6.8-2.2667-1.3332-4.7334-2.2665-7.4-2.8-2.6667-0.5332-6.5334-0.79987-11.6-0.8-2.9334 1.29e-4 -5.6667 0.13346-8.2 0.4-2.4 0.2668-4.8667 0.60013-7.4 1-2.4 0.40013-4.9334 0.86679-7.6 1.4-2.6667 0.53346-5.6667 1.1335-9 1.8v4.6c1.8666 0.26679 3.3333 0.66679 4.4 1.2 1.2 0.40012 1.8 1.1335 1.8 2.2l2.8 79c-3e-5 1.2-0.40003 2.6667-1.2 4.4-0.80003 1.6-2.7334 2.6-5.8 3v4.6h26v-4.6c-2.5334-0.26663-4.3334-1.0666-5.4-2.4-1.0667-1.4666-1.5334-3.1333-1.4-5l1.6-42.2c2.9333 8e-5 5.4 0.33342 7.4 1 2.1333 0.53341 3.8666 1.6668 5.2 3.4 0.93328 1.6001 1.4666 3.2001 1.6 4.8 0.26661 1.4667 0.39994 3.0001 0.4 4.6-6e-5 2.0001-0.20006 3.8001-0.6 5.4-0.40005 1.4667-0.60005 2.3334-0.59999 2.6l-0.6 15.8c-0.1334 3.7334 0.0666 6.6667 0.6 8.8 0.53327 2 1.4666 4.2 2.8 6.6 2.6666 5.2 6.9333 7.8 12.8 7.8 4.6666 2e-5 8.3333-1.6 11-4.8 2.6666-3.3333 3.9999-8.8666 4-16.6-8e-5 -1.8666-0.13342-3.4666-0.4-4.8l-3.6-0.2m-27.6-39.2c-0.80006 0.80009-1.6001 1.5334-2.4 2.2-0.80005 0.53342-2.1334 0.80008-4 0.8l-5.6-0.6 2-34c0.13328-1.9999 0.59995-3.5332 1.4-4.6 0.79994-1.0665 2.2666-1.5999 4.4-1.6 2.2666 1.22e-4 4 0.40012 5.2 1.2 1.1999 0.80012 2.3333 2.0668 3.4 3.8 0.79993 1.4668 1.3999 3.0001 1.8 4.6 0.53327 1.4668 0.79994 3.2001 0.80001 5.2-7e-5 1.6001-0.1334 3.4668-0.40001 5.6-0.26673 2.1334-0.66673 4.3334-1.2 6.6-0.5334 2.1334-1.2667 4.2001-2.2 6.2-0.80006 1.8668-1.8667 3.4001-3.2 4.6" fill="#6d9842"/>
<path d="m669.69 205.45 10-157.6 77-4 8.2 154.6-95.2 7m82.4-81-30.6-1.6-0.20001 6.6c0.53328-0.13326 0.93328-0.19993 1.2-0.2 0.39993 7e-5 0.73327 7e-5 1 0 1.3333 7e-5 2.5333 0.1334 3.6 0.4 0.39993 0.26674 0.73326 1.2667 1 3 0.2666 1.7334 0.4666 3.2001 0.59999 4.4l-1 17.8c-0.13339 2.4-0.46673 4.6667-1 6.8-0.40006 2.1334-1.1334 4.4667-2.2 7-1.6001 3.0667-3.9334 4.6-7 4.6-2.0001 3e-5 -3.6667-0.66664-5-2-1.2-1.4666-2.1334-3.3333-2.8-5.6-0.80004-2.9333-1.5334-6.2-2.2-9.8-0.53338-3.7333-1-7.6-1.4-11.6-0.40005-3.9999-0.73338-7.9333-1-11.8-0.13338-3.9999-0.20005-7.7333-0.20001-11.2-4e-5 -0.13326-4e-5 -0.73325 0-1.8-4e-5 -1.0666-0.0667-2.2666-0.2-3.6-4e-5 -1.4666-4e-5 -2.9999 0-4.6-4e-5 -1.7332-4e-5 -3.3999 0-5-4e-5 -2.7999 0.1333-5.9999 0.40001-9.6 0.39995-3.5999 0.99995-6.9999 1.8-10.2 0.79996-3.1999 1.9333-5.8666 3.4-8 1.4666-2.2665 3.3333-3.3999 5.6-3.4 6 1.21e-4 10.467 2.6001 13.4 7.8 3.0666 5.2001 5.3333 12.4 6.8 21.6h5.4l-2.2-41-8 0.8 1.4 12.2-5.8-3.2c-1.4667-0.79988-3.1334-1.4665-5-2-1.7334-0.66654-3.5334-0.99987-5.4-1-6 1.26e-4 -11.067 1.5335-15.2 4.6-4 2.9335-7.3334 6.6668-10 11.2-2.6667 4.2668-4.4 9.3334-5.2 15.2-0.6667 5.7334-1 11.533-1 17.4-3e-5 3.4667 0.1333 7.1334 0.4 11 0.39997 3.8667 0.99997 7.8001 1.8 11.8 0.79998 4 1.8 8 3 12 1.3333 3.8667 2.9333 7.5334 4.8 11 4.9333 9.3334 12.133 14 21.6 14 3.8666 2e-5 7.2666-0.86664 10.2-2.6 2.9333-1.7333 5.9333-4.6 9-8.6l0.20001 14.6h6.4c0.53325-11.2 0.93325-20.067 1.2-26.6 0.26659-6.5333 0.46659-11.467 0.6-14.8 0.26659-3.3333 0.46659-5.5333 0.6-6.6 0.13326-1.1999 0.39992-1.9999 0.8-2.4 1.0666-0.13327 1.9999-0.2666 2.8-0.4 0.93324-0.13326 1.9332-0.2666 3-0.4l0.6-6.2" fill="#6d9842"/>
<path d="m778.07 195.65 5.4-153.8 80.8 4.2 12 153.2-98.2-3.6m72.8-103.4 1.4-25.6-56.4-1.8v4.8c1.4666 0.13346 2.6 0.53346 3.4 1.2 0.93331 0.53346 1.6 1.2001 2 2 0.39997 0.80012 0.59997 1.6001 0.60001 2.4 0.1333 0.66679 0.19996 1.2668 0.19999 1.8l2.2 86.8c0.13331 2.2667-0.33336 3.9334-1.4 5-0.93337 1.0667-2.5334 1.8-4.8 2.2v6.6l53-1.8-2-27h-5.6c-8e-5 1.4667-0.0667 2.8-0.20001 4-0.1334 1.0667-0.46673 2.1334-1 3.2-1.0667 2-1.9334 3.4667-2.6 4.4-0.5334 0.93337-1.3334 2.0667-2.4 3.4-2.0001 2.5334-3.8667 4.2667-5.6 5.2-1.7334 0.80003-3.9334 1.2-6.6 1.2-2.2667 3e-5 -4-0.39997-5.2-1.2-1.2-0.79997-1.7334-2.3333-1.6-4.6l1.6-41.8c1.0666 0.26674 2.1333 0.60008 3.2 1 1.2 0.40008 2.2 0.93341 3 1.6 0.53328 0.26674 1.4666 1.2001 2.8 2.8 1.3333 1.4667 2.3333 2.6667 3 3.6 1.0666 1.4667 1.5999 3.2001 1.6 5.2h4.8l-1-34h-4.8c-0.1334 0.93343-0.40007 1.9334-0.80001 3-0.40005 1.0668-0.80005 1.9334-1.2 2.6-1.4667 2.1334-3.0001 4.1334-4.6 6-1.4667 1.7334-3.4001 2.7334-5.8 3l1.4-38c0.13328-2.9332 0.46661-4.8665 1-5.8 0.53328-1.0665 2.1333-1.5999 4.8-1.6 2.8 1.24e-4 5.2666 0.60012 7.4 1.8 2.1333 1.0668 3.9333 2.4668 5.4 4.2 0.6666 0.80012 1.3333 1.7334 2 2.8 0.79993 1.0668 1.5999 2.1334 2.4 3.2 0.39992 1.4668 0.66659 2.8668 0.79999 4.2 0.2666 1.3334 0.53326 2.6668 0.8 4h4.8" fill="#6d9842"/>
<path d="m985.44 195.45-97.8 5.8 5.2-159.2 80.8 4 11.8 149.4m-19-44c0.13325 0.66671 0.19992 1.4667 0.2 2.4-8e-5 0.80004-8e-5 1.5334 0 2.2-8e-5 1.4667-0.20008 3.2-0.6 5.2-0.26675 2-0.60008 3.7334-1 5.2-0.26675 0.6667-0.73341 1.3334-1.4 2-0.53341 0.6667-1.2001 1-2 1-2.9334 3e-5 -4.4001-3.7333-4.4-11.2-8e-5 -2 0.0666-3.7333 0.19999-5.2 0.13326-1.4666 0.26659-2.9333 0.40001-4.4 0.13325-1.4666 0.26658-3 0.4-4.6 0.13325-1.5999 0.19992-3.3999 0.19999-5.4-7e-5 -1.9999-0.20007-4.0666-0.59999-6.2-0.40008-2.2666-1.2001-4.3333-2.4-6.2-1.7334-2.2666-3.8001-4.1999-6.2-5.8-2.4001-1.5999-5.7334-2.9332-10-4 4.2666-0.53325 7.7333-1.5999 10.4-3.2 2.7999-1.7332 4.9999-3.5999 6.6-5.6 1.7332-2.1332 2.9999-4.3332 3.8-6.6 0.79992-2.2666 1.3999-4.3999 1.8-6.4 0.26658-1.0666 0.46658-2.3999 0.59999-4 0.26659-1.7332 0.39992-3.1999 0.40001-4.4-9e-5 -2.7999-0.53342-5.5332-1.6-8.2-1.0668-2.6665-3.2001-4.9332-6.4-6.8-2.2667-1.3332-4.7334-2.2665-7.4-2.8-2.6667-0.5332-6.5334-0.79987-11.6-0.8-2.9334 1.29e-4 -5.6667 0.13346-8.2 0.4-2.4 0.2668-4.8667 0.60013-7.4 1-2.4 0.40013-4.9334 0.86679-7.6 1.4-2.6667 0.53346-5.6667 1.1335-9 1.8v4.6c1.8666 0.26679 3.3333 0.66679 4.4 1.2 1.2 0.40012 1.8 1.1335 1.8 2.2l2.8 79c-3e-5 1.2-0.40003 2.6667-1.2 4.4-0.80003 1.6-2.7334 2.6-5.8 3v4.6h26v-4.6c-2.5334-0.26663-4.3334-1.0666-5.4-2.4-1.0667-1.4666-1.5334-3.1333-1.4-5l1.6-42.2c2.9333 8e-5 5.4 0.33342 7.4 1 2.1333 0.53341 3.8666 1.6668 5.2 3.4 0.93328 1.6001 1.4666 3.2001 1.6 4.8 0.26661 1.4667 0.39994 3.0001 0.4 4.6-6e-5 2.0001-0.20006 3.8001-0.6 5.4-0.40005 1.4667-0.60005 2.3334-0.59999 2.6l-0.6 15.8c-0.1334 3.7334 0.0666 6.6667 0.6 8.8 0.53327 2 1.4666 4.2 2.8 6.6 2.6666 5.2 6.9333 7.8 12.8 7.8 4.6666 2e-5 8.3333-1.6 11-4.8 2.6666-3.3333 3.9999-8.8666 4-16.6-8e-5 -1.8666-0.13342-3.4666-0.4-4.8l-3.6-0.2m-27.6-39.2c-0.80006 0.80009-1.6001 1.5334-2.4 2.2-0.80005 0.53342-2.1334 0.80008-4 0.8l-5.6-0.6 2-34c0.13328-1.9999 0.59995-3.5332 1.4-4.6 0.79994-1.0665 2.2666-1.5999 4.4-1.6 2.2666 1.22e-4 4 0.40012 5.2 1.2 1.1999 0.80012 2.3333 2.0668 3.4 3.8 0.79993 1.4668 1.3999 3.0001 1.8 4.6 0.53327 1.4668 0.79994 3.2001 0.80001 5.2-7e-5 1.6001-0.1334 3.4668-0.40001 5.6-0.26673 2.1334-0.66673 4.3334-1.2 6.6-0.5334 2.1334-1.2667 4.2001-2.2 6.2-0.80006 1.8668-1.8667 3.4001-3.2 4.6" fill="#6d9842"/>
<path d="m41.59 334.49 7.056-113.47 55.584-2.88 6.624 112.03-69.264 4.32m42.048-86.832c0.47995 1.5361 0.67195 3.8401 0.576 6.912l-1.44 43.344c-4.6e-5 0.76803-0.09605 1.68-0.288 2.736-0.19205 0.96002-0.43204 1.92-0.72 2.88-0.28804 0.96002-0.67204 1.824-1.152 2.592-0.48004 0.76802-1.056 1.296-1.728 1.584-0.57604 0.19202-1.44 0.28802-2.592 0.288-1.056-0.096-2.064-0.14398-3.024-0.144-0.67204 2e-5 -1.344-0.096-2.016-0.288-0.57603-0.19198-1.056-0.67198-1.44-1.44-0.19203-0.47998-0.33603-1.2-0.432-2.16-0.09603-1.056-0.14403-1.68-0.144-1.872l-1.296-52.416c-0.09603-1.8239 0.19197-3.2639 0.864-4.32 0.67197-1.1519 1.824-1.6799 3.456-1.584 1.056 8e-5 2.112 0.0481 3.168 0.144 1.152 8e-5 2.256 0.0481 3.312 0.144 0.09596 8e-5 0.33596 0.0481 0.72 0.144 0.47996 0.0961 0.95996 0.28808 1.44 0.576 0.57596 0.28808 1.104 0.67208 1.584 1.152 0.57595 0.48008 0.95995 1.0561 1.152 1.728m15.552 29.664c0.0959-1.056 0.14394-2.256 0.144-3.6 0.0959-1.344 0.19194-2.5919 0.288-3.744 0.0959-1.1519 0.14394-2.1119 0.144-2.88 0.0959-0.86394 0.14394-1.3919 0.144-1.584-6e-5 -3.3599-0.24006-5.9999-0.72-7.92-0.38406-1.9199-1.0081-3.8879-1.872-5.904-1.2481-2.8799-3.1201-5.4239-5.616-7.632-1.4401-1.2479-3.3121-2.2559-5.616-3.024-2.304-0.86391-4.608-1.4879-6.912-1.872-2.304-0.47991-4.368-0.81591-6.192-1.008-1.824-0.19191-2.928-0.28791-3.312-0.288-3.072 9e-5 -5.856 0.0961-8.352 0.288-2.496 0.0961-5.184 0.28809-8.064 0.576v5.184c1.92 0.28808 3.12 0.81608 3.6 1.584 0.47998 0.76808 0.76798 1.6801 0.864 2.736l3.888 60.048c0.19198 2.592-1.296 3.888-4.464 3.888v4.896c2.208 1e-5 3.84 0.048 4.896 0.144 1.056 0.096 2.4 0.14401 4.032 0.144 1.728 1e-5 3.744-0.14399 6.048-0.432 2.304-0.28799 4.656-0.76799 7.056-1.44 2.496-0.76799 4.896-1.824 7.2-3.168 2.3999-1.344 4.4159-3.072 6.048-5.184 1.0559-1.344 1.9679-3.168 2.736-5.472 0.76794-2.4 1.3919-4.944 1.872-7.632 0.57594-2.784 1.0079-5.616 1.296-8.496 0.38394-2.976 0.67194-5.712 0.864-8.208" fill="#6d9842"/>
<path d="m120.34 326 3.888-110.74 58.176 3.024 8.64 110.3-70.704-2.592m52.416-74.448 1.008-18.432-40.608-1.296v3.456c1.056 0.0961 1.872 0.38409 2.448 0.864 0.67198 0.38409 1.152 0.86409 1.44 1.44 0.28798 0.57609 0.43198 1.1521 0.432 1.728 0.096 0.48009 0.14398 0.91209 0.144 1.296l1.584 62.496c0.096 1.632-0.24002 2.832-1.008 3.6-0.67202 0.76802-1.824 1.296-3.456 1.584v4.752l38.16-1.296-1.44-19.44h-4.032c-5e-5 1.056-0.0481 2.016-0.144 2.88-0.096 0.76803-0.33605 1.536-0.72 2.304-0.76805 1.44-1.392 2.496-1.872 3.168-0.38405 0.67202-0.96005 1.488-1.728 2.448-1.44 1.824-2.784 3.072-4.032 3.744-1.248 0.57602-2.832 0.86402-4.752 0.864-1.632 2e-5 -2.88-0.28798-3.744-0.864-0.86403-0.57598-1.248-1.68-1.152-3.312l1.152-30.096c0.76796 0.19205 1.536 0.43205 2.304 0.72 0.86396 0.28805 1.584 0.67205 2.16 1.152 0.38396 0.19205 1.056 0.86405 2.016 2.016 0.95996 1.056 1.68 1.92 2.16 2.592 0.76796 1.056 1.152 2.304 1.152 3.744h3.456l-0.72-24.48h-3.456c-0.096 0.67207-0.28804 1.3921-0.576 2.16-0.28804 0.76806-0.57604 1.3921-0.864 1.872-1.056 1.5361-2.16 2.9761-3.312 4.32-1.056 1.2481-2.448 1.9681-4.176 2.16l1.008-27.36c0.096-2.1119 0.33596-3.5039 0.72-4.176 0.38396-0.76791 1.536-1.1519 3.456-1.152 2.016 9e-5 3.792 0.43209 5.328 1.296 1.536 0.76809 2.832 1.7761 3.888 3.024 0.47995 0.57608 0.95995 1.2481 1.44 2.016 0.57595 0.76808 1.152 1.5361 1.728 2.304 0.28795 1.0561 0.47995 2.0641 0.576 3.024 0.19195 0.96008 0.38395 1.9201 0.576 2.88h3.456" fill="#6d9842"/>
<path d="m826.84 331.47 6.768-110.3 55.296-3.024 7.2 116.35-69.264-3.024m50.544-40.752-3.312 0.72c-0.28805 2.208-0.76805 4.368-1.44 6.48-0.67205 2.016-1.488 4.08-2.448 6.192-1.152 1.728-2.544 3.024-4.176 3.888-1.632 0.86402-3.312 1.296-5.04 1.296-1.056 2e-5 -2.016-0.28798-2.88-0.864-0.76804-0.57598-1.2-1.584-1.296-3.024l3.312-60.192c-4e-5 -0.67192 0.096-1.3919 0.288-2.16 0.19196-0.86392 0.47996-1.6319 0.864-2.304 0.38396-0.67191 0.91196-1.2479 1.584-1.728 0.67196-0.47991 1.584-0.71991 2.736-0.72l0.144-3.456-23.184-1.728v3.456c1.92 0.19209 3.12 0.96009 3.6 2.304 0.57598 1.2481 0.86397 2.3041 0.864 3.168l-1.008 64.08c-2e-5 1.44-0.28802 2.64-0.864 3.6-0.57602 0.86402-1.776 1.44-3.6 1.728v3.456l37.728-2.016-1.872-22.176" fill="#6d9842"/>
<path d="m974.71 331.47-68.976-2.88 6.624-110.3 55.296-2.88 7.056 116.06m-9.504-22.032c-2.2081-0.19198-3.7441-1.104-4.608-2.736-0.86406-1.632-1.5361-3.408-2.016-5.328l-15.984-69.408h-6.768l-14.832 70.56c-0.19202 0.96002-0.43202 1.968-0.72 3.024-0.28802 0.96002-0.67202 1.872-1.152 2.736-0.48002 0.86402-1.104 1.584-1.872 2.16-0.67202 0.48002-1.584 0.72002-2.736 0.72v3.168l15.696 0.864v-3.168c-1.728-0.19199-3.072-0.62399-4.032-1.296-0.86402-0.76798-1.296-2.112-1.296-4.032-2e-5 -0.57598-2e-5 -1.056 0-1.44-2e-5 -0.47998 0.096-1.056 0.288-1.728l2.88-13.536 14.256 0.864 3.6 12.24c0.28795 1.056 0.43195 2.352 0.432 3.888-5e-5 1.152-0.38405 1.968-1.152 2.448-0.76804 0.48002-1.824 0.81602-3.168 1.008v3.168l23.472-1.008-0.288-3.168m-36.144-23.76 5.76-30.24 6.624 31.104-12.384-0.864" fill="#6d9842"/>
<path d="m108.83 42.052-9.8 161.2-76.8-4-9.2-153.2 95.8-4m-25 136.2 1.8-30.8h-4.4c-1.4667 3.4667-2.9334 6.8667-4.4 10.2-1.3334 3.3334-2.7334 6.1334-4.2 8.4-1.0667 1.4667-2.4667 2.8-4.2 4-1.6001 1.0667-4.0001 1.6-7.2 1.6-3.7334 3e-5 -5.6001-2.2-5.6-6.6l-1.8-86.4c-4.9e-5 -1.0665 0.06662-2.0665 0.2-3 0.26662-1.0665 0.73328-1.9332 1.4-2.6 0.79995-0.79988 1.7999-1.5999 3-2.4 1.3333-0.93321 2.3333-1.4665 3-1.6l0.2-4.8-32.2 2v4.8c2.5333 0.26679 4.1333 1.2001 4.8 2.8 0.79997 1.4668 1.2666 3.0668 1.4 4.8l3.6 85.6c0.1333 1.8667-0.2667 3.5334-1.2 5-0.80003 1.3334-2.4667 2.1334-5 2.4v4.8l50.8 1.8" fill="#6d9842"/>
</g>
<g transform="matrix(.73397 0 0 .73397 28.1 147.23)" fill="#c00">
<path d="m181.05 708.29 9.516-187.39 106.38 4.88 3.904 187.39-119.8-4.88m108.09-160.8-32.452-2.44-12.2 47.336-14.884-49.288-33.672 2.44v5.856c3.904 0.48815 6.1813 1.3828 6.832 2.684 0.65064 1.1388 1.0573 2.9281 1.22 5.368l5.612 105.16c-4e-5 0.97604-0.0814 2.196-0.244 3.66-4e-5 1.464-0.32537 2.8467-0.976 4.148-0.48804 1.3014-1.464 2.5214-2.928 3.66-1.3014 1.1387-3.172 1.8707-5.612 2.196v5.856h30.012v-5.612c-3.5787-0.48798-6.1814-1.8706-7.808-4.148-0.81338-1.3013-1.3827-3.0906-1.708-5.368-0.16271-2.2773-0.32538-4.3106-0.488-6.1l-5.612-107.36 23.668 65.88h8.052l16.348-69.54-2.44 119.32c-9e-5 1.3014-0.24409 2.6027-0.732 3.904-0.48809 1.3014-0.89475 2.3587-1.22 3.172-1.4641 1.464-4.2294 2.5214-8.296 3.172v5.856l37.088 2.684v-5.856c-5.3681-0.48798-7.9708-3.9853-7.808-10.492l2.44-110.04c-1.1e-4 -0.3252 0.0812-1.3825 0.244-3.172 0.16256-1.9519 0.65056-3.4972 1.464-4.636 0.32522-0.32519 0.65056-0.48785 0.976-0.488 0.48789 1.5e-4 1.0572 0.16281 1.708 0.488 0.81322 0.16281 1.6266 0.24414 2.44 0.244 0.32522 1.4e-4 0.65055-0.0812 0.976-0.244v-8.296"/>
<path d="m314.48 713.17 14.396-197.15 99.064 4.88 6.344 187.39-119.8 4.88m99.064-103.46c-1.1e-4 -6.0186-0.16277-11.793-0.488-17.324-0.32544-5.6932-1.3828-11.956-3.172-18.788-1.3014-5.5305-2.8468-10.004-4.636-13.42-1.7894-3.4159-4.3108-6.5878-7.564-9.516-7.1574-6.8318-14.64-10.248-22.448-10.248-4.3921 1.6e-4 -8.2961 0.89483-11.712 2.684-3.2534 1.7895-6.1814 4.2295-8.784 7.32-2.6027 3.0908-4.9614 6.8321-7.076 11.224-1.952 4.2295-3.904 8.8655-5.856 13.908-0.6507 1.9521-1.3014 4.5548-1.952 7.808-0.6507 3.0908-1.3014 6.3441-1.952 9.76-0.48803 3.4161-0.8947 6.5881-1.22 9.516-0.32536 2.9281-0.48803 5.1241-0.488 6.588-3e-5 3.4161-3e-5 7.1574 0 11.224-3e-5 4.0667 0.0813 8.0521 0.244 11.956 0.16264 3.7414 0.40664 7.2387 0.732 10.492 0.3253 3.2534 0.73197 5.856 1.22 7.808 1.1386 4.2294 2.7653 8.4587 4.88 12.688 2.2773 4.0667 4.88 7.7267 7.808 10.98 3.0906 3.2534 6.4253 5.856 10.004 7.808 3.5786 1.952 7.4826 2.928 11.712 2.928 7.1573 2e-5 13.745-2.8466 19.764-8.54 6.0186-5.6933 10.655-13.583 13.908-23.668 3.0906-9.2719 5.0426-17.731 5.856-25.376 0.81323-7.6452 1.2199-13.583 1.22-17.812m-21.228-3.416c-0.16275 8.7841-0.56942 17.405-1.22 25.864-0.65075 8.2961-2.1148 16.836-4.392 25.62-2.7654 10.411-6.9134 15.616-12.444 15.616-2.9281 3e-5 -5.2867-1.708-7.076-5.124-1.7894-3.416-3.0907-6.9133-3.904-10.492-0.97606-4.5546-1.6267-8.9466-1.952-13.176-0.32539-4.2293-0.48805-8.7026-0.488-13.42-5e-5 -3.0906-5e-5 -6.9133 0-11.468 0.16261-4.7172 0.32528-9.6786 0.488-14.884 0.32528-5.2052 0.65061-10.411 0.976-15.616 0.48794-5.3679 1.0573-10.329 1.708-14.884 1.1386-8.2959 3.0093-14.477 5.612-18.544 2.7653-4.2292 5.8559-6.3438 9.272-6.344 1.9519 1.5e-4 3.5786 0.65082 4.88 1.952 1.4639 1.3015 2.6839 3.0908 3.66 5.368 0.97592 2.2775 1.7892 4.9615 2.44 8.052 0.81325 2.9281 1.4639 6.1001 1.952 9.516 0.81325 4.7175 1.0572 9.6788 0.732 14.884-0.16275 5.0428-0.24409 10.736-0.244 17.08"/>
<path d="m567.48 703.41-119.32 7.076 6.344-194.22 98.576 4.88 14.396 182.27m-23.18-53.68c0.16256 0.81338 0.2439 1.7894 0.244 2.928-1e-4 0.97605-1e-4 1.8707 0 2.684-1e-4 1.7894-0.2441 3.904-0.732 6.344-0.32544 2.44-0.7321 4.5547-1.22 6.344-0.32544 0.81337-0.89477 1.6267-1.708 2.44-0.65077 0.81336-1.4641 1.22-2.44 1.22-3.5788 3e-5 -5.3681-4.5546-5.368-13.664-9e-5 -2.44 0.0812-4.5546 0.244-6.344 0.16257-1.7893 0.32524-3.5786 0.488-5.368 0.16257-1.7893 0.32524-3.6599 0.488-5.612 0.16257-1.9519 0.24391-4.1479 0.244-6.588-9e-5 -2.4399-0.24409-4.9613-0.732-7.564-0.48809-2.7653-1.4641-5.2866-2.928-7.564-2.1148-2.7652-4.6361-5.1239-7.564-7.076-2.9281-1.9519-6.9947-3.5786-12.2-4.88 5.2053-0.65057 9.4346-1.9519 12.688-3.904 3.4159-2.1146 6.0999-4.3919 8.052-6.832 2.1146-2.6026 3.6599-5.2866 4.636-8.052 0.9759-2.7652 1.7079-5.3679 2.196-7.808 0.32523-1.3012 0.56923-2.9279 0.732-4.88 0.32523-2.1145 0.4879-3.9039 0.488-5.368-1e-4 -3.4159-0.65077-6.7505-1.952-10.004-1.3014-3.2532-3.9041-6.0185-7.808-8.296-2.7654-1.6265-5.7748-2.7652-9.028-3.416-3.2534-0.65051-7.9707-0.97585-14.152-0.976-3.5787 1.5e-4 -6.9134 0.16282-10.004 0.488-2.928 0.32549-5.9374 0.73215-9.028 1.22-2.928 0.48815-6.0187 1.0575-9.272 1.708-3.2534 0.65082-6.9134 1.3828-10.98 2.196v5.612c2.2773 0.32548 4.0666 0.81347 5.368 1.464 1.464 0.48814 2.196 1.3828 2.196 2.684l3.416 96.38c-4e-5 1.464-0.48804 3.2534-1.464 5.368-0.97604 1.952-3.3347 3.172-7.076 3.66v5.612h31.72v-5.612c-3.0907-0.3253-5.2867-1.3013-6.588-2.928-1.3014-1.7893-1.8707-3.8226-1.708-6.1l1.952-51.484c3.5786 9e-5 6.5879 0.40676 9.028 1.22 2.6026 0.65076 4.7173 2.0334 6.344 4.148 1.1386 1.9521 1.7893 3.9041 1.952 5.856 0.32526 1.7894 0.48793 3.6601 0.488 5.612-7e-5 2.4401-0.24407 4.6361-0.732 6.588-0.48807 1.7894-0.73207 2.8467-0.732 3.172l-0.732 19.276c-0.16274 4.5547 0.0813 8.1334 0.732 10.736 0.65059 2.44 1.7893 5.124 3.416 8.052 3.2532 6.344 8.4586 9.516 15.616 9.516 5.6932 2e-5 10.167-1.952 13.42-5.856 3.2532-4.0666 4.8799-10.817 4.88-20.252-1.1e-4 -2.2773-0.16278-4.2293-0.488-5.856l-4.392-0.244m-33.672-47.824c-0.97607 0.9761-1.9521 1.8708-2.928 2.684-0.97607 0.65076-2.6027 0.9761-4.88 0.976l-6.832-0.732 2.44-41.48c0.16261-2.4399 0.73194-4.3105 1.708-5.612 0.97594-1.3012 2.7653-1.9518 5.368-1.952 2.7653 1.5e-4 4.8799 0.48814 6.344 1.464 1.4639 0.97614 2.8466 2.5215 4.148 4.636 0.97592 1.7895 1.7079 3.6601 2.196 5.612 0.65059 1.7895 0.97592 3.9041 0.976 6.344-8e-5 1.9521-0.16275 4.2295-0.488 6.832-0.32541 2.6028-0.81341 5.2868-1.464 8.052-0.65074 2.6028-1.5454 5.1241-2.684 7.564-0.97607 2.2774-2.2774 4.1481-3.904 5.612"/>
<path d="m583.55 720.73 4.148-200.08 101.5-7.32 12.2 194.96-117.85 12.444m91.5-174.7-73.688 6.832 1.952 39.772 6.588-1.464c0.3253-4.3919 0.97596-8.7839 1.952-13.176 1.1386-4.5545 2.6026-8.2145 4.392-10.98 2.2773-1.6265 5.2866-2.7652 9.028-3.416l3.904 108.34c-0.32539 2.2774-0.97606 4.3107-1.952 6.1-0.97605 1.6267-2.3587 2.7654-4.148 3.416-0.81338 2e-5 -1.708 2e-5 -2.684 0-0.81338 2e-5 -1.6267 0.0814-2.44 0.244v7.808l39.04-1.952v-7.808c-1.4641-0.16265-2.8468-0.48798-4.148-0.976-1.3014-0.48798-2.3587-1.3826-3.172-2.684-0.65074-1.3013-1.0574-2.7653-1.22-4.392-0.16274-1.7893-0.24408-3.172-0.244-4.148l0.244-107.12 6.588 0.732c1.6266 0.65081 3.0906 1.9521 4.392 3.904 1.3012 1.7895 2.4399 3.9855 3.416 6.588 0.97591 2.6028 1.7892 5.4495 2.44 8.54 0.81324 2.9281 1.4639 5.8561 1.952 8.784h5.368l2.44-42.944"/>
</g>
<path d="m199.98 425.77c-6.5099 0-24.195 5.9025-27.96 7.6838-1.8209 0.86159-4.5143 2.4748-4.8626 1.967-0.34645-0.50509 0.5475-1.5107 0.9404-2.0588 1.1493-1.6035 2.0039-1.3994-3.5093-0.64223-26.974 3.7043-44.497 12.195-51.08 24.794-0.34794 15.864-1.9879 3.807 0.27523 16.537 16.4 23.792 43.484 32.584 70.415 29.428 25.502-2.9888 56.821-0.78199 83.764-21.01 3.0252-2.5107 3.1221-14.06 0.16056-21.148-4.9166-11.767-18.666-22.343-34.818-26.79-14.072-3.8744-14.144-3.9068-12.248-5.803-3.8302-1.2855-0.63659-0.3837-6.3076-2.4542-3.0071 4.5894-8.5324 5.6236-9.9774 1.8579-0.4987-1.2996-2.682-2.3625-4.7938-2.3625z" fill="#b3c0a0"/>
<g transform="matrix(.73397 0 0 .73397 -769.59 134.56)">
<path d="m1903.4 505.35v-24.511l-89.83-10.015v34.524z" fill="#c3c3cd"/>
<path d="m1153 486.04 661.04-16.456 1.1957 36.163-660.62 3.5978z" fill="#a6a7b8"/>
</g>
<path d="m491.2 0 52.019 12.004-33.831 69.48 19.532 74.396-85.011 72.203-17.461 64.751 9.8218 53.474-9.8218-7.2754-8.7305-40.379 9.0943-64.751 79.666-87.669-26.555-65.842z" fill="#bfc9d1"/>
<path d="m444.83 335.81c-31.304 0-56.676 25.757-56.676 57.525s25.372 57.502 56.676 57.502c31.304 0 56.676-25.734 56.676-57.502s-25.372-57.525-56.676-57.525zm14.335 9.6563c0.32409 0.0291 0.63641 0.12448 0.91746 0.29819 1.2895 0.79692 3.6625 6.3987-0.13762 11.101 4.7576 3.6377 0.94908 10.207-0.38992 10.207-1.1936 0-3.0501-1.0629-4.1286-2.3625-1.4188-1.7096-5.17-2.3625-13.578-2.3625-10.406 0-11.629 0.322-11.629 3.0276 0 5.1054-1.7641 5.069-4.8855 5.069-1.6401 0-3.0611-0.88958-3.1423-1.9726-1.2608-6.6879-0.18046-4.8911 1.812-7.5461-4.0818-6.513-1.5912-7.9887-0.48168-9.3811 1.8742-2.3518 2.2745-2.267 4.5644 0.96334 2.0518 2.8944 4.0001 3.5498 10.597 3.5322 10.864-0.029 15.161-1.3678 15.161-4.702 0-2.9728 3.0526-6.0754 5.3213-5.8718zm20.551 25.07c1.1306-0.0541 2.3358 0.45508 3.4634 1.5826 1.2886 1.2888 3.2299 5.3273 2.6606 9.771-0.24719 1.9292-0.20833 3.2927-2.7753 5.8488 4.8786 3.9443 2.2348 16.898-3.7387 14.152-1.8809-1.0066-3.4176-2.8824-3.4176-4.1515 0-2.7916 1.7173-2.7946-29.152 0.0688-13.862 1.2858-26.79 2.3359-28.74 2.3395-2.3603 4e-3 -3.5552 0.95577-3.5552 2.8441 0 6.5593-8.075 8.9807-11.101 3.3258-1.0488-1.9596-1.2524-4.99-0.52755-7.4773 0.35554-1.22 2.9914-2.8132 3.2341-5.1607 0.21519-2.0818-1.9516-4.8679-1.9267-6.9039 0.0882-7.3049 0.37359-7.8672 3.991-7.8672 2.9389 0 4.291 1.164 5.4589 4.7249 0.85251 2.5991 1.5934 4.8556 1.6514 5.0231 0.0583 0.16747 13.193-1.0575 29.198-2.7295 16.005-1.672 29.243-3.0618 29.405-3.0735 0.16163-0.0111 0.50828-2.2489 0.77985-4.9772 0.44279-4.4508 2.6046-7.2206 5.0919-7.3397zm-3.9451 36.217c1.8741-0.0424 4.8626 2.0092 4.8626 3.8075 0 2.9809-4.5948 2.7992-5.7571-0.22937-0.51304-1.3369-0.59966-2.772-0.18349-3.1882 0.26313-0.26313 0.64552-0.38016 1.078-0.38993zm-7.615 1.7202c0.54571-0.026 1.0702 0.12979 1.4909 0.55048 0.90089 0.90097 1.1938 2.7741 0.66517 4.1515-1.3775 3.59-5.3795 4.7088-6.4911 1.812-1.0159-2.6474 1.9702-6.4015 4.335-6.514zm-31.698 4.8396c2.1389-0.12861 3.755 2.0705 2.6836 4.8626-1.1671 3.0415-7.3397 3.2922-7.3397 0.29818 0-1.1935 1.095-3.0884 2.4313-4.1974 0.74857-0.62125 1.5119-0.92047 2.2248-0.96334zm47.639 1.0551c1.3433-0.0235 3.0289 0.563 3.7157 1.6744 1.622 2.6244-1.5135 4.9086-3.7157 2.7065-1.0396-1.0397-1.8808-2.4492-1.8808-3.1423 0-0.82123 0.83602-1.2203 1.8808-1.2386zm-40.368 2.5001c2.4519 0.014 5.9617 3.1508 4.7479 5.1149-1.5269 2.4704-3.31 2.274-5.7112-0.61929-1.2903-1.5546-1.4737-2.9761-0.50461-3.9451 0.38-0.37999 0.90211-0.5537 1.4679-0.55048zm12.432 1.812c2.5813-0.19115 5.9129 1.702 4.7249 3.624-1.0562 1.7091-5.9958 2.0091-7.5461 0.45873-0.57008-0.57006-0.26174-1.9749 0.6881-3.1194 0.49868-0.60087 1.2727-0.89962 2.1331-0.96333zm-30.529 2.3854c0.54572-0.026 1.0702 0.12979 1.4909 0.55047 0.90088 0.90098 1.1938 2.7741 0.66516 4.1515-1.3775 3.59-5.4024 4.7088-6.514 1.812-1.0158-2.6474 1.9932-6.4015 4.358-6.514zm-7.1792 9.5875c0.59182-0.0823 0.73397 0.66943 0.73397 2.4084 0 3.3794-2.2184 4.4979-3.8075 1.9267-0.47481-0.7682 0.17784-2.2552 1.4679-3.3258 0.73195-0.60747 1.2505-0.95984 1.6056-1.0092z" fill="#f1efd9"/>
<path d="m215.8 435.19c0.80808 1.1319 0.3954 2.8118-0.92175 3.7521-1.3172 0.94032-3.04 0.78498-3.8481-0.34695-0.80808-1.132-0.39539-2.8118 0.92177-3.7521s3.04-0.78497 3.8481 0.34696z" fill="#7e8c6a"/>
<path d="m209 438.5c0.67587 0.93743 0.33072 2.3286-0.77094 3.1074-1.1016 0.77873-2.5426 0.65009-3.2185-0.28734s-0.33071-2.3287 0.77095-3.1074c1.1016-0.77873 2.5426-0.65008 3.2185 0.28735z" fill="#7e8c6a"/>
<path d="m214.39 441.89c0.32915 1.1078-0.45524 2.3075-1.752 2.6797-1.2968 0.37214-2.6148-0.22423-2.944-1.332-0.32914-1.1078 0.45526-2.3075 1.752-2.6797s2.6148 0.22423 2.9439 1.332z" fill="#7e8c6a"/>
<path d="m156.84 441.6c-0.93744-0.67586-2.3287-0.3307-3.1074 0.77095-0.77874 1.1016-0.6501 2.5426 0.28734 3.2185 0.93743 0.67587 2.3286 0.3307 3.1074-0.77095s0.65009-2.5426-0.28734-3.2185z" fill="#7e8c6a"/>
<path d="m151.06 443.9c-1.1078-0.32914-2.3075 0.45525-2.6797 1.752-0.37214 1.2968 0.22424 2.6148 1.332 2.944 1.1078 0.32915 2.3075-0.45526 2.6797-1.752 0.37214-1.2968-0.22423-2.6148-1.332-2.944z" fill="#7e8c6a"/>
<path d="m244.23 453.75c2.0862-0.0731 3.7378 0.46288 4.9543 1.4221 1.622 1.2789 2.355 3.229 2.4772 5.1378 0.12214 1.9088-0.32209 3.8138-1.1927 5.3213s-2.3062 2.7163-4.0598 2.546c-1.8284-0.1776-3.122-0.77255-3.8763-1.7202-0.75426-0.9477-0.85401-2.1126-0.71103-3.0964 0.28594-1.9677 1.4679-3.601 1.4679-3.601l0.92204 0.6275 0.7294 0.49639s-0.93578 1.4809-1.1239 2.7753c-0.0941 0.64721-0.0177 1.14 0.29818 1.5368 0.31582 0.3968 0.97785 0.8177 2.4772 0.96333 0.73425 0.0713 1.4942-0.43054 2.1331-1.5368 0.63889-1.1062 1.013-2.704 0.91747-4.1974-0.0956-1.4934-0.62559-2.8248-1.6973-3.6698-1.0717-0.84501-2.785-1.3046-5.5507-0.73398-5.4414 1.1226-9.5412 3.2663-14.083 4.8626-4.5419 1.5963-9.526 2.5652-16.423 1.1927-12.628-2.5131-28.473 1.5838-38.946 7.1333-5.2366 2.7747-9.1231 5.9633-10.574 8.5324-0.72532 1.2846-0.83514 2.3057-0.48167 3.1882 0.35347 0.88253 1.2783 1.7963 3.1882 2.5689 1.626 0.6577 2.5759 0.47047 3.2341 0.0229 0.65816-0.44754 1.0976-1.3108 1.2615-2.2937s4e-3 -2.0275-0.29817-2.5918c-0.1511-0.28215-0.29694-0.42706-0.41286-0.48167-0.11593-0.0547-0.22057-0.0841-0.50461 0.0229-0.98279 0.37021-1.3829 0.74341-1.4679 0.87158-0.085 0.12816-0.0646 0.0106 0 0.13763 0.12914 0.25404 0.82572 0.75691 0.82572 0.75691l-0.45313 0.96371-0.51021 0.8024s-1.0953-0.46647-1.6744-1.6056c-0.28953-0.56954-0.35057-1.4774 0.11468-2.179 0.46525-0.70157 1.2615-1.1792 2.4542-1.6285 0.69537-0.26198 1.4513-0.26599 2.0643 0.0229 0.61296 0.28892 1.055 0.79626 1.3533 1.3533 0.59653 1.114 0.73417 2.5231 0.50461 3.8992-0.22956 1.3761-0.87343 2.7674-2.1331 3.624-1.2597 0.85655-3.0666 1.0121-5.1149 0.1835-2.2115-0.89461-3.6839-2.1245-4.3121-3.6928-0.62815-1.5683-0.29559-3.3111 0.61928-4.9314 1.8298-3.2405 5.9535-6.4387 11.377-9.3123 10.846-5.7471 26.932-9.9955 40.277-7.3397 6.5414 1.3019 11.009 0.40813 15.368-1.1239 4.359-1.532 8.6175-3.747 14.358-4.9314 0.78827-0.16264 1.5294-0.2738 2.2248-0.29818z" fill="#646c58"/>
<path d="m192.76 435.08c1.4361 0.0275 2.5822 0.72245 2.8441 1.8579 0.34928 1.5139-1.0343 3.2556-3.0964 3.8534-2.0622 0.59776-3.9858-0.1605-4.335-1.6744-0.34927-1.5139 1.0343-3.2556 3.0964-3.8533 0.51553-0.14949 1.0122-0.19272 1.4909-0.1835zm-15.184 2.4313c3.2648 0.0355 5.9131 1.667 6.0323 3.8534 0.12711 2.332-2.6551 4.3932-6.2158 4.5873-3.5608 0.19413-6.5704-1.4984-6.6975-3.8304-0.12712-2.3321 2.6551-4.3932 6.2158-4.5873 0.22254-0.0122 0.44751-0.0253 0.66516-0.0229z" fill="#4c5244"/>
</svg>
