<?xml version="1.0" encoding="UTF-8"?>
<svg version="1.1" viewBox="0 0 981.83 411.06">
<g transform="matrix(2.0987 0 0 2.0987 -22.081 -46.381)">
<path d="m17.956 125.81-7.3492 91.481 160.86 0.27952 2.8559-89.245c-56.126-30.018-107.01-28.216-156.37-2.5156z" fill="#efe9e9"/>
<path d="m64.235 113.81c-0.59294 0.98823-20.753 18.579-20.753 18.579s-10.871 85.185-9.8823 85.185c0.98823 0 104.95-0.19764 104.95-0.19764s-1.7788-96.451 0.59294-96.056c2.3718 0.39529-74.908-7.5106-74.908-7.5106z" fill="#d48162"/>
<path d="m171.77 207.91s-10.738 9.6847-9.6508 9.6847h9.3882z" fill="#b93935"/>
<path d="m171.83 206.7s-14.6-5.5341-13.315-5.9294c1.2847-0.3953 6.8188-7.2141 6.8188-7.2141l6.8378 3.0635z" fill="#b93935"/>
<path d="m169.48 176.56c-0.49411 0.19764-13.242 11.167-13.242 11.167l8.6964 6.4235 7.6274-7.807 0.22162-7.807z" fill="#b93935"/>
<path d="m164.54 158.97-8.9929 9.2894 13.835 7.807 3.6624-3.9529 0.23855-8.4z" fill="#b93935"/>
<path d="m160.98 141.18-10.08 9.0917 13.44 8.3011 8.4-10.475z" fill="#b93935"/>
<path d="m148.83 131.54c0.54353 0.19765 12.207 9.7361 12.207 9.7361l8.4-8.647-17.392-5.0844c-0.53404 0.8663-1.3002 1.7118-3.2152 3.9953z" fill="#b93935"/>
<path d="m169.58 132.68c0.19764-0.0494 4.4964-4.447 4.4964-4.447l0.0494 6.72z" fill="#b93935"/>
<path d="m155.55 217.47s-6.5223-5.1388-6.9176-5.04c-0.39529 0.0988-5.5341 5.5341-5.5341 5.5341z" fill="#b93935"/>
<path d="m148.56 212.04 10.154-10.673-9.9811-5.9294-10.574 10.08z" fill="#b93935"/>
<path d="m149.03 195.44c0.88941 0.0988 6.9176-7.6094 6.9176-7.6094l-13.736-6.9176-6.127 8.4z" fill="#b93935"/>
<path d="m129.06 172.61c0.39529 0.0988 13.44 8.3011 13.44 8.3011l11.661-12.155-14.527-8.1035z" fill="#b93935"/>
<path d="m139.74 160.75c0.49411-0.29647 9.6846-10.475 9.6846-10.475l-13.44-7.7082-9.5858 9.0917z" fill="#b93935"/>
<path d="m136.67 141.82 6.0776-7.3623-10.08-6.9176s-5.5341 6.9176-5.3364 7.0658c0.19765 0.14824 9.3388 7.2141 9.3388 7.2141z" fill="#b93935"/>
<path d="m126.69 216.39 9.6847-9.0917-11.661-8.7952-8.9929 12.056z" fill="#b93935"/>
<path d="m125.51 198.2 9.8823-8.6964-17.195-9.5858s-11.463 11.068-10.969 11.167c0.49412 0.0988 18.282 7.807 18.282 7.807z" fill="#b93935"/>
<path d="m103.96 172.71c1.4824 0.0988 14.428 8.0047 14.428 8.0047l9.2894-8.3011-14.231-9.3882z" fill="#b93935"/>
<path d="m103.17 156.8 10.376 6.6211 11.958-11.068-11.365-7.0164z" fill="#b93935"/>
<path d="m114.63 146.52c2.1741-0.88941 12.056-11.266 12.056-11.266l-16.602-9.9811-10.278 11.463z" fill="#b93935"/>
<path d="m86.273 212.14c0.39529-0.29647 9.3882-11.661 10.772-11.266s17.986 9.1905 17.986 9.1905l-7.4117 7.7082-11.562-0.0988z" fill="#b93935"/>
<path d="m81.43 192.32s15.367 8.9929 15.713 8.9929c0.34588 0 10.327-10.475 10.327-10.475l-14.329-7.6094z" fill="#b93935"/>
<path d="m80.442 176.46c1.9765 0.19765 13.242 6.72 13.242 6.72l9.6847-11.266-11.562-4.447z" fill="#b93935"/>
<path d="m78.07 158.97c1.7788 0.79059 13.835 8.9929 13.835 8.9929l11.167-11.068-14.626-8.0047z" fill="#b93935"/>
<path d="m75.402 139.8c0.59294 0.29647 13.242 9.2894 13.242 9.2894l11.562-11.266-13.638-9.9811z" fill="#b93935"/>
<path d="m61.863 213.03c1.1859-0.19764 11.266-9.2894 11.266-9.2894l12.649 8.1035-4.9412 5.1388-15.219-0.3953z" fill="#b93935"/>
<path d="m59.047 194.6c1.3341 0.59294 13.341 9.7835 13.588 9.7341 0.24706-0.0494 8.9929-11.365 8.9929-11.365l-12.452-5.5341z" fill="#b93935"/>
<path d="m55.835 179.77c0.39529 0 13.44 7.807 13.44 7.807l11.958-10.673-13.588-7.56z" fill="#b93935"/>
<path d="m53.957 162.48c0.64235 0.14824 13.242 7.1647 13.44 7.2635 0.19765 0.0988 11.167-11.019 11.167-11.019l-14.379-6.9176z" fill="#b93935"/>
<path d="m53.414 145.88c1.5318 0.39529 10.525 6.9176 10.525 6.9176s13.094-11.118 12.551-11.562c-0.54353-0.44471-10.376-8.3011-10.376-8.3011z" fill="#b93935"/>
<path d="m31.306 134.31c1.6771 0.69878 12.718 7.5469 12.718 7.5469l6.1493-9.783-12.438-4.053z" fill="#b93935"/>
<path d="m32.144 151.22 10.901-9.9227 9.783 5.3108-9.5035 10.202z" fill="#b93935"/>
<path d="m29.628 167.15 13.417-10.062 10.901 6.0096-9.783 12.159-13.976-7.8264" fill="#b93935"/>
<path d="m36.896 181.83s6.2891-8.036 7.3372-7.7565c1.0482 0.27952 12.089 6.0096 12.089 6.0096l-8.3155 10.062z" fill="#b93935"/>
<path d="m48.635 206.56 11.25-10.971-12.299-6.4288s-12.438 9.0143-11.74 9.0143c0.69878 0 12.788 8.3854 12.788 8.3854z" fill="#b93935"/>
<path d="m40.599 213.27c0.27951 0.0699 8.2457-7.2674 8.2457-7.2674l12.648 7.8264-5.8698 3.5638-9.8529-0.27951z" fill="#b93935"/>
<path d="m21.346 214.71c1.3835-0.3953 9.2894-10.574 9.2894-10.574l9.2894 9.1905-3.6565 3.9529h-10.08z" fill="#b93935"/>
<path d="m19.765 196.92c1.0871-0.19765 6.6211-6.0282 6.6211-6.0282l10.278 7.0164-6.3247 6.8188z" fill="#b93935"/>
<path d="m13.638 183.77c0.49412-0.19765 10.278-10.871 10.278-10.871l11.859 8.7953-9.2894 8.9929-1.7788 1.3835z" fill="#b93935"/>
<path d="m14.823 168.56s3.8541-7.7082 5.2376-7.4117c1.3835 0.29647 10.673 6.4235 10.673 6.4235l-7.3129 6.2258z" fill="#b93935"/>
<path d="m15.315 159.27c0.12177-0.79383 0.81028-9.8823 0.81028-9.8823l5.7148-6.3247 10.08 8.2023-12.155 11.068z" fill="#b93935"/>
<path d="m16.899 136.83 6.8188-6.9176 7.4117 4.6447-11.167 10.179z" fill="#b93935"/>
<path d="m18.565 126.58 1.5812-2.4212 8.1035 1.2353-4.3482 3.2612z" fill="#b93935"/>
<path d="m11.474 206.4c1.5812 0.59294 9.1796 7.807 9.1796 7.807l-3.7553 3.1623-6.3776-0.0808z" fill="#b93935"/>
<path d="m11.817 202.75s0.43229-5.8573 0.83254-10.673c5.8158 3.8843 7.5106 4.993 7.5106 4.993z" fill="#b93935"/>
<path d="m160.11 122.97c-0.48915 0.41927-8.1598 4.7722-8.1598 4.7722l-8.1408-7.1276 8.3525-2.3934c1.0874 0.41753 2.2674 0.79031 3.2772 1.3744 1.8032 1.1876 1.7795 1.1898 4.6709 3.3744z" fill="#b93935"/>
<path d="m26.554 121.87 11.332 6.1282 5.2859-4.1745-11.983-3.7528z" fill="#b93935"/>
<path d="m17.909 125.77s40.66-20.014 77.743-20.07c37.083-0.0564 78.575 22.699 78.575 22.699s-25.638 10.333-78.201 10.683c-52.563 0.35003-78.117-13.311-78.117-13.311z" fill="#efd3d5" opacity=".72043"/>
<path transform="translate(4.6554 2.3759)" d="m157.65 104.26c0 8.5676-9.0728 15.513-20.265 15.513-11.192 0-20.265-6.9454-20.265-15.513s9.0728-15.513 20.265-15.513c11.192 0 20.265 6.9454 20.265 15.513z" fill="#e69f16"/>
<path d="m143.57 112.93c-0.01 3.0761 13.114-2.1507 8.9444-10.656-1.7485-3.5665-10.473-2.4046-9.2643 0.26238 4.085 9.0159 5.5579 2.6395 5.5579 2.6395" fill="none" stroke="#ebbe65" stroke-width="1.6"/>
<path transform="matrix(-1 0 0 1 181.03 .41927)" d="m157.65 104.26c0 8.5676-9.0728 15.513-20.265 15.513-11.192 0-20.265-6.9454-20.265-15.513s9.0728-15.513 20.265-15.513c11.192 0 20.265 6.9454 20.265 15.513z" fill="#e69f16"/>
<path d="m53.676 112.51c-10.751 2.6568-22.897-0.75314-18.727-9.2589 2.6698-5.4458 9.5384-1.6072 9.5384-1.6072" fill="none" stroke="#ebbe65" stroke-width="1.6"/>
<g transform="translate(-21.718 144.28)">
<path d="m118.34-108.04 55.064 8.6649-8.9444 80.22-46.958 4.4722z" fill="#4063b2"/>
<path d="m63.049-100.24s56.131-9.2894 56.131-8.1035c0 1.1859-0.79059 93.289-0.79059 93.289l-46.842-2.5694z" fill="#6c83c5"/>
<path d="m110.89-93.652-13.375 0.81636-5.0281 22.654-6.1342-21.933-13.877 3.1495v2.712c1.609-0.0081 2.5475 0.26967 2.8157 0.83324 0.26815 0.48838 0.43575 1.2927 0.5028 2.4128l2.4888 49.329c-1.5e-5 0.45202-0.03353 1.0219-0.10056 1.7096-1.5e-5 0.67801-0.1341 1.3379-0.40224 1.9795-0.20114 0.63195-0.60338 1.2555-1.2067 1.8706-0.53634 0.60539-1.3073 1.0566-2.3129 1.3536v2.712l12.369-1.8v-2.599c-1.4749-0.01136-2.5476-0.49558-3.218-1.4527-0.33522-0.55387-0.56987-1.3484-0.70393-2.3836-0.06706-1.0449-0.1341-1.9768-0.20112-2.7957l-2.4888-50.346 9.7544 29.09 3.3185-0.48293 6.7377-33.186-1.0056 55.403c-3e-5 0.60268-0.1006 1.22-0.3017 1.8519-0.20116 0.63195-0.36876 1.146-0.50282 1.5422-0.60341 0.76582-1.7431 1.4213-3.4191 1.9666v2.712l15.285-0.9814v-2.712c-2.2124 0.09597-3.285-1.3676-3.218-4.3907l1.0056-51.109c-4e-5 -0.15059 0.0335-0.64514 0.10056-1.4836 0.067-0.91368 0.26813-1.6586 0.60337-2.2348 0.13404-0.1701 0.26812-0.26495 0.40224-0.28454 0.20108-0.02914 0.43572 0.01235 0.70393 0.12356 0.33516 0.02627 0.67036 0.01573 1.0056-0.03336 0.13404-0.0194 0.26811-0.07661 0.40224-0.17154v-3.842" fill="#b1d8ed"/>
<path d="m155.62-73.314 1.353-14.308-31.802-4.9461-0.10548 2.701c0.82509 0.17738 1.4562 0.4815 1.8932 0.91236 0.5152 0.36527 0.87693 0.78691 1.0852 1.2649 0.20823 0.47814 0.30356 0.94225 0.286 1.3924 0.0606 0.3845 0.0851 0.72678 0.0734 1.0268l-0.66535 48.997c0.0254 1.2848-0.27465 2.1901-0.90028 2.7159-0.55039 0.53515-1.4698 0.83622-2.7583 0.90323l-0.14503 3.7139 29.962 2.6832-0.53582-15.333-3.1616-0.39053c-0.0323 0.82533-0.0992 1.571-0.20081 2.2369-0.0987 0.59095-0.31039 1.1679-0.63489 1.7309-0.6462 1.0511-1.1677 1.8159-1.5646 2.2946-0.32165 0.48802-0.79822 1.07-1.4297 1.7459-1.1848 1.2861-2.2768 2.1313-3.2759 2.5356-0.99621 0.3293-2.2471 0.40096-3.7526 0.21498-1.2797-0.15807-2.2495-0.50403-2.9094-1.0379-0.65993-0.53385-0.92734-1.4339-0.80223-2.7001l1.8219-23.41c0.59632 0.22448 1.1912 0.48644 1.7847 0.78588 0.66866 0.30881 1.2215 0.67866 1.6586 1.1096 0.29521 0.18728 0.80163 0.77757 1.5193 1.7709 0.7205 0.91833 1.2587 1.6633 1.6146 2.235 0.56994 0.89973 0.83296 1.9123 0.78904 3.0377l2.71 0.33474 0.18257-19.202-2.7099-0.33474c-0.0958 0.51594-0.26835 1.0601-0.51759 1.6324-0.2493 0.57238-0.49417 1.0322-0.73462 1.3794-0.87495 1.0982-1.7846 2.1167-2.7289 3.0555-0.86616 0.87313-1.9796 1.301-3.3404 1.2837l1.6254-21.285c0.13971-1.6413 0.37038-2.7059 0.69203-3.194 0.32451-0.56297 1.2395-0.7515 2.7451-0.5656 1.5808 0.19534 2.9602 0.70498 4.1383 1.5289 1.181 0.74906 2.1664 1.6624 2.9564 2.74 0.35876 0.49672 0.71463 1.0684 1.0676 1.7151 0.42817 0.65607 0.85639 1.3121 1.2846 1.9681 0.19356 0.85327 0.31335 1.6597 0.35937 2.4192 0.12121 0.76893 0.24246 1.5378 0.36375 2.3066l2.71 0.33474" fill="#b1d8ed"/>
</g>
</g>
<g transform="matrix(2.07 0 0 2.0987 350.13 -44.034)">
<path d="m17.956 125.81 3.1359 82.537 150.94 7.8264 2.2892-87.848c-56.126-30.018-107.01-28.216-156.37-2.5156z" fill="#efe9e9"/>
<path transform="matrix(1.0138 0 0 1 -179.81 -1.1181)" d="m240.72 114.94c-0.58484 0.98823-20.469 18.562-20.469 18.562s-6.9518 55.108-9.1562 76.656l102.88 5.375c-0.15088-8.5901-1.5991-93.47 0.625-93.094 2.3394 0.39529-73.875-7.5-73.875-7.5z" fill="#d48162"/>
<path transform="matrix(1.0138 0 0 1 -179.81 -1.1181)" d="m346.78 209.03s-5.4898 5.0054-8.1562 7.8125l7.9375 0.40625 0.21875-8.2188z" fill="#b93935"/>
<path d="m171.83 206.7s-14.6-5.5341-13.315-5.9294c1.2847-0.3953 6.8188-7.2141 6.8188-7.2141l6.8378 3.0635z" fill="#b93935"/>
<path d="m169.48 176.56c-0.49411 0.19764-13.242 11.167-13.242 11.167l8.6964 6.4235 7.6274-7.807 0.22162-7.807z" fill="#b93935"/>
<path d="m164.54 158.97-8.9929 9.2894 13.835 7.807 3.6624-3.9529 0.23855-8.4z" fill="#b93935"/>
<path d="m160.98 141.18-10.08 9.0917 13.44 8.3011 8.4-10.475z" fill="#b93935"/>
<path d="m148.83 131.54c0.54353 0.19765 12.207 9.7361 12.207 9.7361l8.4-8.647-17.392-5.0844c-0.53404 0.8663-1.3002 1.7118-3.2152 3.9953z" fill="#b93935"/>
<path d="m169.58 132.68c0.19764-0.0494 4.4964-4.447 4.4964-4.447l0.0494 6.72z" fill="#b93935"/>
<path transform="matrix(1.0138 0 0 1 -179.81 -1.1181)" d="m323.97 213.56c-0.17365 0.044-1.3001 1.1655-2.4688 2.375l6.3125 0.34375c-1.7903-1.3841-3.6301-2.7729-3.8438-2.7188z" fill="#b93935"/>
<path d="m148.56 212.04 10.154-10.673-9.9811-5.9294-10.574 10.08z" fill="#b93935"/>
<path d="m149.03 195.44c0.88941 0.0988 6.9176-7.6094 6.9176-7.6094l-13.736-6.9176-6.127 8.4z" fill="#b93935"/>
<path d="m129.06 172.61c0.39529 0.0988 13.44 8.3011 13.44 8.3011l11.661-12.155-14.527-8.1035z" fill="#b93935"/>
<path d="m139.74 160.75c0.49411-0.29647 9.6846-10.475 9.6846-10.475l-13.44-7.7082-9.5858 9.0917z" fill="#b93935"/>
<path d="m136.67 141.82 6.0776-7.3623-10.08-6.9176s-5.5341 6.9176-5.3364 7.0658c0.19765 0.14824 9.3388 7.2141 9.3388 7.2141z" fill="#b93935"/>
<path transform="matrix(1.0138 0 0 1 -179.81 -1.1181)" d="m300.38 199.62-8.875 12.062 5.5312 2.9688 7.8438 0.40625 7-6.6562-11.5-8.7812z" fill="#b93935"/>
<path d="m125.51 198.2 9.8823-8.6964-17.195-9.5858s-11.463 11.068-10.969 11.167c0.49412 0.0988 18.282 7.807 18.282 7.807z" fill="#b93935"/>
<path d="m103.96 172.71c1.4824 0.0988 14.428 8.0047 14.428 8.0047l9.2894-8.3011-14.231-9.3882z" fill="#b93935"/>
<path d="m103.17 156.8 10.376 6.6211 11.958-11.068-11.365-7.0164z" fill="#b93935"/>
<path d="m114.63 146.52c2.1741-0.88941 12.056-11.266 12.056-11.266l-16.602-9.9811-10.278 11.463z" fill="#b93935"/>
<path transform="matrix(1.0138 0 0 1 -179.81 -1.1181)" d="m272.94 202c-1.6706 0.29167-9.0574 9.6404-10.156 10.875l25.188 1.3125 2.8438-3s-16.385-8.7922-17.75-9.1875c-0.0426-0.0123-0.0682-0.01-0.125 0z" fill="#b93935"/>
<path d="m81.43 192.32s15.367 8.9929 15.713 8.9929c0.34588 0 10.327-10.475 10.327-10.475l-14.329-7.6094z" fill="#b93935"/>
<path d="m80.442 176.46c1.9765 0.19765 13.242 6.72 13.242 6.72l9.6847-11.266-11.562-4.447z" fill="#b93935"/>
<path d="m78.07 158.97c1.7788 0.79059 13.835 8.9929 13.835 8.9929l11.167-11.068-14.626-8.0047z" fill="#b93935"/>
<path d="m75.402 139.8c0.59294 0.29647 13.242 9.2894 13.242 9.2894l11.562-11.266-13.638-9.9811z" fill="#b93935"/>
<path transform="matrix(1.0138 0 0 1 -179.81 -1.1181)" d="m249.5 204.84s-4.5665 4.1533-7.875 6.9062l20.094 1.0625-12.219-7.9688z" fill="#b93935"/>
<path d="m59.047 194.6c1.3341 0.59294 13.341 9.7835 13.588 9.7341 0.24706-0.0494 8.9929-11.365 8.9929-11.365l-12.452-5.5341z" fill="#b93935"/>
<path d="m55.835 179.77c0.39529 0 13.44 7.807 13.44 7.807l11.958-10.673-13.588-7.56z" fill="#b93935"/>
<path d="m53.957 162.48c0.64235 0.14824 13.242 7.1647 13.44 7.2635 0.19765 0.0988 11.167-11.019 11.167-11.019l-14.379-6.9176z" fill="#b93935"/>
<path d="m53.414 145.88c1.5318 0.39529 10.525 6.9176 10.525 6.9176s13.094-11.118 12.551-11.562c-0.54353-0.44471-10.376-8.3011-10.376-8.3011z" fill="#b93935"/>
<path d="m31.306 134.31c1.6771 0.69878 12.718 7.5469 12.718 7.5469l6.1493-9.783-12.438-4.053z" fill="#b93935"/>
<path d="m32.144 151.22 10.901-9.9227 9.783 5.3108-9.5035 10.202z" fill="#b93935"/>
<path d="m29.628 167.15 13.417-10.062 10.901 6.0096-9.783 12.159-13.976-7.8264" fill="#b93935"/>
<path d="m36.896 181.83s6.2891-8.036 7.3372-7.7565c1.0482 0.27952 12.089 6.0096 12.089 6.0096l-8.3155 10.062z" fill="#b93935"/>
<path d="m48.635 206.56 11.25-10.971-12.299-6.4288s-12.438 9.0143-11.74 9.0143c0.69878 0 12.788 8.3854 12.788 8.3854z" fill="#b93935"/>
<path transform="matrix(1.0138 0 0 1 -179.81 -1.1181)" d="m225.53 207.12s-1.928 1.7824-3.875 3.5625l10.469 0.5625-6.5938-4.125z" fill="#b93935"/>
<path transform="matrix(1.0138 0 0 1 -179.81 -1.1181)" d="m207.56 205.25s-1.688 2.177-3.5938 4.5312l8.5625 0.4375-4.9688-4.9688z" fill="#b93935"/>
<path transform="matrix(1.0138 0 0 1 -179.81 -1.1181)" d="m202.19 192s-2.5918 4.0465-4.4704 5.5l0.0312 1.2188 9.5312 7.125 6.25-6.8125z" fill="#b93935"/>
<path transform="matrix(1.0138 0 0 1 -179.81 -1.1181)" d="m200.94 174.03s-2.0301 2.2254-3.9375 4.3125l0.4375 11.594 4.2812 3.25 1.75-1.375 9.1875-9-11.719-8.7812z" fill="#b93935"/>
<path transform="matrix(1.0138 0 0 1 -179.81 -1.1181)" d="m197.16 162.25c-0.20019-0.0435-0.46462 0.12357-0.75 0.375l0.375 10 3.6875 2.2812 7.1875-6.2188s-9.1354-6.141-10.5-6.4375z" fill="#b93935"/>
<path transform="matrix(1.0138 0 0 1 -179.81 -1.1181)" d="m198.91 144.19-3.0625 3.4375 0.5625 15.5 0.4375 0.3125 12-11.062-9.9375-8.1875z" fill="#b93935"/>
<path transform="matrix(1.0138 0 0 1 -179.81 -1.1181)" d="m200.75 131.03-5.3438 5.4688 0.21875 5.6562 1.4062 3.6875 11.031-10.156-7.3125-4.6562z" fill="#b93935"/>
<path d="m18.966 126.26 1.4434-1.7047 7.8405 0.84001-4.5736 4.4223z" fill="#b93935"/>
<path d="m160.11 122.97c-0.48915 0.41927-8.1598 4.7722-8.1598 4.7722l-8.1408-7.1276 8.3525-2.3934c1.0874 0.41753 2.2674 0.79031 3.2772 1.3744 1.8032 1.1876 1.7795 1.1898 4.6709 3.3744z" fill="#b93935"/>
<path d="m26.554 121.87 11.332 6.1282 5.2859-4.1745-11.983-3.7528z" fill="#b93935"/>
<path d="m17.909 125.77s40.66-20.014 77.743-20.07c37.083-0.0564 78.575 22.699 78.575 22.699s-25.638 10.333-78.201 10.683c-52.563 0.35003-78.117-13.311-78.117-13.311z" fill="#efd3d5" opacity=".72043"/>
<path d="m159.47 109.83c0 9.1851-10.215 16.631-22.815 16.631-4.7068 0-14.465-1.8775-18.098-3.658-6.0928-2.986-4.7173-7.219-4.7173-12.973 0-7.164-5.8298-14.388 2.8835-16.728 2.4582-0.66025 15.034-2.5581 17.806-2.5581 12.6 0 24.941 10.101 24.941 19.286z" fill="#e69f16"/>
<path transform="matrix(-1 0 0 1 177.63 6.8481)" d="m157.65 104.26c0 8.5676-9.0728 15.513-20.265 15.513-11.192 0-20.265-6.9454-20.265-15.513s9.0728-15.513 20.265-15.513c11.192 0 20.265 6.9454 20.265 15.513z" fill="#e69f16"/>
<path d="m53.676 112.51c-10.751 2.6568-22.897-0.75314-18.727-9.2589 2.6698-5.4458 9.5384-1.6072 9.5384-1.6072" fill="none" stroke="#ebbe65" stroke-width="1.6"/>
<path d="m116.99 111.38c-5e-3 1.6439 18.029 5.4287 26.805 3.2038 6.7983-1.7234 6.5171-6.9462 4.9516-11.065-1.3039-3.4308-6.8491-1.6611-7.3161 1.4503-1.5176 10.112 7.7511 2.2204 3.9993 0.15876" fill="none" stroke="#ebbe65" stroke-width="1.6"/>
<g transform="translate(-32.769 143.72)">
<path d="m117.49-108.32 46.909 8.1059-8.9444 80.22-38.804 5.0312z" fill="#4063b2"/>
<path d="m63.049-100.24s56.131-9.2894 56.131-8.1035c0 1.1859-0.79059 93.289-0.79059 93.289l-53.36-3.6875z" fill="#6c83c5"/>
</g>
</g>
<path d="m517.4 59.17-26.324 0.50354v5.4545c1.581 0.20066 3.0039 0.41272 4.2687 0.63621 1.2647 0.06569 2.5295 0.44743 3.7944 1.1452 0.63231 1.693 1.0276 3.3241 1.1858 4.8934 0.15803 1.5696 0.23707 3.2239 0.23715 4.9628l-1.1858 69.809-30.118-77.242-32.016 0.44576v5.4545c0.6324-0.20431 1.581-0.35271 2.8458-0.44542 0.7905-0.05771 1.581-0.03658 2.3715 0.06359 0.94859-0.06928 1.8181-0.05394 2.6087 0.04623 0.7905 1.049 1.2648 2.5953 1.4229 4.6389 0.31618 1.8742 0.55334 3.7541 0.71145 5.6396l4.5059 93.82c-0.15803 2.6993-0.31623 4.7662-0.47431 6.2007-0.15803 1.2764-0.47432 2.5644-0.9486 3.8639-0.79054 1.797-1.8182 3.2951-3.083 4.4943-1.1067 1.0296-2.7668 1.7835-4.9802 2.2617v5.2173l30.593-3.6618v-5.2174c-2.0554 0.15048-3.9526-0.42217-5.6916-1.7178-1.7392-1.4537-3.083-4.8336-4.0316-10.14l-4.5059-83.622 38.893 87.983 9.4861-0.69421 0.71146-107.72c-8e-5 -1.5809 0.0789-3.2467 0.23715-4.9975 0.15803-1.9086 0.79041-3.3778 1.8972-4.4076 0.79041-0.6901 1.9762-1.1721 3.5573-1.4461 1.5809-0.27373 2.9248-0.53011 4.0316-0.76935v-5.4545" fill="#b1d8ed"/>
<path d="m608.99 66.926-26.391-4.4643-0.24921 5.6862c1.5443 0.86946 2.853 1.7031 3.9258 2.5011 1.0796 0.64025 2.2276 1.5292 3.4438 2.6668 1.0243 1.9038 1.4914 3.8824 1.4015 5.9356 0.0672 2.0772 0.14481 3.9174 0.23281 5.5205l0.65181 82.617c0.0325 2.8669-0.25623 5.8442-0.86623 8.9319-0.61017 3.0878-1.6029 5.8792-2.9782 8.3743-1.7106 2.9215-3.8513 4.824-6.422 5.7075-2.564 0.7256-5.3394 0.86275-8.3263 0.41154-3.6159-0.54631-6.4932-1.6965-8.6318-3.4506-2.1387-1.7541-3.778-4.0687-4.918-6.9439-0.69611-2.1721-1.1321-4.8614-1.308-8.0679-0.16915-3.3644-0.18447-6.6261-0.046-9.7852l2.1854-76.942c0.097-2.2112 0.73364-4.1024 1.9103-5.6737 1.3338-1.5473 3.4502-2.897 6.3493-4.0491l0.24922-5.6862-37.197-7.051-0.24922 5.6862 3.9778 1.3165c2.6172 1.6675 3.867 3.8438 3.7493 6.5288l-2.4761 83.576c-0.22849 5.2124 0.039 9.9431 0.80224 14.192 0.92737 4.115 2.4293 7.7603 4.5057 10.936 2.2405 3.0414 5.2947 5.5698 9.1628 7.5852 3.8679 2.0154 8.789 3.4744 14.763 4.377 5.1879 0.78386 9.8499 0.93171 13.986 0.44366 4.1428-0.64602 7.7839-2.4808 10.923-5.5044 2.3186-2.3526 4.2857-5.7123 5.9015-10.079 1.6156-4.3668 2.3873-9.338 2.3153-14.914l-0.70367-81.433c0.25406-2.1874 0.50127-4.217 0.74163-6.0888 0.40434-2.0057 1.0272-3.5811 1.8688-4.726 0.65643-0.53667 1.706-1.0141 3.1487-1.4322 1.5997-0.39415 3.0388-0.73318 4.3174-1.0171l0.24922-5.6862" fill="#b1d8ed"/>
<path d="m879.77 122.3c-7.2135 0.21125-13.377 1.4408-18.298 1.9675-38.835 4.1569-9.2866 5.1242-18.167 35.087-8.8802 29.963-5.5164 48.404 32.333 58.042 37.849 9.6376 93.539 6.0907 104.74-23.086 10.703-27.885-39.821-53.795-76.012-67.88-9.0858-3.536-17.381-4.343-24.594-4.1318zm0.45909 20.265c2.9709 0.0825 5.4956 1.5578 6.2305 4.0006 0.97994 3.2571-1.6143 6.9473-5.7714 8.198-4.157 1.2507-8.2674-0.41565-9.2474-3.6727s1.5488-6.8817 5.7058-8.1324c1.0393-0.31268 2.0921-0.421 3.0824-0.39351z" fill="#e69f16"/>
<path d="m835.72 0 18.666 60.146-90.633-28.828z" fill="#9dc7e5"/>
<path d="m890.19 169.13c-3.2614-0.0489-6.5248 0.0785-9.6409 0.26233-12.464 0.73551-22.823 2.9513-22.823 2.9513l0.78701 3.7383s10.16-2.1694 22.299-2.8857c12.139-0.71631 26.165 0.23854 33.513 5.5746l2.2299-3.0824c-6.699-4.8642-16.581-6.4117-26.365-6.5584z" color="#000000" fill="#ebbe65" style="block-progression:tb;text-indent:0;text-transform:none"/>
<g transform="matrix(2.07 0 0 2.0987 686.12 -76.388)">
<path transform="matrix(1.0138 0 0 1 -342.12 14.298)" d="m372.31 192.17c0.13976-1.3976-4.1927-66.804-3.4939-66.385 0.69878 0.41927 107.33 2.0964 107.33 2.0964l-14.115 71.556z" fill="#eac2cc"/>
<path transform="matrix(1.0138 0 0 1 -342.12 14.298)" d="m471.72 150.31-6.9688 8c0.15276 0.0387 2.3535 1.4229 4.8125 2.9688l2.1562-10.969z" fill="#b93935"/>
<path transform="matrix(1.0138 0 0 1 -342.12 14.298)" d="m471.56 128.28-9.4375 9.0625 10.688 7.4062 2.8125-14.125-4.0625-2.3438z" fill="#b93935"/>
<path transform="matrix(1.0138 0 0 1 -342.12 14.298)" d="m460.47 184.22-8.875 12.062 5.0625 2.7188 5.375 0.4375 2.4062-12.188-3.9688-3.0312z" fill="#b93935"/>
<path transform="matrix(1.0138 0 0 1 -342.12 14.298)" d="m454.03 165.62s-11.3 11.057-10.812 11.156c0.48737 0.0988 18.031 7.8125 18.031 7.8125v-0.6875l4.6562-4.1562 1.3125-6.6562-13.188-7.4688z" fill="#b93935"/>
<path d="m103.96 172.71c1.4824 0.0988 14.428 8.0047 14.428 8.0047l9.2894-8.3011-14.231-9.3882z" fill="#b93935"/>
<path d="m103.17 156.8 10.376 6.6211 11.958-11.068-11.365-7.0164z" fill="#b93935"/>
<path transform="matrix(1.0138 0 0 1 -342.12 14.298)" d="m443.22 127.34 7.3125 4.875c0.89899-0.37286 3.1132-2.4435 5.4062-4.6875-3.9-0.0631-7.2948-0.0976-12.719-0.1875z" fill="#b93935"/>
<path transform="matrix(1.0138 0 0 1 -342.12 14.298)" d="m433.03 186.59c-1.4553 0.25408-7.0234 7.1011-9.2188 9.75l24.656 2 2.4375-2.5625s-16.385-8.7922-17.75-9.1875c-0.0426-0.0123-0.0682-0.01-0.125 0z" fill="#b93935"/>
<path d="m81.43 192.32s15.367 8.9929 15.713 8.9929c0.34588 0 10.327-10.475 10.327-10.475l-14.329-7.6094z" fill="#b93935"/>
<path d="m80.442 176.46c1.9765 0.19765 13.242 6.72 13.242 6.72l9.6847-11.266-11.562-4.447z" fill="#b93935"/>
<path d="m78.07 158.97c1.7788 0.79059 13.835 8.9929 13.835 8.9929l11.167-11.068-14.626-8.0047z" fill="#b93935"/>
<path transform="matrix(1.0138 0 0 1 -342.12 14.298)" d="m413.75 126.81c3.5685 2.5108 11.125 7.9688 11.125 7.9688l7.7188-7.625c-7.9073-0.13476-10.765-0.197-18.844-0.34375z" fill="#b93935"/>
<path transform="matrix(1.0138 0 0 1 -342.12 14.298)" d="m409.59 189.44s-3.0476 2.7331-5.9688 5.25l16.031 1.3125-10.062-6.5625z" fill="#b93935"/>
<path d="m59.047 194.6c1.3341 0.59294 13.341 9.7835 13.588 9.7341 0.24706-0.0494 8.9929-11.365 8.9929-11.365l-12.452-5.5341z" fill="#b93935"/>
<path d="m55.835 179.77c0.39529 0 13.44 7.807 13.44 7.807l11.958-10.673-13.588-7.56z" fill="#b93935"/>
<path d="m53.957 162.48c0.64235 0.14824 13.242 7.1647 13.44 7.2635 0.19765 0.0988 11.167-11.019 11.167-11.019l-14.379-6.9176z" fill="#b93935"/>
<path transform="matrix(1.0138 0 0 1 -342.12 14.298)" d="m395.06 126.47-4.9375 5.0938c1.5108 0.39529 10.375 6.9375 10.375 6.9375s12.942-11.118 12.406-11.562c-8e-3 -7e-3 -0.14397-0.1149-0.15625-0.125-6.303-0.11491-12.155-0.23359-17.688-0.34375z" fill="#b93935"/>
<path transform="matrix(1.0138 0 0 1 -342.12 14.298)" d="m378.53 126.12c0.75267 0.47029 2.3438 1.4375 2.3438 1.4375l0.84375-1.375c-1.1552-0.0265-2.1703-0.0375-3.1875-0.0625z" fill="#b93935"/>
<path d="m32.144 151.22 10.901-9.9227 9.783 5.3108-9.5035 10.202z" fill="#b93935"/>
<path d="m29.628 167.15 13.417-10.062 10.901 6.0096-9.783 12.159-13.976-7.8264" fill="#b93935"/>
<path d="m36.896 181.83s6.2891-8.036 7.3372-7.7565c1.0482 0.27952 12.089 6.0096 12.089 6.0096l-8.3155 10.062z" fill="#b93935"/>
<path d="m48.635 206.56 11.25-10.971-12.299-6.4288s-12.438 9.0143-11.74 9.0143c0.69878 0 12.788 8.3854 12.788 8.3854z" fill="#b93935"/>
<path transform="matrix(1.0138 0 0 1 -342.12 14.298)" d="m371.81 182.5c0.0659 1.1179 0.10141 1.9526 0.15625 2.9062l1.6562-1.7812-1.8125-1.125z" fill="#b93935"/>
<path transform="matrix(1.0138 0 0 1 -342.12 14.298)" d="m370.81 165.94c0.0675 1.1213 0.12169 2.0958 0.1875 3.1875l1.75-1.7188-1.9375-1.4688z" fill="#b93935"/>
<path transform="matrix(1.0138 0 0 1 -342.12 14.298)" d="m427.11 37.516 6.127 81.035-49.412 12.056-5.5341-91.312z" fill="#4063b2"/>
</g>
<path d="m862.34 160.53c-0.55791-4.723-1.6001-8.8427-3.1267-12.359-1.5454-3.6737-3.3675-7.0027-5.4663-9.987-2.2932-3.284-4.9416-6.2159-7.9453-8.7956-2.8468-2.5945-5.832-5.0166-8.9555-7.2665-3.1422-2.4071-6.2937-4.893-9.4544-7.4578-3.0038-2.5795-5.9063-5.6464-8.7076-9.2006-0.91522-1.0272-2.1909-2.4181-3.827-4.1729-1.4792-1.7695-2.9862-3.7752-4.5212-6.0172-1.5536-2.3992-3.0472-4.9634-4.4808-7.6927-1.2767-2.744-2.101-5.6904-2.4729-8.8392-0.59502-5.0378 0.43686-8.3998 3.0956-10.086 2.6587-1.6859 6.0291-2.7234 10.111-3.1123 2.983-0.28398 5.6945 0.49262 8.1343 2.3298 2.5967 1.8225 4.6533 3.7759 6.1697 5.8602 2.8839 2.9096 5.1584 6.0363 6.8235 9.3801 1.6464 3.1866 3.1132 6.8679 4.4003 11.044l6.8855-0.1782-4.7971-40.618-10.251 1.9316c0.16726 1.4171 0.3532 2.9914 0.55781 4.7231 0.34288 1.5596 0.33461 2.834-0.0248 3.8233-0.47109 0.04502-1.4503-0.18013-2.9376-0.67544-1.3305-0.50995-2.9057-1.0763-4.7256-1.6992-1.6631-0.63747-3.4738-1.1814-5.4321-1.6319-1.8015-0.46508-3.3302-0.63789-4.5862-0.51842-4.8858 0.30622-8.9534 1.4898-12.203 3.5504-3.1112 1.8886-5.9724 4.5491-8.5835 7.9818-1.3284 2.1963-2.3241 4.5201-2.9872 6.9712-0.68174 2.294-1.2158 4.4941-1.602 6.6004-0.22932 2.0917-0.32947 3.9321-0.30053 5.5212 0.029 1.5894 0.0806 2.699 0.15489 3.3286 0.35325 2.9914 0.83561 5.7316 1.4472 8.2205 0.5929 2.3317 1.3707 4.8845 2.3334 7.6584 1.0453 2.1294 2.1877 4.4087 3.4273 6.8378 1.3779 2.257 2.8343 4.5063 4.3693 6.7481 1.1465 1.6422 2.5379 3.3405 4.1741 5.095 1.6361 1.7547 3.263 3.4306 4.8806 5.0278 1.599 1.4398 3.1101 2.8084 4.5335 4.1056 1.5617 1.125 2.8694 2.1149 3.9231 2.9697 6.4971 5.2719 11.423 9.34 14.778 12.205 3.3363 2.7072 5.522 4.4095 6.557 5.1069 3.2805 2.2349 5.4621 4.5744 6.5447 7.0185 1.0638 2.2868 1.7167 4.4535 1.9584 6.5001 0.16727 1.417 0.16832 2.7701 2e-3 4.0594-0.64251 5.315-2.3437 9.0592-5.1036 11.232-2.6216 2.001-5.5809 3.1585-8.8779 3.4725-5.8092 0.55334-11.63-1.6785-17.462-6.6952-5.6935-5.1891-11.145-14.381-16.355-27.577l-7.121 0.20064 7.8618 44.386 8.0351-0.52652c0.20252-0.97451 0.20148-2.3276-2e-3 -4.0594-0.0558-0.47227-0.11165-0.94458-0.16726-1.4169-0.0745-0.62971-0.21804-1.1733-0.43076-1.6306 1.1816-0.74936 2.4005-1.1839 3.6566-1.3035 0.78499-0.0747 2.009 0.20672 3.672 0.8443 1.82 0.62271 3.7278 1.3166 5.7234 2.0818 2.134 0.59277 4.3465 1.1781 6.6376 1.7559 2.2724 0.42034 4.2721 0.54838 5.9992 0.38383 5.9661-0.56822 10.477-2.0327 13.532-4.3934 3.2123-2.3756 5.7368-4.5265 7.5734-6.4528 1.9004-2.7283 3.3248-6.1276 4.2731-10.198 1.1051-4.0854 1.3323-8.8832 0.68165-14.393" fill="#b1d8ed"/>
<path d="m811.25 207.19s-35.229-156.23-26.754-168.41c3.3184-4.7702 11.566-2.1562 11.2-10.577-0.18951-4.3614-27.237-27.507-39.613 19.703 4.1814 37.123 16.8 104.97 9.7478 159.28z" fill="#6ca244"/>
<path d="m873.61 306.51-17.047 10.157 8.9335 12.356s-16.194 2.4998-17.127 2.2924c-0.93329-0.20735-81.197-26.962-81.197-26.962l69.686-4.8739z" fill="#4d230b"/>
<path d="m861.43 329.9s2.4675-16.771-12.303-13.967c-29.952 5.6872-36.233-13.965-36.233-14.589l-24.491 3.8863s10.192 14.152 11.659 14.739c1.4665 0.58662 61.368 9.9305 61.368 9.9305z" fill="#8aac56"/>
<path d="m867.51 329.37c-2.9791 13.436-168.1 12.292-179.05-37.357-6.7797-30.757 103.91-121.72 180.02-38.161 11.39 12.504 10.346 41.075 5.291 52.08-4.1272 0.3483-3.9363 0.12697-4.0896 0.41684-28.146-1.2331-55.652 0.41481-83.478 0.62222z" fill="#e69f16"/>
<path d="m747.85 231.83c0-1.1732 0.29331-18.478 0.29331-18.478l4.9862-0.29329s1.7598-17.892 4.6929-17.892c2.9331 0 74.5-2.6398 74.5-2.6398l9.4183 21.536c25.749 4.135 9.2333 21.669 1.7273 17.62-7.0393-2.3464-95.618 0.1467-95.618 0.1467z" fill="#effcff"/>
<path d="m839.86 252.94c0.97954 3.3511-0.58467 6.8095-3.4938 7.7246-2.9091 0.9151-6.0615-1.0596-7.041-4.4107-0.97955-3.3511 0.58466-6.8095 3.4938-7.7246 2.9091-0.91509 6.0614 1.0596 7.041 4.4107z" fill="#342001"/>
<path d="m852.7 252.09c1.4422 2.4939 0.86655 5.5727-1.2858 6.8766-2.1523 1.3039-5.0663 0.33917-6.5085-2.1548-1.4422-2.494-0.86655-5.5727 1.2858-6.8766 2.1523-1.3039 5.0663-0.33918 6.5085 2.1548z" fill="#342001"/>
<path d="m752.89 213.5-1.2037 4.7146s95.646 0.68661 102.08 1.3088c0.72592-1.6592-7.1507-4.2245-7.1507-4.2245-54.249-1.6282-66.607-1.799-93.721-1.799z" fill="#895c5f"/>
<path d="m736.53 251.04c-1.8917-0.59536-3.8685-0.33682-5.837 0.32792-3.937 1.3295-7.9235 4.4008-11.084 8.0012-3.1602 3.6004-5.5884 7.7448-5.5091 11.805 0.0397 2.0302 0.82124 4.0597 2.4922 5.5091 1.671 1.4494 4.0646 2.2929 7.1487 2.6234 7.049 0.75529 15.032 3.2878 21.971 6.3616s12.901 6.778 15.806 9.5753c4.7049 4.5303 13.453 8.7736 24.135 12.986 10.681 4.212 22.838 8.7596 34.867 12.288 24.057 7.0569 39.603 9.6902 39.603 9.6902l1.6734-2.9593s-19.975-4.8284-40.227-10.404c-12.019-3.3088-24.031-8.0134-34.539-12.157-10.508-4.1435-19.071-8.5225-22.889-12.199-3.5233-3.3926-9.7015-7.0983-16.921-10.297-7.2192-3.1984-15.466-5.8076-23.086-6.624-2.5884-0.27734-4.1746-1.0115-5.05-1.7708-0.87534-0.75926-1.1575-1.5784-1.1805-2.7545-0.046-2.3521 1.7318-5.9991 4.5253-9.1818 2.7935-3.1826 6.4888-5.8883 9.4441-6.8863 1.4777-0.49901 2.7162-0.58768 3.5415-0.32792 0.82533 0.25975 1.3898 0.7749 1.9019 2.0987 1.3098 3.3857 1.22 5.4155 0.72142 6.624-0.4986 1.2085-1.4406 1.886-2.8201 2.361-2.759 0.95001-6.624 0.45908-6.624 0.45908l-0.59026 3.7383s4.4069 0.80547 8.4604-0.59026c2.0267-0.69788 4.1201-2.1127 5.1156-4.5253s0.79711-5.5191-0.72142-9.4441c-0.83312-2.1534-2.4369-3.7332-4.3286-4.3285z" color="#000000" fill="#ebbe65" style="block-progression:tb;text-indent:0;text-transform:none"/>
<path d="m769.78 296.76-1.9019 3.2792s5.337 2.9614 15.281 5.3123c9.9441 2.3509 24.619 4.1949 43.745 2.0987 23.748-2.6029 46.827-0.78701 46.827-0.78701l0.32792-3.7383s-23.347-1.9311-47.548 0.72142c-18.684 2.0479-32.944 0.29132-42.498-1.9675s-14.232-4.9188-14.232-4.9188z" color="#000000" fill="#ebbe65" style="block-progression:tb;text-indent:0;text-transform:none"/>
<path d="m819.25 271.88c-2.2963 0.18049-5.1179-1.3885-6.3022-3.5044-1.1843-2.1159-0.28286-3.9775 2.0134-4.158 2.2963-0.18049 5.1179 1.3885 6.3022 3.5044s0.28282 3.9776-2.0134 4.158z" fill="#ebbe65"/>
<path d="m815.19 261.06c-2.4299 0.39141-5.28-1.2404-6.3659-3.6447-1.0859-2.4044 4e-3 -4.6709 2.4334-5.0623 2.4298-0.39147 5.2799 1.2404 6.3658 3.6449 1.0859 2.4044-4e-3 4.6708-2.4334 5.0622z" fill="#ebbe65"/>
<path d="m804.74 267.31c-2.6082-0.30811-4.7929-2.5142-4.8799-4.9274-0.0869-2.4132 1.9568-4.1198 4.565-3.8117 2.6081 0.30808 4.7929 2.5142 4.8799 4.9274 0.0869 2.4132-1.9568 4.1198-4.565 3.8117z" fill="#ebbe65"/>
<path d="m897.37 154.14c2.079 0.1634 4.6336-1.2571 5.7059-3.1729 1.0722-1.9157 0.2561-3.6012-1.8229-3.7646-2.079-0.16341-4.6336 1.2571-5.7059 3.1729-1.0722 1.9157-0.25604 3.6012 1.8229 3.7646z" fill="#ebbe65"/>
<path d="m901.04 144.34c2.2 0.35437 4.7804-1.123 5.7636-3.2998 0.98313-2.1769-4e-3 -4.2289-2.2032-4.5833-2.1999-0.35443-4.7803 1.123-5.7634 3.3-0.98315 2.1769 4e-3 4.2289 2.2032 4.5833z" fill="#ebbe65"/>
<path d="m910.49 150c2.3614-0.27896 4.3394-2.2764 4.4182-4.4612 0.0787-2.1849-1.7717-3.73-4.1331-3.4511s-4.3394 2.2764-4.4182 4.4612c-0.0787 2.1849 1.7717 3.73 4.1331 3.4511z" fill="#ebbe65"/>
</svg>
