<?xml version="1.0" encoding="UTF-8"?>
<svg version="1.1" viewBox="0 0 975.95 302.86">
<g transform="matrix(1.9058 0 0 1.9058 -24.998 -13.749)">
<path d="m81.455 164.05c18.243-0.66246 21.843-1.6533 23.993-6.6036 0.69975-3.7085 1.1283-7.8651-0.40242-11.315-2.1731-4.9127-3.0281-5.9407-7.6302-9.1737-3.4304-2.4099-14.836-4.6651-17.528-4.9918-8.2461-1.0012-36.146 3.0061-41.652 4.4258l-5.1597 1.2378c-6.944 1.6658-15.421 7.3784-17.679 11.913-4.0366 8.1082-2.7867 12.313 4.33 14.565 32.715 1.5888 33.661 0.94873 61.728-0.0577zm-29.899-15.228c-0.8763-1.4179 2.3449-5.121 3.9266-4.5141 1.8922 0.72609 1.8636 1.8173-0.0988 3.7797-1.747 1.747-3.0478 1.9966-3.8278 0.7344zm8.9595-1.7456c-1.9689-1.9689-1.167-3.4174 1.8918-3.4174 3.0166 0 4.0684 2.6511 1.5802 3.9828-1.4138 0.75666-2.2931 0.61347-3.472-0.56536z" fill="#e69f16"/>
<path d="m35.469 154.12c-1.412 0.16362-2.5221 0.82709-3.2188 1.7188s-1.0041 1.9741-1 3.0312c0.0041 1.0571 0.33368 2.1032 0.96875 2.9062s1.6367 1.3404 2.8125 1.2812c1.059-0.0532 1.8597-0.35406 2.4062-0.875s0.76509-1.2068 0.75-1.8438c-0.01509-0.63696-0.21187-1.2257-0.5-1.7188s-0.64976-0.93564-1.1875-1.1562c-1.2919-0.53001-2.553-0.0811-3.0312 0.84375-0.23914 0.46241-0.27975 1.0265-0.0625 1.5312s0.6824 0.91166 1.2812 1.1562c0.36942 0.2153 0.91001 0.0317 1.0719-0.36405 0.1619-0.39574-0.09501-0.90559-0.50941-1.011-0.31005-0.12664-0.42693-0.27783-0.46875-0.375-0.04182-0.0972-0.01193-0.16651 0.03125-0.25 0.08636-0.16698 0.33737-0.44812 1.125-0.125 0.02162 9e-3 0.26364 0.2025 0.4375 0.5s0.30496 0.68187 0.3125 1c0.0075 0.31813-0.06912 0.54782-0.28125 0.75-0.21213 0.20218-0.61451 0.39612-1.4375 0.4375-0.70623 0.0355-1.2091-0.23235-1.5938-0.71875s-0.6221-1.2116-0.625-1.9688c-0.0029-0.75719 0.22791-1.5368 0.6875-2.125s1.1296-1.0024 2.1875-1.125c1.017-0.11785 2.108 0.21291 3.3438 0.8125s2.6066 1.4456 4.1875 2.1875c3.1617 1.4838 7.2233 2.4865 12.625 0.1875 4.7397-2.0173 10.684-1.5216 15.438-0.46875 2.3768 0.5264 4.4586 1.1979 5.9375 1.7188 0.73944 0.26041 1.313 0.46539 1.7188 0.625 0.20289 0.0798 0.3588 0.1437 0.46875 0.1875 0.9851 0.12856 1.1945-0.96682 0.53125-1.375-0.10501-0.0419-0.24086-0.11015-0.4375-0.1875-0.41726-0.16412-1.0208-0.41969-1.7812-0.6875-1.521-0.53563-3.6712-1.2066-6.125-1.75-4.9075-1.0869-11.114-1.6632-16.344 0.5625-5.0203 2.1367-8.4393 1.2362-11.406-0.15625-1.4835-0.6962-2.8189-1.5386-4.1562-2.1875s-2.7034-1.1371-4.1562-0.96875z" color="#000000" fill="#ebbe65" style="block-progression:tb;text-indent:0;text-transform:none"/>
<path transform="matrix(.81388 -.58103 .58103 .81388 -189.93 156.36)" d="m227.78 145.16c0 0.85062-0.80239 1.5402-1.7922 1.5402s-1.7922-0.68956-1.7922-1.5402 0.8024-1.5402 1.7922-1.5402 1.7922 0.68956 1.7922 1.5402z" fill="#ebbe65"/>
<path transform="matrix(.68072 -.48119 .48596 .67403 -149.96 155.95)" d="m227.78 145.16c0 0.85062-0.80239 1.5402-1.7922 1.5402s-1.7922-0.68956-1.7922-1.5402 0.8024-1.5402 1.7922-1.5402 1.7922 0.68956 1.7922 1.5402z" fill="#ebbe65"/>
<path transform="matrix(.80128 -.22995 .23666 .79654 -137.94 83.011)" d="m227.78 145.16c0 0.85062-0.80239 1.5402-1.7922 1.5402s-1.7922-0.68956-1.7922-1.5402 0.8024-1.5402 1.7922-1.5402 1.7922 0.68956 1.7922 1.5402z" fill="#ebbe65"/>
<path transform="matrix(.48119 -.68072 -.67403 -.48596 31.964 371.67)" d="m227.78 145.16c0 0.85062-0.80239 1.5402-1.7922 1.5402s-1.7922-0.68956-1.7922-1.5402 0.8024-1.5402 1.7922-1.5402 1.7922 0.68956 1.7922 1.5402z" fill="#ebbe65"/>
<path transform="matrix(.22995 -.80128 -.79654 -.23666 103.44 364.35)" d="m227.78 145.16c0 0.85062-0.80239 1.5402-1.7922 1.5402s-1.7922-0.68956-1.7922-1.5402 0.8024-1.5402 1.7922-1.5402 1.7922 0.68956 1.7922 1.5402z" fill="#ebbe65"/>
</g>
<g transform="matrix(1.9058 0 0 1.9058 250.59 -14.423)">
<path d="m81.455 164.05c18.243-0.66246 21.843-1.6533 23.993-6.6036 0.69975-3.7085 1.1283-7.8651-0.40242-11.315-2.1731-4.9127-3.0281-5.9407-7.6302-9.1737-3.4304-2.4099-14.836-4.6651-17.528-4.9918-8.2461-1.0012-36.146 3.0061-41.652 4.4258l-5.1597 1.2378c-6.944 1.6658-15.421 7.3784-17.679 11.913-4.0366 8.1082-2.7867 12.313 4.33 14.565 32.715 1.5888 33.661 0.94873 61.728-0.0577zm-29.899-15.228c-0.8763-1.4179 2.3449-5.121 3.9266-4.5141 1.8922 0.72609 1.8636 1.8173-0.0988 3.7797-1.747 1.747-3.0478 1.9966-3.8278 0.7344zm8.9595-1.7456c-1.9689-1.9689-1.167-3.4174 1.8918-3.4174 3.0166 0 4.0684 2.6511 1.5802 3.9828-1.4138 0.75666-2.2931 0.61347-3.472-0.56536z" fill="#e69f16"/>
<path d="m35.469 154.12c-1.412 0.16362-2.5221 0.82709-3.2188 1.7188s-1.0041 1.9741-1 3.0312c0.0041 1.0571 0.33368 2.1032 0.96875 2.9062s1.6367 1.3404 2.8125 1.2812c1.059-0.0532 1.8597-0.35406 2.4062-0.875s0.76509-1.2068 0.75-1.8438c-0.01509-0.63696-0.21187-1.2257-0.5-1.7188s-0.64976-0.93564-1.1875-1.1562c-1.2919-0.53001-2.553-0.0811-3.0312 0.84375-0.23914 0.46241-0.27975 1.0265-0.0625 1.5312s0.6824 0.91166 1.2812 1.1562c0.36942 0.2153 0.91001 0.0317 1.0719-0.36405 0.1619-0.39574-0.09501-0.90559-0.50941-1.011-0.31005-0.12664-0.42693-0.27783-0.46875-0.375-0.04182-0.0972-0.01193-0.16651 0.03125-0.25 0.08636-0.16698 0.33737-0.44812 1.125-0.125 0.02162 9e-3 0.26364 0.2025 0.4375 0.5s0.30496 0.68187 0.3125 1c0.0075 0.31813-0.06912 0.54782-0.28125 0.75-0.21213 0.20218-0.61451 0.39612-1.4375 0.4375-0.70623 0.0355-1.2091-0.23235-1.5938-0.71875s-0.6221-1.2116-0.625-1.9688c-0.0029-0.75719 0.22791-1.5368 0.6875-2.125s1.1296-1.0024 2.1875-1.125c1.017-0.11785 2.108 0.21291 3.3438 0.8125s2.6066 1.4456 4.1875 2.1875c3.1617 1.4838 7.2233 2.4865 12.625 0.1875 4.7397-2.0173 10.684-1.5216 15.438-0.46875 2.3768 0.5264 4.4586 1.1979 5.9375 1.7188 0.73944 0.26041 1.313 0.46539 1.7188 0.625 0.20289 0.0798 0.3588 0.1437 0.46875 0.1875 0.9851 0.12856 1.1945-0.96682 0.53125-1.375-0.10501-0.0419-0.24086-0.11015-0.4375-0.1875-0.41726-0.16412-1.0208-0.41969-1.7812-0.6875-1.521-0.53563-3.6712-1.2066-6.125-1.75-4.9075-1.0869-11.114-1.6632-16.344 0.5625-5.0203 2.1367-8.4393 1.2362-11.406-0.15625-1.4835-0.6962-2.8189-1.5386-4.1562-2.1875s-2.7034-1.1371-4.1562-0.96875z" color="#000000" fill="#ebbe65" style="block-progression:tb;text-indent:0;text-transform:none"/>
<path transform="matrix(.81388 -.58103 .58103 .81388 -189.93 156.36)" d="m227.78 145.16c0 0.85062-0.80239 1.5402-1.7922 1.5402s-1.7922-0.68956-1.7922-1.5402 0.8024-1.5402 1.7922-1.5402 1.7922 0.68956 1.7922 1.5402z" fill="#ebbe65"/>
<path transform="matrix(.68072 -.48119 .48596 .67403 -149.96 155.95)" d="m227.78 145.16c0 0.85062-0.80239 1.5402-1.7922 1.5402s-1.7922-0.68956-1.7922-1.5402 0.8024-1.5402 1.7922-1.5402 1.7922 0.68956 1.7922 1.5402z" fill="#ebbe65"/>
<path transform="matrix(.80128 -.22995 .23666 .79654 -137.94 83.011)" d="m227.78 145.16c0 0.85062-0.80239 1.5402-1.7922 1.5402s-1.7922-0.68956-1.7922-1.5402 0.8024-1.5402 1.7922-1.5402 1.7922 0.68956 1.7922 1.5402z" fill="#ebbe65"/>
<path transform="matrix(.48119 -.68072 -.67403 -.48596 31.964 371.67)" d="m227.78 145.16c0 0.85062-0.80239 1.5402-1.7922 1.5402s-1.7922-0.68956-1.7922-1.5402 0.8024-1.5402 1.7922-1.5402 1.7922 0.68956 1.7922 1.5402z" fill="#ebbe65"/>
<path transform="matrix(.22995 -.80128 -.79654 -.23666 103.44 364.35)" d="m227.78 145.16c0 0.85062-0.80239 1.5402-1.7922 1.5402s-1.7922-0.68956-1.7922-1.5402 0.8024-1.5402 1.7922-1.5402 1.7922 0.68956 1.7922 1.5402z" fill="#ebbe65"/>
</g>
<g transform="matrix(1.9058 0 0 1.9058 -24.998 -13.749)">
<path d="m368.89 165.11c18.243-0.66246 21.843-1.6533 23.993-6.6036 0.69975-3.7085 1.1283-7.8651-0.40242-11.315-2.1731-4.9127-3.0281-5.9407-7.6302-9.1737-3.4304-2.4099-14.836-4.6651-17.528-4.9918-8.2461-1.0012-36.146 3.0061-41.652 4.4258l-5.1597 1.2378c-6.944 1.6658-15.421 7.3784-17.679 11.913-4.0366 8.1082-2.7867 12.313 4.33 14.565 32.715 1.5888 33.661 0.94873 61.728-0.0577zm-29.899-15.228c-0.8763-1.4179 2.3449-5.121 3.9266-4.5141 1.8922 0.72609 1.8636 1.8173-0.0988 3.7797-1.747 1.747-3.0478 1.9966-3.8278 0.7344zm8.9595-1.7456c-1.9689-1.9689-1.167-3.4174 1.8918-3.4174 3.0166 0 4.0684 2.6511 1.5802 3.9828-1.4138 0.75666-2.2931 0.61347-3.472-0.56536z" fill="#e69f16"/>
<path d="m322.91 155.19c-1.412 0.16362-2.5221 0.82709-3.2188 1.7188s-1.004 1.9741-1 3.0312c4e-3 1.0571 0.33368 2.1032 0.96875 2.9062s1.6367 1.3404 2.8125 1.2812c1.059-0.0532 1.8597-0.35406 2.4062-0.875s0.76509-1.2068 0.75-1.8438c-0.0151-0.63696-0.21187-1.2257-0.5-1.7188s-0.64976-0.93564-1.1875-1.1562c-1.2919-0.53001-2.553-0.0811-3.0312 0.84375-0.23914 0.46241-0.27975 1.0265-0.0625 1.5312s0.6824 0.91166 1.2812 1.1562c0.36942 0.2153 0.91001 0.0317 1.0719-0.36405 0.16189-0.39574-0.095-0.90559-0.50941-1.011-0.31005-0.12664-0.42693-0.27783-0.46875-0.375-0.0418-0.0972-0.0119-0.16651 0.0312-0.25 0.0864-0.16698 0.33737-0.44812 1.125-0.125 0.0216 9e-3 0.26364 0.2025 0.4375 0.5s0.30496 0.68187 0.3125 1c7e-3 0.31813-0.0691 0.54782-0.28125 0.75-0.21213 0.20218-0.61451 0.39612-1.4375 0.4375-0.70623 0.0355-1.2091-0.23235-1.5938-0.71875s-0.6221-1.2116-0.625-1.9688c-3e-3 -0.75719 0.22791-1.5368 0.6875-2.125s1.1296-1.0024 2.1875-1.125c1.017-0.11785 2.108 0.21291 3.3438 0.8125s2.6066 1.4456 4.1875 2.1875c3.1617 1.4838 7.2233 2.4865 12.625 0.1875 4.7397-2.0173 10.684-1.5216 15.438-0.46875 2.3768 0.5264 4.4586 1.1979 5.9375 1.7188 0.73944 0.26041 1.313 0.46539 1.7188 0.625 0.20289 0.0798 0.3588 0.1437 0.46875 0.1875 0.9851 0.12856 1.1945-0.96682 0.53125-1.375-0.10501-0.0419-0.24086-0.11015-0.4375-0.1875-0.41726-0.16412-1.0208-0.41969-1.7812-0.6875-1.521-0.53563-3.6712-1.2066-6.125-1.75-4.9075-1.0869-11.114-1.6632-16.344 0.5625-5.0203 2.1367-8.4393 1.2362-11.406-0.15625-1.4835-0.6962-2.8189-1.5386-4.1562-2.1875s-2.7034-1.1371-4.1562-0.96875z" color="#000000" fill="#ebbe65" style="block-progression:tb;text-indent:0;text-transform:none"/>
<path transform="matrix(.81388 -.58103 .58103 .81388 97.505 157.42)" d="m227.78 145.16c0 0.85062-0.80239 1.5402-1.7922 1.5402s-1.7922-0.68956-1.7922-1.5402 0.8024-1.5402 1.7922-1.5402 1.7922 0.68956 1.7922 1.5402z" fill="#ebbe65"/>
<path transform="matrix(.68072 -.48119 .48596 .67403 137.48 157.01)" d="m227.78 145.16c0 0.85062-0.80239 1.5402-1.7922 1.5402s-1.7922-0.68956-1.7922-1.5402 0.8024-1.5402 1.7922-1.5402 1.7922 0.68956 1.7922 1.5402z" fill="#ebbe65"/>
<path transform="matrix(.80128 -.22995 .23666 .79654 149.5 84.071)" d="m227.78 145.16c0 0.85062-0.80239 1.5402-1.7922 1.5402s-1.7922-0.68956-1.7922-1.5402 0.8024-1.5402 1.7922-1.5402 1.7922 0.68956 1.7922 1.5402z" fill="#ebbe65"/>
<path transform="matrix(.48119 -.68072 -.67403 -.48596 319.4 372.73)" d="m227.78 145.16c0 0.85062-0.80239 1.5402-1.7922 1.5402s-1.7922-0.68956-1.7922-1.5402 0.8024-1.5402 1.7922-1.5402 1.7922 0.68956 1.7922 1.5402z" fill="#ebbe65"/>
<path transform="matrix(.22995 -.80128 -.79654 -.23666 390.88 365.41)" d="m227.78 145.16c0 0.85062-0.80239 1.5402-1.7922 1.5402s-1.7922-0.68956-1.7922-1.5402 0.8024-1.5402 1.7922-1.5402 1.7922 0.68956 1.7922 1.5402z" fill="#ebbe65"/>
</g>
<g transform="matrix(1.9058 0 0 1.9058 -24.998 -13.749)">
<path d="m511.72 161.96c12.749-6.1718 17.307-24.491 9.9769-40.099-5.7983-12.346-13.129-17.953-23.474-17.953-15.222 0-28.531 10.873-33.781 27.598-4.1056 13.08-1.9854 23.813 5.7098 28.905 5.1213 3.3891 10.941 4.3286 25.228 4.073 9.7687-0.17478 12.292-0.56459 16.34-2.524zm-20.222-48.228c0.29798-2.072 1.8834-2.6015 3.1585-2.6481 1.4381-0.0526 2.6083 1.1637 2.5 2-0.23027 1.7777-1.0592 2.7407-3.1305 3.0402-1.3681 0.19779-2.8185-0.37175-2.528-2.392zm9.9604-0.16608c-1.3211-1.5918-0.50464-2.658 2.0356-2.658 1.1667 0 1.8333 0.72727 1.8333 2 0 2.2803-2.2105 2.6562-3.8689 0.65799z" fill="#e69f16"/>
<path transform="matrix(.48734 -.5406 .34791 .75725 328.98 137.29)" d="m227.78 145.16c0 0.85062-0.80239 1.5402-1.7922 1.5402s-1.7922-0.68956-1.7922-1.5402 0.8024-1.5402 1.7922-1.5402 1.7922 0.68956 1.7922 1.5402z" fill="#ebbe65"/>
<path transform="matrix(.70482 -.73016 .50317 1.0228 253.98 143.43)" d="m227.78 145.16c0 0.85062-0.80239 1.5402-1.7922 1.5402s-1.7922-0.68956-1.7922-1.5402 0.8024-1.5402 1.7922-1.5402 1.7922 0.68956 1.7922 1.5402z" fill="#ebbe65"/>
<path transform="matrix(.82964 -.34893 .24504 1.2087 266.43 32.763)" d="m227.78 145.16c0 0.85062-0.80239 1.5402-1.7922 1.5402s-1.7922-0.68956-1.7922-1.5402 0.8024-1.5402 1.7922-1.5402 1.7922 0.68956 1.7922 1.5402z" fill="#ebbe65"/>
<path d="m514.62 146.21c-0.88421-0.37049-0.64288-8.4725 4.1289-3.8371 3.6042 3.5012-2.4364 8.5496-5.9913 8.0264-5.089-0.74896-10.09-2.3697-15.268-0.28271s-27.509 0.0669-29.521-7.5204c-2.6411-9.9611 5.3451-19.806 5.8915-13.252 0.76232 9.1435-3.8304 8.0594-3.4482 5.6326" fill="none" stroke="#ebbe65" stroke-linecap="round" stroke-linejoin="round" stroke-width="1.5"/>
<path transform="matrix(-.46478 -.7439 -.53178 .81074 692.83 172.11)" d="m227.78 145.16c0 0.85062-0.80239 1.5402-1.7922 1.5402s-1.7922-0.68956-1.7922-1.5402 0.8024-1.5402 1.7922-1.5402 1.7922 0.68956 1.7922 1.5402z" fill="#ebbe65"/>
<path transform="matrix(-.57338 -.76292 -.63667 .81729 735.49 178.63)" d="m227.78 145.16c0 0.85062-0.80239 1.5402-1.7922 1.5402s-1.7922-0.68956-1.7922-1.5402 0.8024-1.5402 1.7922-1.5402 1.7922 0.68956 1.7922 1.5402z" fill="#ebbe65"/>
<path transform="matrix(-.7501 -.4477 -.41468 1.0248 739.76 78.907)" d="m227.78 145.16c0 0.85062-0.80239 1.5402-1.7922 1.5402s-1.7922-0.68956-1.7922-1.5402 0.8024-1.5402 1.7922-1.5402 1.7922 0.68956 1.7922 1.5402z" fill="#ebbe65"/>
</g>
<g transform="translate(31.82 199.4)">
<path d="m556.56 47.869 5.5061-156.82 82.388 4.2825 12.236 156.21-100.13-3.6708" fill="#3659a9"/>
<path d="m632.29-56.063 1.4275-26.103-57.508-1.8354v4.8943c1.4955 0.13609 2.6511 0.54394 3.4668 1.2236 0.95165 0.54395 1.6314 1.2237 2.0393 2.0393 0.40784 0.81585 0.61177 1.6316 0.6118 2.4472 0.13595 0.6799 0.2039 1.2917 0.20393 1.8354l2.2432 88.506c0.13595 2.3112-0.33992 4.0107-1.4275 5.0983-0.9517 1.0877-2.5832 1.8354-4.8943 2.2432v6.7297l54.042-1.8354-2.0393-27.531h-5.7101c-7e-5 1.4955-0.068 2.8551-0.20393 4.0786-0.13596 1.0877-0.47591 2.1753-1.0197 3.2629-1.0877 2.0394-1.9714 3.5348-2.6511 4.4865-0.54388 0.9517-1.3596 2.1073-2.4472 3.4668-2.0394 2.5832-3.9427 4.3506-5.7101 5.3022-1.7674 0.81575-4.0107 1.2236-6.7297 1.2236-2.3113 3e-5 -4.0787-0.40783-5.3022-1.2236-1.2236-0.81569-1.7674-2.3792-1.6314-4.6904l1.6314-42.622c1.0876 0.27198 2.1752 0.61186 3.2629 1.0197 1.2235 0.40793 2.2432 0.95174 3.059 1.6314 0.54376 0.27198 1.4954 1.2237 2.855 2.855 1.3595 1.4956 2.3791 2.7192 3.059 3.6708 1.0876 1.4956 1.6314 3.263 1.6314 5.3022h4.8943l-1.0196-34.668h-4.8943c-0.13596 0.95178-0.40792 1.9714-0.81573 3.059-0.40791 1.0877-0.81577 1.9714-1.2236 2.6511-1.4956 2.1754-3.059 4.2146-4.6904 6.1179-1.4955 1.7675-3.4669 2.7871-5.914 3.059l1.4275-38.747c0.13595-2.9908 0.47578-4.9622 1.0196-5.914 0.54376-1.0875 2.1752-1.6313 4.8943-1.6314 2.855 1.3e-4 5.3701 0.61192 7.5454 1.8354 2.1752 1.0878 4.0106 2.5153 5.5061 4.2826 0.67969 0.81584 1.3595 1.7675 2.0393 2.855 0.81565 1.0877 1.6314 2.1754 2.4472 3.2629 0.40779 1.4956 0.6797 2.9231 0.81572 4.2826 0.27184 1.3596 0.54375 2.7192 0.81573 4.0786h4.8943" fill="#81bbe1"/>
</g>
<g>
<path d="m128.35 243.12-82.388 6.1253-5.5061-166.62 100.13 4.2825-12.236 156.21" fill="#3659a9"/>
<path d="m123.57 116.04-22.636-1.8354v4.6904c2.4471 0.40799 4.1465 1.0878 5.0983 2.0393 0.95161 0.81585 1.5634 1.5636 1.8354 2.2432 0.54374 1.0878 0.88363 2.6512 1.0196 4.6904 0.13589 2.0394 0.20386 3.331 0.20393 3.8747l1.8354 59.548-26.103-67.909-25.287 1.8354v4.6904c0.67975-0.13581 1.4275-0.20381 2.2432-0.20393 0.54379 1.2e-4 1.2236 0.0681 2.0393 0.20393 0.95165 1.2e-4 1.7674 0.0681 2.4472 0.20393 1.2236 1.0878 1.8353 2.8552 1.8354 5.3022l-1.8354 76.882c-2.8e-5 0.54384-0.068 1.8354-0.20393 3.8747-0.13598 1.9034-0.47586 3.4668-1.0197 4.6904-0.6798 1.2236-1.5635 2.2433-2.6511 3.059-0.9517 0.6798-2.3792 1.1556-4.2825 1.4275v4.4865l26.307 1.8354v-4.4865c-1.9034-0.40785-3.4669-1.0196-4.6904-1.8354-1.0877-0.95165-1.9034-2.0393-2.4472-3.2629-0.54385-1.2236-0.88374-2.5151-1.0197-3.8747-0.136-1.3595-0.20397-2.719-0.20393-4.0786l1.8354-68.113 34.668 89.322h8.1572c-0.27198-5.846-0.61187-12.372-1.0196-19.577-0.40794-7.3415-0.8158-14.751-1.2236-22.228-0.40794-7.6134-0.81581-15.023-1.2236-22.228-0.40794-7.3414-0.74782-13.935-1.0196-19.781-0.27199-5.9819-0.54389-10.876-0.81572-14.683-0.13603-3.9426-0.20401-6.3217-0.20393-7.1376-8e-5 -1.0875 0.0679-2.2431 0.20393-3.4668 0.13588-1.3594 0.67969-2.719 1.6314-4.0786 0.27183-0.40774 1.1555-0.67965 2.6511-0.81573 1.4954-0.27178 2.787-0.47571 3.8747-0.61179v-4.6904" fill="#81bbe1"/>
</g>
<g transform="matrix(1.4162 0 0 1.4162 109.55 -343.51)">
<g transform="matrix(.70612 0 0 .70612 -35.692 379.2)">
<path d="m260.53 53.862 10.197-160.7 78.513-4.0786 8.3612 157.64-97.071 7.1376" fill="#3659a9"/>
</g>
<path d="m209.37 358.91-22.032-1.152-0.144 4.752c0.38396-0.096 0.67196-0.14395 0.864-0.144 0.28796 5e-5 0.52796 5e-5 0.72 0 0.95995 5e-5 1.824 0.096 2.592 0.288 0.28795 0.19205 0.52795 0.91205 0.72 2.16 0.19195 1.248 0.33595 2.304 0.432 3.168l-0.72 12.816c-0.096 1.728-0.33605 3.36-0.72 4.896-0.28805 1.536-0.81605 3.216-1.584 5.04-1.152 2.208-2.832 3.312-5.04 3.312-1.44 2e-5 -2.64-0.47998-3.6-1.44-0.86404-1.056-1.536-2.4-2.016-4.032-0.57603-2.112-1.104-4.464-1.584-7.056-0.38403-2.688-0.72003-5.472-1.008-8.352-0.28803-2.88-0.52803-5.712-0.72-8.496-0.096-2.88-0.14403-5.568-0.144-8.064-3e-5 -0.096-3e-5 -0.52795 0-1.296-3e-5 -0.76794-0.048-1.6319-0.144-2.592-3e-5 -1.0559-3e-5 -2.1599 0-3.312-3e-5 -1.2479-3e-5 -2.4479 0-3.6-3e-5 -2.0159 0.096-4.3199 0.288-6.912 0.28797-2.5919 0.71997-5.0399 1.296-7.344 0.57597-2.3039 1.392-4.2239 2.448-5.76 1.056-1.6319 2.4-2.4479 4.032-2.448 4.32 9e-5 7.536 1.8721 9.648 5.616 2.208 3.7441 3.84 8.9281 4.896 15.552h3.888l-1.584-29.52-5.76 0.576 1.008 8.784-4.176-2.304c-1.056-0.57591-2.256-1.0559-3.6-1.44-1.248-0.47991-2.544-0.71991-3.888-0.72-4.32 9e-5 -7.968 1.1041-10.944 3.312-2.88 2.1121-5.28 4.8001-7.2 8.064-1.92 3.0721-3.168 6.7201-3.744 10.944-0.48002 4.1281-0.72002 8.3041-0.72 12.528-2e-5 2.496 0.096 5.136 0.288 7.92 0.28798 2.784 0.71998 5.616 1.296 8.496 0.57598 2.88 1.296 5.76 2.16 8.64 0.95998 2.784 2.112 5.424 3.456 7.92 3.552 6.72 8.736 10.08 15.552 10.08 2.784 1e-5 5.232-0.62399 7.344-1.872 2.112-1.248 4.272-3.312 6.48-6.192l0.144 10.512h4.608c0.38394-8.064 0.67194-14.448 0.864-19.152 0.19194-4.704 0.33594-8.256 0.432-10.656 0.19194-2.4 0.33594-3.984 0.432-4.752 0.0959-0.86395 0.28794-1.44 0.576-1.728 0.76794-0.096 1.4399-0.19195 2.016-0.288 0.67194-0.096 1.3919-0.19195 2.16-0.288l0.432-4.464" fill="#81bbe1"/>
</g>
<g transform="translate(10.253 137.18)">
<path d="m719 166.26 3.4668-167.22 84.835-6.1179 10.196 162.94-98.499 10.4" fill="#3659a9"/>
<path d="m797.25 21.955-61.587 5.7101 1.6314 33.241 5.5061-1.2236c0.27188-3.6706 0.8157-7.3414 1.6314-11.012 0.95165-3.8066 2.1752-6.8656 3.6708-9.1769 1.9033-1.3594 4.4185-2.3111 7.5454-2.855l3.2629 90.545c-0.27195 1.9034-0.81577 3.6028-1.6314 5.0983-0.81576 1.3596-1.9714 2.3112-3.4668 2.855-0.67981 1e-5 -1.4276 1e-5 -2.2432 0-0.67981 1e-5 -1.3596 0.068-2.0393 0.20393v6.5258l32.629-1.6314v-6.5258c-1.2236-0.13596-2.3793-0.40785-3.4668-0.81573-1.0877-0.40783-1.9714-1.1556-2.6511-2.2432-0.54387-1.0876-0.88376-2.3112-1.0196-3.6708-0.13596-1.4955-0.20399-2.6511-0.20393-3.4668l0.20393-89.526 5.5061 0.61179c1.3595 0.54393 2.583 1.6316 3.6708 3.2629 1.0876 1.4956 2.0392 3.331 2.855 5.5061 0.81565 2.1754 1.4954 4.5546 2.0393 7.1376 0.67969 2.4473 1.2235 4.8944 1.6314 7.3415h4.4865l2.0393-35.892" fill="#81bbe1"/>
</g>
<g transform="translate(-119.83 37.163)">
<path d="m984.18 131.65 3.2629-166.82 82.796 4.0786 12.032 152.74-98.091 9.9926" fill="#3659a9"/>
<path d="m1060.8 79.374c-1e-4 -4.0786-0.476-7.6813-1.4276-10.808-0.9517-3.2628-2.1753-6.2538-3.6707-8.973-1.6315-2.9909-3.6029-5.71-5.914-8.1572-2.1753-2.4471-4.4865-4.7583-6.9336-6.9336-2.4473-2.3111-4.8944-4.6903-7.3415-7.1376-2.3113-2.4471-4.4866-5.3021-6.5258-8.5651-0.6798-0.95157-1.6315-2.2431-2.8551-3.8747-1.0876-1.6314-2.1753-3.4667-3.2629-5.5061-1.0876-2.1752-2.1073-4.4864-3.0589-6.9336-0.8158-2.4471-1.2236-5.0302-1.2236-7.7494 0-4.3504 1.2235-7.1374 3.6708-8.3612 2.4471-1.2235 5.4381-1.8352 8.9729-1.8354 2.5831 1.27e-4 4.8263 0.88383 6.7297 2.6511 2.0393 1.7675 3.6027 3.6029 4.6904 5.5061 2.1752 2.7192 3.8067 5.5742 4.8944 8.5651 1.0875 2.8552 1.9712 6.118 2.6511 9.7887l5.914 0.40786v-35.076l-8.973 0.81572c-1e-4 1.2237-1e-4 2.5833 0 4.0786 0.136 1.3597-1e-4 2.4473-0.4079 3.2629-0.4079 1.27e-4 -1.2236-0.27178-2.4471-0.81572-1.0877-0.54369-2.3793-1.1555-3.8747-1.8354-1.3596-0.67964-2.8551-1.2914-4.4865-1.8354-1.4955-0.54367-2.7871-0.81558-3.8747-0.81572-4.2146-0.13581-7.8174 0.54396-10.808 2.0393-2.8551 1.3597-5.5741 3.399-8.1572 6.1179-1.3596 1.7675-2.4472 3.6709-3.2629 5.7101-0.8158 1.9035-1.4955 3.7388-2.0393 5.5061-0.4079 1.7675-0.6798 3.331-0.8157 4.6904-0.136 1.3596-0.204 2.3113-0.204 2.855 0 2.5832 0.136 4.9624 0.4079 7.1376 0.2719 2.0394 0.6797 4.2826 1.2236 6.7297 0.6797 1.9034 1.4275 3.9427 2.2432 6.1179 0.9517 2.0394 1.9713 4.0787 3.059 6.1179 0.8157 1.4956 1.8353 3.059 3.0589 4.6904 1.2236 1.6315 2.4472 3.195 3.6708 4.6904 1.2235 1.3596 2.3791 2.6512 3.4668 3.8747 1.2235 1.0877 2.2432 2.0394 3.059 2.855 5.0302 5.0304 8.8369 8.905 11.42 11.624 2.583 2.5832 4.2825 4.2146 5.0983 4.8943 2.583 2.1753 4.2144 4.3506 4.8943 6.5258 0.6797 2.0394 1.0196 3.9427 1.0196 5.7101 0 1.2236-0.1359 2.3792-0.4078 3.4668-1.0877 4.4865-2.9231 7.5455-5.5061 9.1769-2.4473 1.4955-5.0984 2.2433-7.9533 2.2432-5.0304 3e-5 -9.7888-2.3792-14.275-7.1376-4.3506-4.8943-8.0893-13.187-11.216-24.88l-6.1179-0.40786 2.2432 38.543 6.9337 0.20393c0.2719-0.81571 0.4078-1.9713 0.4078-3.4668v-1.2236c0-0.54379-0.068-1.0196-0.2039-1.4275 1.0876-0.54379 2.1752-0.8157 3.2629-0.81573 0.6797 3e-5 1.6994 0.33992 3.059 1.0197 1.4954 0.67979 3.0589 1.4275 4.6904 2.2432 1.7673 0.67979 3.6027 1.3596 5.5061 2.0393 1.9033 0.54383 3.6027 0.81574 5.0983 0.81572 5.1661 2e-5 9.1768-0.88368 12.032-2.6511 2.9909-1.7674 5.3701-3.3988 7.1375-4.8943 1.9033-2.1752 3.4668-4.9623 4.6905-8.3612 1.3594-3.3988 2.0392-7.4774 2.0393-12.236" fill="#81bbe1"/>
</g>
<g transform="matrix(1.4162 0 0 1.4162 243.05 -291.51)">
<g transform="matrix(.70612 0 0 .70612 -35.692 379.2)">
<path d="m260.53 53.862 10.197-160.7 78.513-4.0786 2.3612 157.64-91.071 7.1376" fill="#3659a9"/>
</g>
<path d="m206.54 364.56-22.032-1.152-0.144 4.752c0.38396-0.096 0.67196-0.14395 0.864-0.144 0.28796 5e-5 0.52796 5e-5 0.72 0 0.95995 5e-5 1.824 0.096 2.592 0.288 0.28795 0.19205 0.52795 0.91205 0.72 2.16 0.19195 1.248 0.33595 2.304 0.432 3.168l-0.72 12.816c-0.096 1.728-0.33605 3.36-0.72 4.896-0.28805 1.536-0.81605 3.216-1.584 5.04-1.152 2.208-2.832 3.312-5.04 3.312-1.44 2e-5 -2.64-0.47998-3.6-1.44-0.86404-1.056-1.536-2.4-2.016-4.032-0.57603-2.112-1.104-4.464-1.584-7.056-0.38403-2.688-0.72003-5.472-1.008-8.352-0.28803-2.88-0.52803-5.712-0.72-8.496-0.096-2.88-0.14403-5.568-0.144-8.064-3e-5 -0.096-3e-5 -0.52795 0-1.296-3e-5 -0.76794-0.048-1.6319-0.144-2.592-3e-5 -1.0559-3e-5 -2.1599 0-3.312-3e-5 -1.2479-3e-5 -2.4479 0-3.6-3e-5 -2.0159 0.096-4.3199 0.288-6.912 0.28797-2.5919 0.71997-5.0399 1.296-7.344 0.57597-2.3039 1.392-4.2239 2.448-5.76 1.056-1.6319 2.4-2.4479 4.032-2.448 4.32 9e-5 7.536 1.8721 9.648 5.616 2.208 3.7441 3.84 8.9281 4.896 15.552h3.888l-1.584-29.52-5.76 0.576 1.008 8.784-4.176-2.304c-1.056-0.57591-2.256-1.0559-3.6-1.44-1.248-0.47991-2.544-0.71991-3.888-0.72-4.32 9e-5 -7.968 1.1041-10.944 3.312-2.88 2.1121-5.28 4.8001-7.2 8.064-1.92 3.0721-3.168 6.7201-3.744 10.944-0.48002 4.1281-0.72002 8.3041-0.72 12.528-2e-5 2.496 0.096 5.136 0.288 7.92 0.28798 2.784 0.71998 5.616 1.296 8.496 0.57598 2.88 1.296 5.76 2.16 8.64 0.95998 2.784 2.112 5.424 3.456 7.92 3.552 6.72 8.736 10.08 15.552 10.08 2.784 1e-5 5.232-0.62399 7.344-1.872 2.112-1.248 4.272-3.312 6.48-6.192l0.144 10.512h4.608c0.38394-8.064 0.67194-14.448 0.864-19.152 0.19194-4.704 0.33594-8.256 0.432-10.656 0.19194-2.4 0.33594-3.984 0.432-4.752 0.0959-0.86395 0.28794-1.44 0.576-1.728 0.76794-0.096 1.4399-0.19195 2.016-0.288 0.67194-0.096 1.3919-0.19195 2.16-0.288l0.432-4.464" fill="#81bbe1"/>
</g>
<g>
<path d="m179.98 301.94 8.803-147.59 71.923-3.5587 9.3649 145.34-90.091 5.8063" fill="#3659a9"/>
<path d="m259.14 171.03-22.84-0.40786v4.8943c1.3595 0.54394 2.5151 1.0878 3.4668 1.6314 0.95161 0.40799 1.9713 1.0198 3.059 1.8354 0.95161 1.4956 1.4274 3.127 1.4275 4.8943 0.13595 1.7675 0.27183 3.331 0.40786 4.6904l3.6708 70.56c0.13581 2.4472-8e-5 5.0303-0.40786 7.7494-0.40793 2.7191-1.1557 5.2342-2.2432 7.5454-1.3596 2.7191-3.127 4.6225-5.3022 5.7101-2.1753 0.95169-4.5545 1.4275-7.1376 1.4275-3.127 1e-5 -5.6421-0.61178-7.5454-1.8354-1.9034-1.2236-3.3989-2.991-4.4865-5.3022-0.67983-1.7674-1.1557-4.0106-1.4275-6.7297-0.27195-2.855-0.4079-5.642-0.40786-8.3612l-1.0196-66.074c-4e-5 -1.9032 0.4758-3.6027 1.4275-5.0983 1.0876-1.4954 2.855-2.9229 5.3022-4.2825v-4.8943l-32.221-1.2236v4.8943l3.4668 0.6118c2.3112 1.0877 3.4668 2.7872 3.4668 5.0983l1.0197 71.784c-3e-5 4.4865 0.40783 8.4971 1.2236 12.032 0.95165 3.3989 2.3792 6.3219 4.2826 8.769 2.0393 2.3112 4.7583 4.0786 8.1572 5.3022 3.3988 1.2236 7.6813 1.8354 12.848 1.8354 4.4864 1e-5 8.497-0.47582 12.032-1.4275 3.5347-1.0876 6.5937-3.1269 9.1769-6.1179 1.9033-2.3112 3.4667-5.4381 4.6904-9.3808 1.2235-3.9426 1.6993-8.2931 1.4275-13.052l-3.6708-69.54c0.13581-1.9032 0.27182-3.6706 0.40786-5.3022 0.27183-1.7673 0.74766-3.1948 1.4275-4.2826 0.54373-0.54369 1.4274-1.0875 2.6511-1.6314 1.3594-0.54369 2.583-1.0195 3.6708-1.4275v-4.8943" fill="#81bbe1"/>
</g>
</svg>
