<?xml version="1.0" encoding="UTF-8"?>
<svg version="1.1" viewBox="0 0 950.18 502.03">
<g transform="translate(-.90737 -.75838)">
<path d="m498.59 296.96c-0.55878-0.55868-0.39097-60.059-0.47102-66.84l-0.14546-12.328-7.6357 0.0199c-7.4217 0.0194-7.6513 0.18129-8.1873 5.7718-0.44622 4.6543-0.0396 5.5554 2.1314 4.7224 1.8482-0.70927 2.6828-0.0421 2.6828 2.1447 0 1.7458-1.1509 3.6158-2.5576 4.1556-1.495 0.57371-2.5575 3.1286-2.5575 6.1501 0 3.4576 0.84663 5.1686 2.5575 5.1686 1.4208 0 2.5576 1.5156 2.5576 3.4101 0 1.8756-1.087 3.4101-2.4155 3.4101-1.3285 0-2.6906 0.8252-3.0267 1.8337-0.71409 2.1421-9.9032 0.29923-9.9032-1.986 0-0.81824 1.9516-1.9775 4.3368-2.5762 5.0894-1.2774 4.6935-4.705-0.63403-5.489-4.334-0.63775-4.7183-2.4574-1.1452-5.4228 1.4066-1.1674 2.5575-3.2754 2.5575-4.6845 0-1.9372-1.2473-2.3125-5.1151-1.5389-5.4466 1.0893-6.291-0.32896-3.4055-5.7205 2.4845-4.6422-0.92892-6.0103-6.2677-2.5121l-4.4081 2.8883 0.80082-5.4568c1.0408-7.0905-2.5592-8.5778-8.1192-3.3544l-4.1759 3.923v-5.1282c0-6.0204-3.9895-7.0006-6.4149-1.576-1.111 2.4849-0.44815 8.1629 2.2059 18.897 2.0868 8.44 3.4586 15.921 3.0484 16.624-1.5023 2.5761-13.636 1.3024-16.243-1.705-3.8114-4.3966-4.2912-37.937-0.54283-37.937 1.4305 0 2.6009-1.1509 2.6009-2.5575 0-2.106-3.2364-2.5826-18.329-2.6996-10.081-0.0781-20.082-0.33547-22.223-0.57185-2.142-0.23636-5.0288 0.40302-6.4152 1.4209-1.5651 1.1489-9.6241 1.6487-21.255 1.318-17.213-0.4894-18.734-0.80085-18.734-3.8363 0-3.1332-1.435-3.3037-27.792-3.3037-18.418 0-28.443 0.65113-29.722 1.9304-1.9632 1.9632-18.889 2.3753-20.75 0.50522-0.56069-0.56328 0.72338-2.4371 2.8536-4.1642 4.0462-3.2804 3.3355-4.9873-1.7361-4.17-2.3782 0.38331-2.7661-0.36515-1.9253-3.7151 0.97291-3.8764 0.69471-4.1052-3.6624-3.0116-4.4284 1.1114-4.6465 0.90902-3.5836-3.3259 1.2041-4.7975-0.34428-5.8263-3.7073-2.4633-1.5914 1.5914-2.046 1.2125-2.046-1.705-4.3117-9.1521-3.9814-0.23298-5.0993 0.50176-0.9597 0.59313-2.2052-0.12107-2.7678-1.5872-1.4573-3.7976-3.4933-3.2957-4.7491 1.1707-0.98438 3.5012-1.2326 3.5757-2.8411 0.85251-2.3655-4.0046-5.0031-3.7799-5.0031 0.42626 0 3.907-1.7307 4.3507-4.9878 1.2788-1.8539-1.7485-2.1052-1.2606-1.3995 2.717 0.77289 4.3559 0.44832 4.7695-3.1964 4.0728-2.6653-0.50951-4.0566 0.0206-4.0566 1.5456 0 1.2766 0.76727 2.3211 1.705 2.3211 0.93779 0 1.705 1.1509 1.705 2.5576 0 1.4209-1.5156 2.5575-3.4101 2.5575-4.2061 0-4.4359 2.6592-0.42626 4.9319 2.7962 1.585 2.7705 1.8488-0.40921 4.1974-3.3137 2.4475-3.2804 2.5575 1.4266 4.7021 4.3474 1.9808 4.5378 2.402 1.9435 4.299-3.6361 2.6588-1.5528 6.3269 2.9278 5.1552 2.8068-0.73396 3.2088-0.22921 2.3962 3.0084-1.3141 5.236 0.57316 6.7147 4.284 3.3564 2.8377-2.5681 3.118-2.4487 4.1794 1.7803 1.0424 4.153 1.3819 4.312 4.0511 1.8964 3.6669-3.3185 5.2024-3.3418 5.2024-0.079 0 1.4066 1.1509 2.5576 2.5576 2.5576 1.4208 0 2.5575-1.5156 2.5575-3.4101 0-4.0496 2.6161-4.5284 4.0681-0.74446 1.3565 3.535 4.457 1.4724 4.457-2.965 0-2.8227 0.83293-3.349 4.2626-2.6934 4.5863 0.87674 5.6929-1.7151 2.2165-5.1914-1.5914-1.5914-1.023-2.046 2.5576-2.046 2.9554 0 4.6036-0.91567 4.6036-2.5576 0-1.4066-0.81255-2.5576-1.8057-2.5576-0.99312 0-1.3315-0.76725-0.7519-1.705 0.57959-0.93777 7.9139-1.705 16.298-1.705 9.0264 0 15.245-0.69548 15.245-1.705 0-0.93778 3.0691-1.705 6.8202-1.705h6.8202v11.935c0 11.549-0.13612 15.935-4.2026 15.935 8.5068 1.9198 8.9098 1.224 12.728 1.7051v-16.788-12.788h7.6727c6.536 0 7.6727 0.5052 7.6727 3.4101 0 3.7318 1.2112 4.0152 14.919 3.4918 8.0044-0.30569 8.9627 0.0327 9.058 3.1983 0.67834 22.535 0.57604 29.12-4.1458 29.688 14.493 1.5534 4.002 0.17128 12.415 0.6683l0.50119-19.392 0.50118-13.392 12.256-0.0365c6.7407-0.0199 12.815-0.59547 13.498-1.2788 0.68331-0.68322 6.869-1.2423 13.746-1.2423h12.504v18.655c0 10.597-0.73642 19.11-1.705 19.709-2.6342 1.628-2.0144 8.8942 0.85254 9.9943 3.0354 1.1648 7.6726-0.34859 7.6726-2.504 0-1.8632 13.114-2.048 14.256-0.20092 0.44927 0.72695-1.5117 6.8992-4.3576 13.716-4.5979 11.013-4.8965 12.718-2.6804 15.302 1.3718 1.5994 3.0195 4.379 3.6616 6.1769 0.91734 2.5682 1.6125 2.824 3.243 1.1935 1.1414-1.1415 2.1713-2.8043 2.2885-3.6952 0.11733-0.89089 0.309-2.3871 0.42622-3.3248 0.34211-2.737 5.0143-1.9632 6.7375 1.1159 2.528 4.5173 7.4351 1.6021 6.1205-3.636-1.2173-4.8498-0.44703-5.2227 4.4806-2.1687 2.8195 1.7473 3.7154 1.6871 4.9731-0.3344 0.9152-1.471 0.89418-3.6612-0.0518-5.4293-2.3747-4.4371-1.9822-5.0572 2.4904-3.9346 5.4227 1.361 7.1023-1.8139 3.7038-7.0008-2.6638-4.0653-2.6182-4.1876 1.558-4.1876 2.366 0 4.3505-0.95907 4.41-2.1313 0.0599-1.1722 0.82013-0.35565 1.6905 1.8146 0.87042 2.1702 2.3563 3.4677 3.3021 2.8832 0.94568-0.58448 1.7194 0.0513 1.7194 1.4131 0 1.3617-1.1509 2.9174-2.5575 3.4572-1.5216 0.5839-2.5576 3.1489-2.5576 6.3324 0 4.1815 0.59015 5.1246 2.7 4.315 1.73-0.66389 2.4191-0.27005 1.9182 1.0964-0.42997 1.1728-1.6898 1.9257-2.7997 1.673-1.3708-0.31216-1.8492 1.8747-1.4919 6.8202 0.2969 4.1092 1.3923 7.2796 2.5151 7.2796 6.512 0.0478 0.39849 0.40078 13.899 0.73618zm-158.12-87.835c0.0823-1.9863 0.48584-2.3903 1.0302-1.0301 0.49254 1.2308 0.4319 2.7014-0.1346 3.268-0.56659 0.56655-0.96955-0.4405-0.8955-2.2379zm45.901 1.1006c0-0.87949 1.5346-1.4835 3.4101-1.3422 1.8755 0.14135 3.41 0.86086 3.41 1.5991 0 0.73822-1.5345 1.3422-3.41 1.3422-1.8755 0-3.4101-0.71956-3.4101-1.5991zm-97.187-3.6669c0-0.85482 1.6624-1.5542 3.6943-1.5542 2.0318 0 3.1605 0.53372 2.5082 1.186-1.8428 1.8428-6.2025 2.1016-6.2025 0.36813zm-75.022 94.902c0-3.4146 4.903-3.5109 6.2036-0.12172 1.7799 4.6384 5.7317 2.8751 5.7317-2.5576 0-5.4488 1.4574-6.3857 4.7741-3.0691 3.3611 3.3611 6.2489-0.78889 3.7709-5.4191-2.5975-4.8535-1.0936-6.1887 4.2356-3.7606 3.903 1.7783 4.2698 1.5981 4.2698-2.0982 0-2.224-1.1509-4.4852-2.5576-5.025-3.9587-1.5191-3.0178-4.7798 1.2788-4.4318 6.9429 0.5624 7.3051-0.14135 2.2141-4.3022l-5.0323-4.1129 4.7086-1.7902c5.455-2.074 4.5135-5.2067-1.5648-5.2067-5.1628 0-5.2345-1.1342-0.32563-5.147 5.1519-4.2115 2.188-7.6978-4.4112-5.1888-5.1913 1.9737-5.6744 0.77855-1.8769-4.6431 2.4254-3.4628 2.4152-3.8976-0.11457-4.8684-1.5279-0.5863-3.6471-0.19684-4.7094 0.86546-3.3779 3.3779-6.1905 2.2174-5.3855-2.2221 0.96477-5.3204-2.0357-7.1919-5.9095-3.6861-4.1205 3.729-5.2997 3.4274-5.2997-1.3556 0-6.2538-4.6611-6.9836-5.989-0.93765-1.0767 4.902-5.9463 7.196-5.9463 2.8012 0-3.2747-3.4827-6.1737-6.1754-5.1404-1.2924 0.49594-2.3498 2.6099-2.3498 4.6977 0 5.4358-1.8088 6.504-5.4433 3.2148-4.6296-4.1897-7.8483-0.626-5.0271 5.5658 2.0483 4.4954 2.0365 4.5055-3.9678 3.3791-6.7751-1.271-8.2268 1.6917-3.2616 6.6568 3.1952 3.1952 2.2978 4.683-2.9916 4.9596-5.43 0.28394-5.8771 4.0793-0.75539 6.4129 5.5463 2.5271 5.5913 4.5011 0.13402 5.8708-4.7429 1.1904-4.6659 1.0753-3.2276 4.8233 0.5692 1.4834 2.871 2.697 5.1151 2.697 4.6548 0 5.2553 2.0172 1.5226 5.1151-1.4066 1.1674-2.5576 3.2776-2.5576 4.6893 0 2.0432 1.403 2.3424 6.8792 1.4667l6.8792-1.1-2.5718 4.9732c-2.1221 4.1037-2.1777 5.3002-0.3179 6.8437 1.6953 1.407 3.0159 1.0284 5.329-1.5275 3.8677-4.2738 7.546-1.8111 6.3829 4.2734-0.44703 2.3385-0.10946 4.2518 0.75001 4.2518 2.6462 0 5.6549-3.9212 5.6549-7.3699 0-4.5582 4.398-0.83449 5.8507 4.9537 0.94173 3.7522 1.3712 3.9631 3.5774 1.7569 1.3788-1.3789 2.507-3.7129 2.507-5.1865z" fill="#888d96"/>
<g transform="matrix(1.6722 0 0 1.6722 .2841 -23.216)">
<g transform="translate(0 -.7645)" fill="#888d96">
<path d="m294.16 161.4 31.26 0.33978-0.33978 4.1623-31.345-0.0849z"/>
<path transform="translate(-1.0193 -1.3591)" d="m334.34 165.27c0 2.3691-2.0917 4.2897-4.672 4.2897s-4.672-1.9206-4.672-4.2897c0-2.3691 2.0917-4.2897 4.672-4.2897s4.672 1.9206 4.672 4.2897z"/>
</g>
</g>
</g>
<path d="m696.44 190.53c-0.55423-1.4443-1.7112-2.626-2.571-2.626-0.85983 0-1.5633 1.1817-1.5633 2.626 0 1.4443 1.157 2.626 2.571 2.626 1.5661 0 2.1772-1.0264 1.5633-2.626zm-16.389-10.504c0-1.4443-0.78779-2.626-1.7506-2.626s-1.7507 1.1817-1.7507 2.626c0 1.4443 0.7878 2.626 1.7507 2.626s1.7506-1.1817 1.7506-2.626zm29.761 0c0-1.4443-0.76306-2.626-1.6957-2.626-0.93262 0-1.2422 1.1817-0.68802 2.626 0.55423 1.4443 1.3173 2.626 1.6957 2.626 0.37839 0 0.68801-1.1817 0.68801-2.626zm-46.646-0.14498c3.1081-1.1926 1.8424-5.9823-1.5809-5.9823-2.9326 0-4.8459 2.9405-3.4173 5.252 1.2637 2.0447 1.4879 2.0775 4.9982 0.73044zm29.773-6.8576c-0.55424-1.4443-1.7112-2.626-2.571-2.626-0.85984 0-1.5634 1.1817-1.5634 2.626 0 1.4443 1.157 2.626 2.571 2.626 1.5661 0 2.1772-1.0264 1.5634-2.626zm-12.888-6.1273c0-0.96286-0.8343-1.7506-1.854-1.7506s-1.3671 0.78779-0.77201 1.7506c0.59509 0.96285 1.4294 1.7506 1.854 1.7506 0.4246 0 0.77201-0.78779 0.77201-1.7506zm22.758-9.6286c0-1.4443-0.78779-2.626-1.7506-2.626s-1.7507 1.1817-1.7507 2.626 0.7878 2.626 1.7507 2.626 1.7506-1.1817 1.7506-2.626zm-28.01-6.8993c0-1.8478-3.3597-2.6241-4.359-1.0072-0.60478 0.97856 0.12843 1.7792 1.6297 1.7792 1.5011 0 2.7293-0.34741 2.7293-0.77201z" fill="#8f9396"/>
<path d="m950.02 311.32v-26.705h-207.11l-40.234 14.5z" fill="#708dbd"/>
<path d="m816.94 299.44 41.623-14.95 7.614 0.0849-41.924 15.12z" fill="#8eb7e3"/>
<path d="m892.94 299.61 41.623-14.95 7.614 0.0849-41.924 15.12z" fill="#8eb7e3"/>
<g transform="matrix(1.6722 0 0 1.6722 239.74 354.45)">
<path d="m20.562-196.15 4 72.6-46.4 4.1 0.3-79.8 42.1 3.1" fill="#3659a9"/>
<path d="m2.8625-161.75c-1.2-1.2-2.3667-2.5333-3.5-4-1.0667-1.5333-2-3.0333-2.8-4.5-0.86669-1.5333-1.6-3.1-2.2-4.7-0.53335-1.6-0.80002-3.1333-0.8-4.6-1.95e-5 -1.5999 0.33331-2.8999 1-3.9 0.66665-0.99994 1.9666-1.4999 3.9-1.5 1.3333 6e-5 2.4666 0.33339 3.4 1 0.9333 0.66673 1.8333 1.6667 2.7 3 0.3333 0.53339 0.69997 1.0667 1.1 1.6 0.39997 0.46672 0.79997 1 1.2 1.6 0.19997 0.33339 0.39997 0.90005 0.6 1.7 0.26663 0.73338 0.46663 1.4667 0.6 2.2l2.9 0.2 0.9-15-4.4-0.1c-0.13337 0.26673-0.20003 0.7334-0.2 1.4v1.7c-3.32e-5 0.46673-0.23337 0.70006-0.7 0.7-0.20003 6e-5 -0.60003-0.13327-1.2-0.4-0.53336-0.26661-1.2-0.56661-2-0.9-0.73336-0.33327-1.5-0.63327-2.3-0.9-0.80003-0.2666-1.5-0.39994-2.1-0.4-2.1334 6e-5 -3.8 0.40006-5 1.2-1.2 0.73339-2.2334 1.6667-3.1 2.8-0.73335 0.93339-1.3 1.9001-1.7 2.9-0.40002 0.93339-0.70001 1.8334-0.9 2.7-0.20001 0.86672-0.33335 1.6334-0.4 2.3-0.06668 0.66672-0.10001 1.1-0.1 1.3-1.4e-5 1.4667 0.03332 2.6334 0.1 3.5 0.13332 0.86671 0.29999 1.9 0.5 3.1 0.26665 1.2 0.53332 2.3334 0.8 3.4 0.26665 1 0.66665 1.9334 1.2 2.8 0.33332 0.6667 0.79998 1.4 1.4 2.2 0.66665 0.73337 1.3666 1.5334 2.1 2.4 0.73331 0.8667 1.5 1.7334 2.3 2.6 0.79998 0.80003 1.5666 1.6 2.3 2.4 1.9333 2.0667 3.7 4.2 5.3 6.4 0.86664 1.3334 1.5333 2.5667 2 3.7 0.46663 1.1334 0.69997 2.3667 0.7 3.7-3.24e-5 0.26668-0.033366 0.73335-0.1 1.4-0.066699 0.60001-0.2667 1.2333-0.6 1.9-0.33336 0.66668-0.8667 1.2667-1.6 1.8-0.6667 0.53334-1.6667 0.80001-3 0.8-1.9334 1e-5 -3.5667-0.49999-4.9-1.5-1.2667-1.0667-2.3334-2.3667-3.2-3.9-0.86668-1.6-1.5667-3.3-2.1-5.1-0.53335-1.8666-0.96668-3.6-1.3-5.2l-3-0.2-0.9 18.9 3.4 0.1c0.13332-0.66666 0.26665-1.2 0.4-1.6 0.19998-0.39999 0.39998-0.86666 0.6-1.4 0.46665-0.26666 0.99998-0.39999 1.6-0.4 0.39998 0.0667 0.93331 0.26667 1.6 0.6 0.66665 0.26667 1.4333 0.60001 2.3 1 0.86664 0.33334 1.7666 0.66667 2.7 1 0.93331 0.26667 1.8 0.40001 2.6 0.4 1.8666 1e-5 3.4333-0.33333 4.7-1 1.2666-0.66666 2.3666-1.5667 3.3-2.7 1.2-1.4667 2.0333-3.0333 2.5-4.7 0.5333-1.6666 0.79996-3.4666 0.8-5.4-3.8e-5 -3.5333-0.83337-6.7666-2.5-9.7-0.73337-1.3333-1.7334-2.7666-3-4.3-1.2667-1.5333-2.5667-3-3.9-4.4" fill="#81bbe1"/>
<g transform="translate(5.7662 .48052)">
<path d="m32.15-121.35 2.7-76.9 40.4 2.1 6 76.6-49.1-1.8" fill="#3659a9"/>
<path d="m68.55-173.05 0.7-12.8-28.2-0.9v2.4c0.73332 0.0667 1.3 0.26673 1.7 0.6 0.46665 0.26673 0.79998 0.60006 1 1 0.19998 0.40006 0.29998 0.80006 0.3 1.2 0.06665 0.33339 0.09999 0.63339 0.1 0.9l1.1 43.4c0.06665 1.1333-0.16668 1.9667-0.7 2.5-0.46668 0.53334-1.2667 0.90001-2.4 1.1v3.3l26.5-0.9-1-13.5h-2.8c-3.6e-5 0.73335-0.03337 1.4-0.1 2-0.0667 0.53335-0.23337 1.0667-0.5 1.6-0.53337 1-0.9667 1.7334-1.3 2.2-0.2667 0.46668-0.6667 1.0334-1.2 1.7-1 1.2667-1.9334 2.1333-2.8 2.6-0.8667 0.40001-1.9667 0.60001-3.3 0.6-1.1334 1e-5 -2-0.19999-2.6-0.6-0.60002-0.39999-0.86669-1.1667-0.8-2.3l0.8-20.9c0.53331 0.13337 1.0666 0.30003 1.6 0.5 0.59997 0.20003 1.1 0.4667 1.5 0.8 0.26664 0.13337 0.7333 0.60003 1.4 1.4 0.66664 0.73336 1.1666 1.3334 1.5 1.8 0.5333 0.73336 0.79997 1.6 0.8 2.6h2.4l-0.5-17h-2.4c-0.0667 0.46671-0.20003 0.96671-0.4 1.5-0.20003 0.53337-0.40003 0.96671-0.6 1.3-0.73336 1.0667-1.5 2.0667-2.3 3-0.73336 0.8667-1.7 1.3667-2.9 1.5l0.7-19c0.06664-1.4666 0.23331-2.4333 0.5-2.9 0.26664-0.53327 1.0666-0.79994 2.4-0.8 1.4 6e-5 2.6333 0.30006 3.7 0.9 1.0666 0.53339 1.9666 1.2334 2.7 2.1 0.3333 0.40006 0.66663 0.86672 1 1.4 0.39996 0.53339 0.79996 1.0667 1.2 1.6 0.19996 0.73339 0.3333 1.4334 0.4 2.1 0.1333 0.66672 0.26663 1.3334 0.4 2h2.4" fill="#81bbe1"/>
</g>
<g transform="translate(13.935 -.96104)">
<path d="m86.838-117.55 4.7-76.6 38.4-2.1 5 80.8-48.1-2.1" fill="#3659a9"/>
<path d="m121.94-145.85-2.3 0.5c-0.20004 1.5334-0.53337 3.0334-1 4.5-0.4667 1.4-1.0334 2.8334-1.7 4.3-0.80003 1.2-1.7667 2.1-2.9 2.7-1.1334 0.60001-2.3 0.90001-3.5 0.9-0.73336 1e-5 -1.4-0.19999-2-0.6-0.53336-0.39999-0.83336-1.1-0.9-2.1l2.3-41.8c-3e-5 -0.46661 0.0666-0.96661 0.2-1.5 0.13331-0.59994 0.33331-1.1333 0.6-1.6 0.26664-0.46661 0.63331-0.86661 1.1-1.2 0.46664-0.33328 1.1-0.49994 1.9-0.5l0.1-2.4-16.1-1.2v2.4c1.3333 0.13339 2.1666 0.66672 2.5 1.6 0.39998 0.86672 0.59998 1.6001 0.6 2.2l-0.7 44.5c-2e-5 1-0.20002 1.8333-0.6 2.5-0.40002 0.60001-1.2333 1-2.5 1.2v2.4l26.2-1.4-1.3-15.4" fill="#81bbe1"/>
</g>
<path d="m-126.89 86.255 5.9-79.8 40.6 2 2.6 78.8-49.1-1" fill="#3659a9"/>
<path d="m-88.555 29.922c-0.27069-1.9815-0.73644-3.6674-1.3973-5.0574-0.66089-1.39-1.6159-2.4707-2.8651-3.2421-1.2583-0.83737-2.8767-1.3565-4.8554-1.5573-1.9127-0.20971-4.2891-0.12062-7.1294 0.26725-0.33028 0.04517-1.1184 0.18646-2.3644 0.42386-1.189 0.16245-2.5716 0.38494-4.1478 0.66745-1.5102 0.27359-3.1195 0.5607-4.8279 0.86126-1.7174 0.23463-3.2321 0.47516-4.5442 0.72158l0.32479 2.3779c0.66954-0.02413 1.174-0.02571 1.5133-0.0048 0.33928 0.02098 0.61702 0.08399 0.83324 0.18898 0.15015 0.11412 0.33187 0.45938 0.54518 1.0358 0.27934 0.56747 0.4506 1.0824 0.51376 1.5447l8.6343 44.743c0.19229 0.91574 0.0979 1.7024-0.28323 2.36-0.32417 0.58257-1.2414 1.0106-2.7515 1.2842l0.32478 2.3779 12.651-1.2232-0.32478-2.3779c-1.0749 0.01225-1.9787-0.20074-2.7114-0.63896-0.73273-0.4382-1.2508-1.2758-1.5543-2.5128l-2.4595-23.18 2.3779-0.32478c1.8495-0.25257 3.5818-0.62375 5.1971-1.1135 1.6813-0.49874 3.2094-1.3803 4.5843-2.6447 0.4923-0.33634 1.0431-0.98351 1.6525-1.9415 0.6663-1.033 1.244-2.2221 1.7332-3.5674 0.55514-1.3542 0.95565-2.8556 1.2015-4.504 0.31187-1.6574 0.35504-3.3118 0.12955-4.9632m-9.5388 1.101c0.28866 2.1138 0.3597 4.3581 0.21312 6.7331-0.14664 2.3751-0.64914 4.3613-1.5075 5.9588-0.48624 0.87388-1.1932 1.6096-2.1208 2.2073-0.87064 0.52266-2.0656 0.88772-3.5848 1.0952l-1.288 0.17592-2.6659-19.519c-0.12633-0.92469-0.0364-1.7444 0.26969-2.4591 0.30609-0.7146 1.0866-1.1576 2.3417-1.3291 1.5853-0.21646 2.8343-0.1852 3.7472 0.09378 0.9128 0.2791 1.6876 0.77886 2.3243 1.4993 0.80485 0.9667 1.3365 1.9034 1.5949 2.81 0.32443 0.89773 0.54982 1.809 0.67615 2.7336" fill="#81bbe1"/>
<path d="m-64.204 87.255 5.9-80.8 40.6 2 2.6 76.8-49.1 2" fill="#3659a9"/>
<path d="m-23.604 44.855c-5e-5 -2.4666-0.0667-4.8333-0.2-7.1-0.13338-2.3333-0.56671-4.9-1.3-7.7-0.53338-2.2666-1.1667-4.1-1.9-5.5-0.73338-1.3999-1.7667-2.6999-3.1-3.9-2.9334-2.7999-6-4.1999-9.2-4.2-1.8 6e-5 -3.4 0.36673-4.8 1.1-1.3334 0.7334-2.5334 1.7334-3.6 3-1.0667 1.2667-2.0334 2.8001-2.9 4.6-0.80002 1.7334-1.6 3.6334-2.4 5.7-0.26668 0.80005-0.53335 1.8667-0.8 3.2-0.26668 1.2667-0.53335 2.6-0.8 4-0.20002 1.4-0.36668 2.7-0.5 3.9-0.13335 1.2-0.20001 2.1-0.2 2.7-1e-5 1.4-1e-5 2.9334 0 4.6-1e-5 1.6667 0.0333 3.3 0.1 4.9 0.0666 1.5334 0.16665 2.9667 0.3 4.3 0.13332 1.3334 0.29998 2.4 0.5 3.2 0.46665 1.7334 1.1333 3.4667 2 5.2 0.93331 1.6667 2 3.1667 3.2 4.5 1.2666 1.3333 2.6333 2.4 4.1 3.2 1.4666 0.8 3.0666 1.2 4.8 1.2 2.9333 0 5.6333-1.1667 8.1-3.5 2.4666-2.3333 4.3666-5.5666 5.7-9.7 1.2666-3.8 2.0666-7.2666 2.4-10.4 0.33329-3.1333 0.49995-5.5666 0.5-7.3m-8.7-1.4c-0.0667 3.6-0.23337 7.1334-0.5 10.6-0.2667 3.4-0.8667 6.9-1.8 10.5-1.1334 4.2667-2.8334 6.4-5.1 6.4-1.2 1e-5 -2.1667-0.69999-2.9-2.1-0.73336-1.4-1.2667-2.8333-1.6-4.3-0.40003-1.8666-0.66669-3.6666-0.8-5.4-0.13336-1.7333-0.20002-3.5666-0.2-5.5-2e-5 -1.2666-2e-5 -2.8333 0-4.7 0.0666-1.9333 0.13331-3.9666 0.2-6.1 0.13331-2.1333 0.26664-4.2666 0.4-6.4 0.19997-2.2 0.43331-4.2333 0.7-6.1 0.46664-3.4 1.2333-5.9333 2.3-7.6 1.1333-1.7333 2.4-2.5999 3.8-2.6 0.79997 6e-5 1.4666 0.26673 2 0.8 0.59997 0.53339 1.1 1.2667 1.5 2.2 0.39996 0.93339 0.7333 2.0334 1 3.3 0.3333 1.2 0.59996 2.5 0.8 3.9 0.3333 1.9334 0.4333 3.9667 0.3 6.1-0.0667 2.0667-0.10004 4.4-0.1 7" fill="#81bbe1"/>
<path d="m4.9831 84.655 5-75.8 38.5-1 4.1 80.4-47.6-3.6" fill="#3659a9"/>
<path d="m34.483 75.355v-2.4c-0.40004-0.13333-0.90003-0.43333-1.5-0.9-0.53337-0.46666-0.9667-0.83332-1.3-1.1-0.2667-0.33332-0.43337-0.83332-0.5-1.5-0.0667-0.73332-0.10003-1.1333-0.1-1.2l2.3-41.4c0.19997-0.93328 0.56663-1.6333 1.1-2.1 0.59996-0.46661 1.3666-0.83328 2.3-1.1v-2.4l-15.6-1.3v2.4c1.2666 0.46672 2.1 1.1001 2.5 1.9 0.46664 0.73339 0.66664 1.8667 0.6 3.4l-0.9 41.9c-0.26669 0.66668-0.66669 1.2667-1.2 1.8-0.46669 0.53334-1.4334 0.93334-2.9 1.2v2.8h15.2" fill="#81bbe1"/>
<path d="m75.171 88.255 4.7-78.8 38.4 4.1 5 71.6-48.1 3.1" fill="#3659a9"/>
<path d="m114.87 26.155-11.8 1v2.4c2.4 0.26672 3.6 1.3 3.6 3.1-4e-5 0.20005-0.0334 0.53338-0.1 1-4e-5 0.40005-0.0334 0.76671-0.1 1.1l-4.3 26.8-8.1-33c-0.13336-0.53328-0.20002-1.1333-0.2-1.8-2e-5 -0.73328 0.26664-1.2333 0.8-1.5 0.53331-0.33328 1.2-0.49994 2-0.5v-2.4l-14.9 2v2.4c0.66665 0.13339 1.2666 0.26672 1.8 0.4 0.53332 0.0667 0.96665 0.26672 1.3 0.6 0.26665 0.40005 0.49998 0.90005 0.7 1.5 0.19998 0.60005 0.36665 1.2334 0.5 1.9l11 48.2h5.3l8.6-45.6c0.26662-1.4 0.69996-2.5666 1.3-3.5 0.59996-0.93328 1.4666-1.5 2.6-1.7v-2.4" fill="#81bbe1"/>
<path d="m188.86 85.255-48.9 2.9 2.6-79.6 40.4 2 5.9 74.7" fill="#3659a9"/>
<path d="m179.36 63.255c0.0666 0.33335 0.0999 0.73335 0.1 1.2-5e-5 0.40002-5e-5 0.76668 0 1.1-5e-5 0.73335-0.10005 1.6-0.3 2.6-0.13338 1-0.30004 1.8667-0.5 2.6-0.13338 0.33334-0.36671 0.66668-0.7 1-0.26671 0.33334-0.60004 0.50001-1 0.5-1.4667 1e-5 -2.2-1.8666-2.2-5.6-4e-5 -0.99998 0.0333-1.8666 0.1-2.6 0.0666-0.73331 0.13329-1.4666 0.2-2.2 0.0666-0.73331 0.13329-1.5 0.2-2.3 0.0666-0.79998 0.1-1.7 0.1-2.7-4e-5 -0.99997-0.10004-2.0333-0.3-3.1-0.20004-1.1333-0.60004-2.1666-1.2-3.1-0.86671-1.1333-1.9-2.1-3.1-2.9-1.2-0.79996-2.8667-1.4666-5-2 2.1333-0.26663 3.8666-0.79996 5.2-1.6 1.4-0.86663 2.5-1.8 3.3-2.8 0.86663-1.0666 1.5-2.1666 1.9-3.3 0.39996-1.1333 0.69996-2.2 0.9-3.2 0.13329-0.53329 0.23329-1.2 0.3-2 0.13329-0.86662 0.19996-1.6 0.2-2.2-4e-5 -1.4-0.26671-2.7666-0.8-4.1-0.53338-1.3333-1.6-2.4666-3.2-3.4-1.1334-0.66661-2.3667-1.1333-3.7-1.4-1.3334-0.26661-3.2667-0.39994-5.8-0.4-1.4667 6e-5 -2.8334 0.0667-4.1 0.2-1.2 0.13339-2.4334 0.30006-3.7 0.5-1.2 0.20006-2.4667 0.43339-3.8 0.7-1.3334 0.26673-2.8334 0.56673-4.5 0.9v2.3c0.93332 0.13339 1.6666 0.33339 2.2 0.6 0.59998 0.20006 0.89998 0.56672 0.9 1.1l1.4 39.5c-2e-5 0.60001-0.20002 1.3334-0.6 2.2-0.40002 0.80001-1.3667 1.3-2.9 1.5v2.3h13v-2.3c-1.2667-0.13332-2.1667-0.53332-2.7-1.2-0.53336-0.73332-0.76669-1.5666-0.7-2.5l0.8-21.1c1.4666 4e-5 2.7 0.1667 3.7 0.5 1.0666 0.2667 1.9333 0.83337 2.6 1.7 0.46663 0.80003 0.7333 1.6 0.8 2.4 0.1333 0.73336 0.19997 1.5 0.2 2.3-3e-5 1-0.10003 1.9-0.3 2.7-0.20003 0.73336-0.30003 1.1667-0.3 1.3l-0.3 7.9c-0.0667 1.8667 0.0333 3.3334 0.3 4.4 0.26663 1 0.7333 2.1 1.4 3.3 1.3333 2.6 3.4666 3.9 6.4 3.9 2.3333 1e-5 4.1666-0.79999 5.5-2.4 1.3333-1.6667 2-4.4333 2-8.3-5e-5 -0.93332-0.0667-1.7333-0.2-2.4l-1.8-0.1m-13.8-19.6c-0.40003 0.40004-0.80003 0.7667-1.2 1.1-0.40003 0.2667-1.0667 0.40004-2 0.4l-2.8-0.3 1-17c0.0666-0.99994 0.29997-1.7666 0.7-2.3 0.39997-0.53328 1.1333-0.79994 2.2-0.8 1.1333 6e-5 2 0.20006 2.6 0.6 0.59997 0.40006 1.1666 1.0334 1.7 1.9 0.39997 0.73339 0.69997 1.5 0.9 2.3 0.26663 0.73339 0.39996 1.6 0.4 2.6-4e-5 0.80005-0.0667 1.7334-0.2 2.8-0.13337 1.0667-0.33337 2.1667-0.6 3.3-0.2667 1.0667-0.63337 2.1-1.1 3.1-0.40003 0.93337-0.93337 1.7-1.6 2.3" fill="#81bbe1"/>
<path d="m208.55 85.355 2.7-76.9 40.4 2.1 6 76.6-49.1-1.8" fill="#3659a9"/>
<path d="m244.95 33.655 0.7-12.8-28.2-0.9v2.4c0.73332 0.0667 1.3 0.26673 1.7 0.6 0.46665 0.26673 0.79998 0.60006 1 1 0.19998 0.40006 0.29998 0.80006 0.3 1.2 0.0666 0.33339 0.1 0.63339 0.1 0.9l1.1 43.4c0.0666 1.1333-0.16669 1.9667-0.7 2.5-0.46668 0.53334-1.2667 0.90001-2.4 1.1v3.3l26.5-0.9-1-13.5h-2.8c-4e-5 0.73335-0.0334 1.4-0.1 2-0.0667 0.53335-0.23337 1.0667-0.5 1.6-0.53337 1-0.9667 1.7334-1.3 2.2-0.2667 0.46668-0.6667 1.0334-1.2 1.7-1 1.2667-1.9334 2.1333-2.8 2.6-0.8667 0.40001-1.9667 0.60001-3.3 0.6-1.1334 1e-5 -2-0.19999-2.6-0.6-0.60003-0.39999-0.86669-1.1667-0.8-2.3l0.8-20.9c0.53331 0.13337 1.0666 0.30003 1.6 0.5 0.59997 0.20003 1.1 0.4667 1.5 0.8 0.26664 0.13337 0.7333 0.60003 1.4 1.4 0.66663 0.73336 1.1666 1.3334 1.5 1.8 0.5333 0.73336 0.79997 1.6 0.8 2.6h2.4l-0.5-17h-2.4c-0.0667 0.46671-0.20003 0.96671-0.4 1.5-0.20003 0.53337-0.40003 0.96671-0.6 1.3-0.73336 1.0667-1.5 2.0667-2.3 3-0.73336 0.8667-1.7 1.3667-2.9 1.5l0.7-19c0.0666-1.4666 0.23331-2.4333 0.5-2.9 0.26664-0.53327 1.0666-0.79994 2.4-0.8 1.4 6e-5 2.6333 0.30006 3.7 0.9 1.0666 0.53339 1.9666 1.2334 2.7 2.1 0.3333 0.40006 0.66663 0.86672 1 1.4 0.39996 0.53339 0.79996 1.0667 1.2 1.6 0.19996 0.73339 0.33329 1.4334 0.4 2.1 0.13329 0.66672 0.26663 1.3334 0.4 2h2.4" fill="#81bbe1"/>
<g transform="translate(-131.78 -198.21)">
<g transform="translate(1.9221 4.2045)">
<path d="m218.36 165.39-22.719 1.8994 1.7-39.66 19.547-0.18182 1.4721 37.943" fill="#3659a9"/>
<path d="m212.09 153.39c-2e-5 1e-5 -2e-5 0.15001 0 0.45-2e-5 0.26668-0.0334 0.60001-0.1 1-0.0334 0.36668-0.10002 0.76668-0.2 1.2-0.0667 0.40001-0.18335 0.76668-0.35 1.1-0.36668 0.70001-0.83335 1.1667-1.4 1.4-0.53335 0.23334-1.0834 0.35001-1.65 0.35-0.56668 1e-5 -1.1334-0.11666-1.7-0.35-0.53335-0.23332-0.95001-0.69999-1.25-1.4-0.10001-0.26666-0.18335-0.58332-0.25-0.95-0.0667-0.36666-0.11668-0.73332-0.15-1.1-0.0333-0.36665-0.05-0.69999-0.05-1-1e-5 -0.29999-1e-5 -0.51665 0-0.65v-18.75c-1e-5 -0.2333 0.0167-0.46663 0.05-0.7 0.0333-0.26663 0.13332-0.49997 0.3-0.7 0.23332-0.2333 0.46665-0.4333 0.7-0.6 0.23332-0.19997 0.43332-0.29997 0.6-0.3v-1.2l-7.9 0.9v1.2c0.1-0.0333 0.21666-0.0666 0.35-0.1 0.13333-0.0666 0.26666-0.1333 0.4-0.2 0.43333 0.1667 0.69999 0.43337 0.8 0.8 0.1 0.33337 0.14999 0.63337 0.15 0.9v18.95c-1e-5 2.3 0.48333 4.0167 1.45 5.15 0.96666 1.1333 2.65 1.7 5.05 1.7 0.89999 1e-5 1.8166-0.11666 2.75-0.35 0.96665-0.23333 1.7833-0.73333 2.45-1.5 0.36665-0.46666 0.64998-0.99999 0.85-1.6 0.19998-0.59999 0.34998-1.1667 0.45-1.7 0.1-0.56665 0.14998-1.05 0.15-1.45 0.0333-0.39999 0.05-0.64999 0.05-0.75l0.45-15.35c-2e-5 -0.39997 0.0333-0.8333 0.1-1.3 0.0667-0.49997 0.18331-0.84997 0.35-1.05 0.16665-0.0666 0.39998-0.1333 0.7-0.2 0.29998-0.1 0.58331-0.14997 0.85-0.15v-1.2l-5.6-0.9v1.2c0.53332 0.10003 1.0666 0.5167 1.6 1.25 0.23331 0.3667 0.36665 0.75003 0.4 1.15 0.0333 0.3667 0.05 0.7667 0.05 1.2l-0.45 15.6" fill="#81bbe1"/>
</g>
<path d="m169.95 125.49 21.391 0.95 0.0993 38.76-23.331 0.95 1.8409-40.66" fill="#3659a9"/>
<path d="m179.9 134.24c0.43332 3e-5 0.79999 0.1667 1.1 0.5 0.33332 0.30003 0.59998 0.70003 0.8 1.2 0.23332 0.4667 0.39998 1 0.5 1.6 0.13332 0.60003 0.23332 1.1667 0.3 1.7 0.0333 0.46669 0.0667 0.98336 0.1 1.55 0.0333 0.56669 0.05 1.15 0.05 1.75 0.0333 0.60002 0.05 1.1834 0.05 1.75-2e-5 0.53336-2e-5 0.98336 0 1.35-2e-5 0.53335-0.0167 1.2-0.05 2-2e-5 0.76669-0.05 1.6167-0.15 2.55-0.0667 0.90002-0.18335 1.8667-0.35 2.9-0.13335 1.0334-0.33335 2.0667-0.6 3.1-0.0667 0.30001-0.16668 0.60001-0.3 0.9-0.10002 0.30001-0.25001 0.58334-0.45 0.85-0.16668 0.23334-0.38335 0.43334-0.65 0.6-0.23335 0.16668-0.51668 0.25001-0.85 0.25-0.60001 1e-5 -1.0834-0.24999-1.45-0.75-0.36668-0.49999-0.63334-1.1167-0.8-1.85-0.10001-0.49999-0.16668-0.98332-0.2-1.45-0.0333-0.49999-0.05-0.83332-0.05-1-1e-5 -0.16665-1e-5 -0.54999 0-1.15 0.0333-0.63332 0.05-1.35 0.05-2.15-1e-5 -0.79998-1e-5 -1.6333 0-2.5 0.0333-0.86665 0.05-1.6333 0.05-2.3-1e-5 -1.0666-1e-5 -2.15 0-3.25 0.0333-1.1 0.1-2.15 0.2-3.15 0.16666-1.5 0.46666-2.7 0.9-3.6 0.43332-0.9333 1.0333-1.4 1.8-1.4m8.5 10.8c-2e-5 -0.99998-0.0667-2.0333-0.2-3.1-0.13336-1.1-0.38335-2.2333-0.75-3.4-0.10002-0.3333-0.25002-0.76664-0.45-1.3-0.16669-0.5333-0.38335-1.0833-0.65-1.65-0.23335-0.56663-0.50002-1.1166-0.8-1.65-0.26669-0.5333-0.56669-0.9833-0.9-1.35-0.53335-0.56663-1.15-1.05-1.85-1.45-0.66668-0.39996-1.4667-0.59996-2.4-0.6-0.73335 4e-5 -1.4667 0.15004-2.2 0.45-0.70001 0.30004-1.3833 0.83337-2.05 1.6-0.30001 0.3667-0.60001 0.80003-0.9 1.3-0.26668 0.50003-0.51668 1.0334-0.75 1.6-0.23334 0.53336-0.45001 1.0834-0.65 1.65-0.20001 0.53336-0.36667 1.0167-0.5 1.45-0.36667 1.1-0.61667 2.1834-0.75 3.25-0.13334 1.0334-0.20001 2.1-0.2 3.2-1e-5 0.63335-1e-5 1.3667 0 2.2 0.0333 0.83335 0.0667 1.6667 0.1 2.5 0.0333 0.80002 0.0833 1.55 0.15 2.25 0.1 0.70001 0.19999 1.2167 0.3 1.55 0.29999 0.93335 0.63333 1.7834 1 2.55 0.36666 0.76668 0.83332 1.4833 1.4 2.15 1.3667 1.5667 2.8833 2.35 4.55 2.35 0.39999 1e-5 0.78332-0.05 1.15-0.15 0.36665-0.1 0.73332-0.23333 1.1-0.4 0.99998-0.46666 1.9-1.2333 2.7-2.3 0.83331-1.1 1.5333-2.5 2.1-4.2 0.49998-1.5666 0.86665-3.0333 1.1-4.4 0.23331-1.3666 0.34998-2.7333 0.35-4.1" fill="#81bbe1"/>
</g>
</g>
<path d="m492.05 247.4 49.433 0.2841 3.6933 99.434-57.607-1.4205z" fill="#f4ecdc"/>
<path d="m506.26 250.53 15.057 6.5342 1.7046 51.99 13.921 5.6819-22.728 25.853-20.739-26.989 11.648-2.5568z" fill="#d91c1c"/>
<path d="m581.85 354.39-1.808-8.2363 90.399-59.462 1.4062 7.2319z" fill="#d91c1c"/>
<path d="m854.94 299.56 41.623-14.95 7.614 0.0849-41.924 15.12z" fill="#8eb7e3"/>
<path d="m776.94 299.56 41.623-14.95 7.614 0.0849-41.924 15.12z" fill="#8eb7e3"/>
<path d="m740.94 299.44 41.623-14.95 7.614 0.0849-41.924 15.12z" fill="#8eb7e3"/>
<path d="m706.94 299.61 41.623-14.95 7.614 0.0849-41.924 15.12z" fill="#8eb7e3"/>
<path d="m950.18 300.28-241.78-2.0089c-21.38-0.22749-23.743 34.468 0 35.037 143 0 240.97 1.1221 240.97 1.1221" fill="#355096"/>
<path d="m934.63 321.34c0 4.1971-3.3706 7.5996-7.5286 7.5996-4.1579 0-7.5285-3.4024-7.5285-7.5996 0-4.1971 3.3706-7.5996 7.5285-7.5996 4.1579 0 7.5286 3.4024 7.5286 7.5996z" fill="#9dadc9"/>
<path d="m901.82 308.95c0 3.5636-2.8619 6.4525-6.3922 6.4525-3.5303 0-6.3921-2.8889-6.3921-6.4525 0-3.5636 2.8619-6.4525 6.3921-6.4525 3.5303 0 6.3922 2.8889 6.3922 6.4525z" fill="#9dadc9"/>
<path d="m876.58 320.94c0 4.1971-3.3706 7.5996-7.5286 7.5996-4.1579 0-7.5285-3.4024-7.5285-7.5996 0-4.1971 3.3706-7.5996 7.5285-7.5996 4.1579 0 7.5286 3.4024 7.5286 7.5996z" fill="#9dadc9"/>
<path d="m844.63 310.21c0 3.8012-3.0527 6.8826-6.8183 6.8826-3.7656 0-6.8183-3.0815-6.8183-6.8826 0-3.8012 3.0526-6.8826 6.8183-6.8826 3.7657 0 6.8183 3.0814 6.8183 6.8826z" fill="#9dadc9"/>
<path d="m817.11 320.74c0 4.1971-3.3706 7.5996-7.5286 7.5996-4.1579 0-7.5285-3.4024-7.5285-7.5996 0-4.1971 3.3706-7.5996 7.5285-7.5996 4.1579 0 7.5286 3.4024 7.5286 7.5996z" fill="#9dadc9"/>
<path d="m784.27 310.35c0 3.722-2.989 6.7392-6.6763 6.7392-3.6872 0-6.6762-3.0173-6.6762-6.7392 0-3.722 2.989-6.7392 6.6762-6.7392 3.6872 0 6.6763 3.0173 6.6763 6.7392z" fill="#9dadc9"/>
<path d="m757.45 320.94c0 4.1971-3.3706 7.5996-7.5286 7.5996-4.1579 0-7.5285-3.4024-7.5285-7.5996 0-4.1971 3.3706-7.5996 7.5285-7.5996 4.1579 0 7.5286 3.4024 7.5286 7.5996z" fill="#9dadc9"/>
<path d="m725.94 316.42c0 7.2481-5.8209 13.124-13.001 13.124-7.1804 0-13.001-5.8758-13.001-13.124 0-7.2482 5.8208-13.124 13.001-13.124 7.1804 0 13.001 5.8758 13.001 13.124z" fill="#9dadc9"/>
<g transform="matrix(1.6722 0 0 1.6722 .2841 -23.216)">
<path d="m393.03 164.35c13.838-2.1374 17.68-4.1402 19.392-10.109 3.6244-12.637-14.264-29.86-33.386-32.144-18.109-2.1629-34.091 3.4328-40.7 14.251-2.4619 4.0292-2.9969 8.8462-1.437 12.938 2.1842 5.7302 12.339 12.865 21.462 15.079 7.2563 1.761 23.216 1.7542 34.669-0.0149zm-36.467-26.424c-1.5338-1.5338-0.65085-4.5365 1.3341-4.5365 2.4667 0 3.4279 1.335 2.5704 3.5696-0.65592 1.7093-2.6646 2.2067-3.9045 0.96687zm-7.8475-2.0739c0.20285-1.0533 1.2306-2.0811 2.2839-2.2839 1.383-0.26635 1.8126 0.16326 1.5463 1.5463-0.20284 1.0533-1.2306 2.0811-2.2839 2.2839-1.383 0.26635-1.8126-0.16326-1.5463-1.5463z" fill="#e69f16"/>
<g transform="matrix(1.9058 0 0 1.9058 -301.49 -202.42)" fill="#ebbe65">
<path d="m352.12 178.06c0.33582 0.47041 0.16432 1.1685-0.38306 1.5593-0.54738 0.39078-1.2634 0.32622-1.5992-0.14419-0.33582-0.4704-0.16431-1.1685 0.38307-1.5593s1.2633-0.32621 1.5992 0.14419z"/>
<path d="m349.3 179.44c0.28088 0.38957 0.13744 0.96772-0.32038 1.2914-0.45782 0.32362-1.0566 0.27015-1.3375-0.11942-0.28088-0.38957-0.13743-0.96772 0.32039-1.2914 0.45782-0.32362 1.0566-0.27016 1.3375 0.11942z"/>
<path d="m351.54 180.85c0.13678 0.46038-0.1892 0.95895-0.7281 1.1136-0.53889 0.15465-1.0866-0.0932-1.2234-0.55357-0.13678-0.46037 0.1892-0.95895 0.7281-1.1136 0.5389-0.15465 1.0866 0.0932 1.2234 0.55357z"/>
</g>
<path d="m345.95 150.67c0.99006-0.41484 0.71984-9.4868-4.6232-4.2965-4.439 7.3113 4.2326 11.144 11.826 8.5603 4.3872-1.4929 9.7614 0.13383 11.979 0.11047 8.4623-0.0891 30.834-3.9168 33.055-12.421 2.7531-10.541-6.5874-10.085-6.5968-4.8389-0.0131 7.3764 4.1508 2.8142 3.861 2.3069" fill="none" stroke="#ebbe65" stroke-linecap="round" stroke-linejoin="round" stroke-width="1.6796"/>
</g>
<g transform="matrix(1.6722 0 0 1.6722 172.92 8.394)">
<path d="m393.03 164.35c13.838-2.1374 17.68-4.1402 19.392-10.109 3.6244-12.637-14.264-29.86-33.386-32.144-18.109-2.1629-34.091 3.4328-40.7 14.251-2.4619 4.0292-2.9969 8.8462-1.437 12.938 2.1842 5.7302 12.339 12.865 21.462 15.079 7.2563 1.761 23.216 1.7542 34.669-0.0149zm-36.467-26.424c-1.5338-1.5338-0.65085-4.5365 1.3341-4.5365 2.4667 0 3.4279 1.335 2.5704 3.5696-0.65592 1.7093-2.6646 2.2067-3.9045 0.96687zm-7.8475-2.0739c0.20285-1.0533 1.2306-2.0811 2.2839-2.2839 1.383-0.26635 1.8126 0.16326 1.5463 1.5463-0.20284 1.0533-1.2306 2.0811-2.2839 2.2839-1.383 0.26635-1.8126-0.16326-1.5463-1.5463z" fill="#e69f16"/>
<g transform="matrix(1.9058 0 0 1.9058 -301.49 -202.42)" fill="#ebbe65">
<path d="m352.12 178.06c0.33582 0.47041 0.16432 1.1685-0.38306 1.5593-0.54738 0.39078-1.2634 0.32622-1.5992-0.14419-0.33582-0.4704-0.16431-1.1685 0.38307-1.5593s1.2633-0.32621 1.5992 0.14419z"/>
<path d="m349.3 179.44c0.28088 0.38957 0.13744 0.96772-0.32038 1.2914-0.45782 0.32362-1.0566 0.27015-1.3375-0.11942-0.28088-0.38957-0.13743-0.96772 0.32039-1.2914 0.45782-0.32362 1.0566-0.27016 1.3375 0.11942z"/>
<path d="m351.54 180.85c0.13678 0.46038-0.1892 0.95895-0.7281 1.1136-0.53889 0.15465-1.0866-0.0932-1.2234-0.55357-0.13678-0.46037 0.1892-0.95895 0.7281-1.1136 0.5389-0.15465 1.0866 0.0932 1.2234 0.55357z"/>
</g>
<path d="m345.95 150.67c0.99006-0.41484 0.71984-9.4868-4.6232-4.2965-4.439 7.3113 4.2326 11.144 11.826 8.5603 4.3872-1.4929 9.7614 0.13383 11.979 0.11047 8.4623-0.0891 30.834-3.9168 33.055-12.421 2.7531-10.541-6.5874-10.085-6.5968-4.8389-0.0131 7.3764 4.1508 2.8142 3.861 2.3069" fill="none" stroke="#ebbe65" stroke-linecap="round" stroke-linejoin="round" stroke-width="1.6796"/>
</g>
<path d="m807.44 155.92-4.4195 10.647 25.111 42.99-15.87 13.258-41.985 3.6159-19.285-13.66 19.687-43.994-8.0354-7.031z" fill="#90b2ca"/>
<path d="m790.77 168.77 14.866 44.597-49.016 4.2186-4.8213-4.4195s17.678-42.387 18.482-42.387c0.80354 0 20.49-2.0089 20.49-2.0089z" fill="#b5ccde"/>
<path d="m762.02 168.5c0.7031 0 51.628-10.547 51.628-10.547-6.1117-24.425-54.252-28.099-51.628 10.547z" fill="#c12923"/>
<path transform="matrix(1.6301 -.37315 .37315 1.6301 -21.015 153.45)" d="m468.58 102.71c0 0.82099-1.0934 1.4865-2.4422 1.4865s-2.4422-0.66555-2.4422-1.4865c0-0.82098 1.0934-1.4865 2.4422-1.4865s2.4422 0.66555 2.4422 1.4865z" fill="#2e3436"/>
<path transform="matrix(1.18 -.14569 .14569 1.18 220.29 95.732)" d="m468.58 102.71c0 0.82099-1.0934 1.4865-2.4422 1.4865s-2.4422-0.66555-2.4422-1.4865c0-0.82098 1.0934-1.4865 2.4422-1.4865s2.4422 0.66555 2.4422 1.4865z" fill="#2e3436"/>
<path transform="matrix(1.1796 -.27003 .27003 1.1796 211.94 148.78)" d="m468.58 102.71c0 0.82099-1.0934 1.4865-2.4422 1.4865s-2.4422-0.66555-2.4422-1.4865c0-0.82098 1.0934-1.4865 2.4422-1.4865s2.4422 0.66555 2.4422 1.4865z" fill="#2e3436"/>
<path d="m820.21 150.22c-0.75512-2.1976-2.2385-2.0736-3.6508-2.0484-0.8597 0.0151-2.0907 1.0812-2.0907 2.5255 0 1.4443 1.6843 2.7264 3.0984 2.7264 1.5661 0 3.2569-1.6039 2.6431-3.2035zm12.749-34.874c0-1.4443-0.76306-2.626-1.6957-2.626-0.93263 0-1.2423 1.1817-0.68803 2.626 0.55423 1.4443 1.3173 2.626 1.6957 2.626 0.3784 0 0.68801-1.1817 0.68801-2.626zm-45.642 9.0849c3.1081-1.1926 1.8424-5.9823-1.5809-5.9823-2.9326 0-4.8459 2.9404-3.4173 5.252 1.2637 2.0447 1.4879 2.0775 4.9982 0.73043zm23.084-0.16868c-0.55423-1.4443-1.7112-2.626-2.571-2.626-0.85983 0-1.5633 1.1817-1.5633 2.626 0 1.4443 1.157 2.626 2.571 2.626 1.5661 0 2.1772-1.0264 1.5633-2.626zm-2.8542-12.816c0-0.96286-0.8343-1.7506-1.854-1.7506s-1.3671 0.78779-0.77201 1.7506c0.59509 0.96284 1.4294 1.7506 1.854 1.7506s0.77201-0.7878 0.77201-1.7506zm19.414-9.6286c0-1.4443-0.7878-2.626-1.7507-2.626s-1.7506 1.1817-1.7506 2.626c0 1.4443 0.78779 2.626 1.7506 2.626s1.7507-1.1817 1.7507-2.626z" fill="#8f9396"/>
<g transform="matrix(1.6722 0 0 1.6722 .85229 -23.784)">
<g transform="translate(-29.221 -2.0387)">
<g transform="translate(28.881 .67956)" fill="#4b4944">
<path d="m367.64 48.513c0.79877 0-5.1236 64.392-6.9442 66.575 0.74326 0.0318 20.196 0.36101 20.196 0.36101s-6.7956-70.334-4.7569-68.805-8.4945 1.8688-8.4945 1.8688z"/>
<path transform="translate(-2.2935 -1.9537)" d="m387.56 50.828c0 4.187-5.7522 7.5813-12.848 7.5813-7.0957 0-12.848-3.3943-12.848-7.5813s5.7522-7.5813 12.848-7.5813c7.0957 0 12.848 3.3943 12.848 7.5813z"/>
<path transform="matrix(1.1901 0 0 1.2825 -73.499 -34.122)" d="m387.56 50.828c0 4.187-5.7522 7.5813-12.848 7.5813-7.0957 0-12.848-3.3943-12.848-7.5813s5.7522-7.5813 12.848-7.5813c7.0957 0 12.848 3.3943 12.848 7.5813z"/>
<path transform="translate(.21236 .29731)" d="m383.78 41.101c0 1.5833-5.5525 2.8669-12.402 2.8669s-12.402-1.2835-12.402-2.8669 5.5525-2.8669 12.402-2.8669 12.402 1.2835 12.402 2.8669z"/>
</g>
<path d="m396.33 56.521c0.79877 0-4.7632 57.233-6.5838 59.416 0.74326 0.0318 15.099-6.0098 15.099-6.0098s-2.3899-54.145-0.0807-53.068c1.1527 0.53793-8.4344-0.3386-8.4344-0.3386z" fill="#898282"/>
<path d="m408.36 49.723c-0.19502 2.3023-2.7519 6.9027-9.8476 6.9027-7.0957 0-9.8868-2.7157-9.8868-6.9027s5.7522-7.5813 12.848-7.5813c7.0957 0 7.1334 4.6677 6.8866 7.5813z" fill="#898282"/>
<path d="m407.41 18.838c0 1.8855-2.5903 3.6041-5.7855 3.8387s-5.7855-1.1037-5.7855-2.9892c0-1.8855 2.5903-3.6041 5.7855-3.8387s5.7855 1.1037 5.7855 2.9892z" fill="#caccd6"/>
<path d="m410.41 31.66c0.52759 3.9699-4.0424 7.9393-11.043 8.3641-8.429 0.5114-13.166-2.7393-13.166-8.1092 0-5.37 6.8467-9.8585 15.29-9.7232 5.3015 0.08494 8.5559 6.7347 8.9192 9.4683z" fill="#898282"/>
<path d="m409.39 42.163c0 1.5833-4.2784 3.0368-8.7493 2.9518-6.8482-0.13011-12.402-1.2835-12.402-2.8669s5.5525-2.8669 12.402-2.8669c4.4709 0 8.7493 1.1986 8.7493 2.7819z" fill="#898282"/>
</g>
</g>
<path d="m796.29 185.52 8.8996 27.551-49.016 4.2186-4.8213-4.4195s3.8993-7.7273 4.7028-7.7273c0.80354 0 40.235-19.623 40.235-19.623z" fill="#e8f2ea"/>
<path d="m207.8 244.94c-1.6522-0.0536-3.3558 0.0391-5.0465 0.31761 0.21494 1.917 0.21415 2.1232 0.63522 3.776 11.543-1.9012 22.4 5.5954 24.35 16.657 0.59749 3.3897 0.29591 6.8455-0.88226 10.093 1.669 0.95838 2.0402 0.91909 3.5996 1.341 1.4061-3.8758 1.7729-8.0529 1.0587-12.105-2.0315-11.525-12.15-19.705-23.715-20.08z" color="#000000" fill="#b7babf" style="block-progression:tb;text-indent:0;text-transform:none"/>
<path d="m448.03 234.9c11.383 2.6411 18.273 13.577 15.563 24.491-1.8962 7.6368-8.1765 13.561-16.198 15.175 0.19354 1.7457 0.45561 2.7106 0.74109 3.776 9.4252-1.8963 16.935-8.8838 19.198-17.998 3.2251-12.989-5.1125-26.089-18.457-29.185-0.59182 2.2087-0.62883 2.4631-0.84696 3.7408z" color="#000000" fill="#b7babf" style="block-progression:tb;text-indent:0;text-transform:none"/>
<path d="m187.64 256.52c-2.4861 3.9639-3.7601 8.5541-3.6349 13.199 0.3603 13.36 11.872 23.884 25.585 23.539 0.17525-1.9256 0.0768-2.0909-0.10587-3.8466-11.708 0.29505-21.33-8.5837-21.633-19.798-0.10475-3.8838 0.94569-7.7147 3.035-11.046-1.2029-1.2029-1.7715-1.6516-3.2467-2.0468z" color="#000000" fill="#6a6e74" style="block-progression:tb;text-indent:0;text-transform:none"/>
<path d="m196.89 267.51c-0.0956 0.41666-0.16258 0.81033-0.21174 1.2352-0.72119 6.2324 3.6792 11.961 9.8459 12.704 0.2396-1.1882 0.32965-2.4793 0.45878-3.8113-4.0651-0.49012-6.9808-4.2225-6.4934-8.4343 0.0329-0.28458 0.0772-0.56812 0.14116-0.84696-1.739-0.41625-1.9282-0.44146-3.7408-0.84697z" color="#000000" fill="#6a6e74" style="block-progression:tb;text-indent:0;text-transform:none"/>
<path d="m208.77 259.44c-1.4528-0.18121-2.9557-0.085-4.4466 0.3529 0.0395 1.3124 0.43252 2.0794 1.094 3.6702 3.9377-1.1567 7.9921 1.1156 9.1401 5.1876 0.52742 1.8708 0.34221 3.884-0.52935 5.6111 1.183 0.90581 1.7484 1.037 3.4231 1.7292 1.3068-2.5896 1.5998-5.5681 0.81167-8.3638-1.276-4.526-5.1347-7.6436-9.493-8.1873z" color="#000000" fill="#b7babf" style="block-progression:tb;text-indent:0;text-transform:none"/>
<path d="m242.66 186.79c-1.2384-0.0402-2.5153 0.0293-3.7826 0.23807-0.047 1.0868 0.23939 1.9468 0.47614 2.8303 8.6519-1.4251 16.79 4.194 18.252 12.485 0.44786 2.5408 0.22181 5.131-0.66129 7.5652 1.0157 0.58639 1.2603 0.61991 2.6981 1.0052 1.0539-2.9051 1.3289-6.036 0.79355-9.073-1.5227-8.6385-9.1067-14.77-17.776-15.051z" color="#000000" fill="#b7babf" style="block-progression:tb;text-indent:0;text-transform:none"/>
<path d="m227.07 196.32c-1.8634 2.9711-2.8184 6.4117-2.7245 9.893 0.27006 10.014 8.8987 17.902 19.178 17.643 0.17783-1.1932 0.11553-1.6674-0.0794-2.8832-8.7757 0.22115-15.988-6.4339-16.215-14.839-0.0785-2.9111 0.70885-5.7825 2.2748-8.2794-1.4365-1.1307-1.4873-1.1578-2.4335-1.5342z" color="#000000" fill="#6a6e74" style="block-progression:tb;text-indent:0;text-transform:none"/>
<path d="m234.48 203.71c-0.0717 0.31231-0.12186 0.60738-0.15871 0.92581-0.54056 4.6715 2.7577 8.9653 7.38 9.5226 0.21844-0.64689 0.10752-1.707 0.34387-2.8568-3.047-0.36737-5.2324-3.165-4.8671-6.322 0.0247-0.2133 0.0579-0.42583 0.10581-0.63484-1.7273-0.52787-1.6263-0.49697-2.8039-0.63484z" color="#000000" fill="#6a6e74" style="block-progression:tb;text-indent:0;text-transform:none"/>
<path d="m243.39 197.66c-1.0889-0.13583-2.2154-0.0637-3.3329 0.26452 0.29023 1.4679 0.39213 1.6274 0.82 2.751 2.9515-0.86701 5.9905 0.83622 6.851 3.8884 0.39533 1.4022 0.25651 2.9113-0.39677 4.2058 1.3841 0.79909 1.1616 0.6935 2.5658 1.2961 0.97952-1.9411 1.1992-4.1736 0.60839-6.2691-0.95642-3.3924-3.8488-5.7293-7.1155-6.1368z" color="#000000" fill="#b7babf" style="block-progression:tb;text-indent:0;text-transform:none"/>
</svg>
